<svg id="Layer_1" enable-background="new 0 0 512 512" height="512" viewBox="0 0 512 512" width="512" xmlns="http://www.w3.org/2000/svg"><path d="m164.71 106.09c-25.124-2.691-49.136 11.054-59.54 34.08l-65.219 131.069-8.62 17.33c-16.608 45.44 6.766 95.74 52.206 112.348 14.413 5.268 29.958 6.657 45.077 4.028-47.666-8.281-79.594-53.635-71.313-101.301.892-5.134 2.24-10.179 4.029-15.074l8.62-17.33c13.261-20.528 34.479-34.6 58.55-38.828-1.857-.32-3.734-.589-5.634-.792-11.72-1.267-23.575-.144-34.849 3.3l47.148-94.75c7.25-16.044 21.34-27.968 38.362-32.465-2.879-.759-5.811-1.299-8.772-1.615z" fill="#d4e1f4"/><g fill="#1ae5be"><path d="m299.109 173.898c-27.163-13.461-59.048-13.495-86.239-.09l-.164.081 5.315 10.757.174-.084c23.823-11.746 51.759-11.719 75.559.075z"/><path d="m204 290h104v12h-104z"/><path d="m325.1 370.545-3.441-11.5-17.759 5.32c-31.233 9.375-64.536 9.34-95.75-.1l-17.3-5.215-3.464 11.488 17.3 5.215c33.464 10.121 69.168 10.158 102.653.105z"/><path d="m241.288 228c-9.389 0-17 7.611-17 17s7.611 17 17 17h29.424c9.389 0 17-7.611 17-17s-7.611-17-17-17zm34.444 17c-.004 2.766-2.25 5.004-5.016 5-.001 0-.003 0-.004 0h-29.424c-2.761 0-5-2.239-5-5s2.239-5 5-5h29.424c2.766-.007 5.013 2.23 5.02 4.996z"/></g><g fill="#0635c9"><path d="m119.216 265.825c-29.192-3.124-55.389 18.008-58.513 47.199s18.008 55.389 47.199 58.513c29.192 3.124 55.389-18.008 58.513-47.199 0-.002.001-.005.001-.007 3.096-29.182-18.023-55.36-47.2-58.506zm35.271 57.231c-2.406 22.615-22.689 38.999-45.305 36.593-22.615-2.406-38.999-22.689-36.593-45.305 2.406-22.615 22.689-38.999 45.305-36.593.015.002.031.003.046.005 22.589 2.44 38.939 22.706 36.547 45.3z"/><path d="m412.252 137.592c-11.459-25.336-37.892-40.45-65.539-37.475l-.109.011c-35.277 3.846-60.859 35.409-57.317 70.718l16.081 157.354c.014.143.025.287.04.43 0 .037.011.073.015.11l.06.589h.017c5.394 47.175 45.273 82.828 92.756 82.925 3.383-.001 6.763-.182 10.126-.542 51.395-5.516 88.588-51.652 83.072-103.047-1.544-14.39-6.405-28.226-14.2-40.421zm-64.43-25.527.109-.01c22.553-2.439 44.116 9.903 53.434 30.585.031.067.062.134.095.2l48.7 97.874c-40.25-26.697-94.206-18.37-124.534 19.219-5.26 6.507-9.627 13.687-12.987 21.35l-11.411-111.66c-2.887-28.719 17.903-54.402 46.594-57.558zm59.284 287.71c-44.739 4.784-84.9-27.568-89.751-72.3l-.03-.3c-4.666-44.812 27.879-84.922 72.691-89.588 30.442-3.17 60.097 10.967 76.803 36.613l8.348 16.78c15.261 42.421-6.757 89.181-49.178 104.442-6.099 2.194-12.439 3.654-18.883 4.349z"/><path d="m392.784 265.825c-29.191 3.121-50.324 29.315-47.203 58.506s29.315 50.324 58.506 47.203 50.324-29.315 47.203-58.506c0-.001 0-.002 0-.003-3.155-29.172-29.327-50.286-58.506-47.2zm37.682 78.7c-14.272 17.69-40.183 20.461-57.873 6.189s-20.461-40.183-6.189-57.873c6.854-8.496 16.802-13.92 27.656-15.081 22.585-2.431 42.863 13.907 45.294 36.492.002.018.004.037.006.055 1.189 10.855-2.013 21.735-8.894 30.215z"/><path d="m131.421 133.561c-3.027-1.348-6.572.013-7.921 3.039l-2.129 4.77c-1.355 3.024-.002 6.574 3.022 7.929s6.574.002 7.929-3.022c.002-.005.005-.01.007-.015l2.129-4.771c1.352-3.025-.005-6.574-3.03-7.926-.002-.002-.005-.003-.007-.004z"/><path d="m119.569 160.121c-3.026-1.35-6.574.009-7.924 3.035l-20.376 45.668c-1.35 3.026.009 6.574 3.035 7.924s6.574-.009 7.924-3.035l20.372-45.668c1.351-3.025-.006-6.572-3.031-7.924z"/><path d="m203.375 242.388-4.01 39.079c-3.359-7.692-7.726-14.902-12.987-21.442-30.306-37.618-84.27-45.975-124.535-19.287l48.7-97.886c.033-.066.064-.139.095-.207 11.971-26.44 43.11-38.169 69.549-26.198 20.628 9.34 32.954 30.843 30.589 53.363l-3.11 30.583c-.335 3.297 2.066 6.241 5.362 6.576.202.02.404.031.607.031 3.079 0 5.659-2.33 5.97-5.393l3.108-30.577c3.656-35.467-22.132-67.183-57.599-70.839-27.568-2.842-53.874 12.228-65.366 37.447l-65 130.623c-8.15 12.715-13.086 27.222-14.384 42.269-4.382 49.778 31.724 94.607 81.291 100.952 4.009.513 8.047.77 12.089.77 47.483-.098 87.362-35.751 92.756-82.927h.017l.06-.589c0-.037.011-.074.015-.111.015-.143.026-.1.04-.247l8.681-84.769c.336-3.297-2.063-6.242-5.36-6.578-.202-.021-.406-.031-.609-.031-3.077 0-5.655 2.327-5.969 5.388zm-8.7 84.786-.03.3c-4.908 44.774-45.184 77.093-89.958 72.185-44.654-4.895-76.943-44.977-72.218-89.65.693-6.493 2.158-12.879 4.364-19.025l8.348-16.78c4.691-7.196 10.486-13.608 17.173-19 14.435-11.716 32.464-18.105 51.055-18.093 2.949.001 5.895.158 8.827.472 44.718 4.781 77.126 44.861 72.439 89.589z"/></g></svg>