<svg xmlns="http://www.w3.org/2000/svg" viewBox="0 0 4261 2000"><defs><style>.cls-1{isolation:isolate;}.cls-2{fill:#ebfbff;}.cls-3,.cls-4,.cls-40{fill:#c5ddf9;}.cls-4{opacity:0.3;}.cls-5{fill:#8fbde2;}.cls-6{fill:#6ea7ce;}.cls-7{fill:#aacef2;}.cls-8{fill:#f4f4f4;}.cls-9{fill:#001333;}.cls-10{fill:#f7a491;}.cls-11{fill:#184655;}.cls-12{fill:#d3d9f4;}.cls-13{fill:#355389;}.cls-14{fill:#f47458;}.cls-15{fill:#ed9485;}.cls-16{fill:#f8c48b;}.cls-17{fill:#fff;}.cls-18{fill:#50bfa5;}.cls-19{fill:#3c8f7c;}.cls-20{fill:#daeef7;}.cls-20,.cls-27,.cls-40{mix-blend-mode:multiply;}.cls-21{fill:#f7cc7f;}.cls-22{fill:#eab054;}.cls-23{fill:#466eb6;}.cls-24{fill:#b75742;}.cls-25{fill:#13375b;}.cls-26,.cls-27{fill:#d3e5f4;}.cls-28{fill:#f79c8d;}.cls-29{fill:#0e293f;}.cls-30{fill:#0e2e35;}.cls-31{fill:#f2e9da;}.cls-32{fill:#e0d5c3;}.cls-33{fill:#e8ba70;}.cls-34{fill:#fae0b2;}.cls-35{fill:#88b5e2;}.cls-36{fill:#2c4b70;}.cls-37{fill:#fef8f8;}.cls-38{fill:#eddfca;}.cls-39{fill:#db3f2a;}.cls-40{opacity:0.5;}.cls-41{fill:#b0c1ec;}</style></defs><g class="cls-1"><g id="Layer_2" data-name="Layer 2"><g id="Layer_1-2" data-name="Layer 1"><rect class="cls-2" width="4261" height="2000"/><path class="cls-3" d="M1367.53,932.81H187.05A75.31,75.31,0,0,1,111.8,857.6V176.23A75.31,75.31,0,0,1,187.05,101H1367.53a75.32,75.32,0,0,1,75.25,75.22V857.6A75.32,75.32,0,0,1,1367.53,932.81ZM187.05,129.87a46.42,46.42,0,0,0-46.38,46.36V857.6A46.41,46.41,0,0,0,187.05,904H1367.53a46.42,46.42,0,0,0,46.38-46.35V176.23a46.43,46.43,0,0,0-46.38-46.36Z"/><path class="cls-4" d="M187.05,904H1367.53a46.42,46.42,0,0,0,46.38-46.35V176.23a46.43,46.43,0,0,0-46.38-46.36H187.05a46.42,46.42,0,0,0-46.38,46.36V857.6A46.41,46.41,0,0,0,187.05,904Z"/><path class="cls-3" d="M1381.53,349.53c-3.5,4-6.24,8.27-10.07,11-1.42,1-5.89-.84-8.09-2.54-7.14-5.51-8.85-5.59-16.35-1-4.12,2.52-5.21,5.43-3.51,9.65,1.82,4.52.06,5.05-4.35,6-6.11,1.29-12,4.39-17.56,7.35-4.47,2.36-7.75,5.24-14,4.38-7.85-1.09-15.29,3.19-20.87,9.43-.46.52-1.06,1.3-1,1.87.52,3.59,1.21,7.15,1.82,10.58-4.57,4-5.49,10.34-10.69,14.2-4.63,3.43-7.41,9.35-11.66,13.91-2.28-12.05-5.58-23.9,2.06-35.1a8.24,8.24,0,0,1,1.36-1.63c4.29-3.62,8.73-7.06,12.87-10.84a41.76,41.76,0,0,0,8.42-10.45l-9.49,4.2c-.66-.93-1.37-1.91-2.07-2.91-2.58-3.7-6.4-4-8.84-1-3,3.68-9.67,4.95-8.45,11.67-3.75.41-8.11,2.2-11.08.87-3.33-1.49-5.57-2.84-9.49-1.59-3.29,1.06-7.27-.27-10.89.08s-8.47.29-10.69,2.5c-7,7-13.11,15-19.55,22.56l-2-1.89c.83,1.76,1.66,3.51,2.06,4.34,4.13.69,9.1.06,11,2.17,2.83,3.2,6,7.84,2.49,13a11.37,11.37,0,0,0-1.59,4.69c-2,14.41-11.6,24.34-20.48,34.57-1.73,2-5.84,1.74-8.56,3.09a40.82,40.82,0,0,0-8.6,5.68c-1.57,1.37-1.86,4.41-3.51,5.42-5.28,3.24-4.15,6.38-1.47,10.81,1.69,2.79,2.95,7.26,1.84,9.91-1.2,2.87-5.37,4.5-8.24,6.67l-1.6-1c0-2.45,0-4.9,0-7.35,0-3,1.3-6.42-3.38-7.47-.63-.15-1.26-2.63-1-3.85,1-5.18-1.75-4.84-5-3.61a62.87,62.87,0,0,0-6.28,3.21v-7.92l-11,7.71,3.48,5.77h10.25c.07.59.15,1.17.23,1.75-2.6,1.95-5.51,3.6-7.66,5.95-1.1,1.2-1.44,3.8-1,5.52,1.47,6.39,3.43,12.66,5.1,19a4.14,4.14,0,0,1-.43,2.58c-4.58,9.49-9.29,18.94-17.69,25.76-1.48,1.2-3.71,1.47-5.57,2.22-5.42,2.2-10.83,4.44-16.81,6.89-1.9-3.08-4.81-3.81-8.62-.59-4.4,3.72-5.78,7.39-3.35,12a31.41,31.41,0,0,0,4.79,6.61c6.08,6.5,4.34,18.25-3.3,22.75a58.49,58.49,0,0,0-6.71,5.21c-2.81-4-5.24-7.61-7.94-11-.65-.83-2.52-1.61-3.25-1.24-1.1.55-2.45,2.17-2.38,3.25.36,5.21.63,10.53,2,15.55,1.84,7,4.57,13.84,7.12,21.3-6.81-1.62-10.47-6.65-12.1-14.26-.78-3.67-2.6-7.11-3.86-10.69a24.59,24.59,0,0,1-1.38-5.09c-.79-6.26-1.22-12.57-2.23-18.79-.58-3.56-1.41-7.47-6.58-7.39-.62,0-1.94-1.69-1.78-2.28,2.54-9.31-5.42-14.74-7.58-22-9.29-.74-13.85,5.83-19.17,11.12-3.92,3.9-8.14,7.56-11.57,11.85a19.5,19.5,0,0,0-4.23,9.48c-.93,8.66-3.26,14.86-9.9,21.65-1-1.8-2.38-3.29-2.84-5Q993.69,589,988.8,569.15c-.72-2.94-1.46-5.1-5-5.54a6.64,6.64,0,0,1-3.91-2.73c-3.11-4.37-5.94-8.93-8.88-13.42-2.74-4.19-7-2-10.55-2.38-5.64-.63-11.85.33-16.81-1.77-5.18-2.2-10.6-3.92-15.59-6.4-3.5-1.73-6.2-5.37-8.77-8.55-1.67-2.07-2.87-5.07-5.8-3-1.29.9-1.93,4.25-1.35,6,1.37,4,3.65,7.76,5.73,12l2.76-2.2a8.48,8.48,0,0,1,.84,1.63c.51,2.21.95,4.44,1.42,6.67,3.13-1.3,6.43-2.3,9.31-4,1.35-.8,1.9-2.94,2.32-3.64,3.2,3.62,6.36,7.16,9.49,10.73,2.26,2.57,3.61,5.42.61,8.19-4.5,4.14-4.69,11.19-11.14,14.3-10.4,5-20.27,11.12-30.39,16.72-1.11.61-2.48.73-3.61,1.32-4,2.06-6.49,1.08-6.78-3.54-.63-10.19-4.25-19-9.94-27.58-3.94-5.93-5.58-13.37-8.57-20-1.57-3.48-3.83-6.66-5.74-9.92-4,.61-4.54,2.79-3.44,5.62,2.51,6.41,5.14,12.78,7.72,19.16.27.68.82,1.4.74,2-1,7.83,4.32,13.73,6.38,20.62a13.42,13.42,0,0,0,3.85,5.85c4.29,3.8,8.38,7.44,9.08,13.74.15,1.38,3.07,3.73,4.36,3.51,6.27-1.07,12.41-2.86,19.78-4.69-.86,4-.95,8-2.52,11.16-5.07,10.37-10.1,20.58-19.51,28.36-6.65,5.49-12,12.88-16.77,20.18-4.37,6.71-1.61,14.37-.37,21.75a86.67,86.67,0,0,1,1.36,20c-.17,2.59-3.77,5.09-6.08,7.36-1.41,1.38-3.44,2.1-5,3.38-5,4.12-8.61,8.42-6.22,16,1.39,4.39.57,9.36-5,12.15-1.72.87-2.19,4.28-3.17,6.55-5,11.39-10.45,22.55-22.82,27.52-5,2-10.68,2.57-16.12,3-4.58.4-5.36-3.76-6.21-7.11-1.38-5.39-2.41-10.86-3.75-16.26-1.66-6.7-3.53-13.36-5.24-20-1.49-5.83-1.89-12.2-4.56-17.42-4.36-8.54-2.68-16.73,1.25-23.79,4.17-7.5,1.81-14.35.61-21.17a38.23,38.23,0,0,0-7.2-16.36C784.84,647,786,641,787.43,634.63c1.91-8.65.4-10.66-8.29-11a5.76,5.76,0,0,1-3.95-2c-4-5.53-8.13-7-14-4-5.26,2.69-10.26,5.84-16.54,3.32a3.71,3.71,0,0,0-2.16.27c-5.79,1.74-11.46,3.14-16.15-2.52-3.57-4.3-7.46-8.35-10.94-12.72-2.4-3-4.12-6.54-6.54-9.52-5-6.19-5.53-13.19-3-20.12,2-5.49.73-10.36-.25-15.55-.39-2.06-.78-4.62.07-6.35,3.55-7.25,7.49-14.32,11.48-21.35.66-1.16,2.25-1.79,3.4-2.67,4.28-3.28,7.82-6.5,8.05-12.91.13-3.45,4.07-6.71,6.09-10.17s4.37-6.7,5.06-10.34c.25-1.32-3.9-3.48-6-5.25l-2.27,1c.14-5.23.32-10.46.41-15.68a70.91,70.91,0,0,0-.08-9.89c-.49-4.05,1.64-4.76,4.82-4.58,3.86.22,7.7.65,11.56.79,7.42.26,11.64-6,8.2-12.8-1.42-2.77-4.37-4.75-6.53-7.16-1.32-1.47-2.49-3.07-3.72-4.62,1.9-.47,3.78-1,5.69-1.37a20.91,20.91,0,0,1,3.48,0v-3.32c3.33-1.15,6.35-1.36,8.1-3,4.38-4,7.81-9.07,12.31-12.9,4.07-3.45,9.05-5.83,14.55-9.26.44-5.52-8.5-14.66,4.62-19.49.3,3.22.59,6.46.88,9.57l3.33-1.93,1.27.64c-1,3.59-2,7.18-3.27,11.6l7.06-3.14c1.61,4.14,4.36,3.8,7.72,1.84,2.82-1.65,5.38-4.3,9.44-1.39.88.63,6.54-.25,6.73-5.35.16-4.29-1.12-9.44,4-12.35l5.57,4.21c0-3.2.47-5.29-.08-7.07-1.74-5.61-1.89-5.56,2.63-9.16a35.88,35.88,0,0,1-4.24-1.38c-3.73-1.75-7.63-3.46-5.78-8.89a1.7,1.7,0,0,0,0-1.09c-2.7-7.18,1.91-11.17,6.56-15.15.83-.71,2.21-1.43,2.28-2.24.21-2.3.76-5.84-.44-6.73a4.29,4.29,0,0,0-6.94,2.68c-.91,5.46-5.17,7.72-8.28,11.23a37.38,37.38,0,0,0-6.21,10.07c-.65,1.54,0,4.9,1.27,5.77,4.85,3.42,2.25,6.47.39,9.9-1.6,2.93-4,6-4,9.08,0,4.4-1.6,6.53-5.29,8.17-1.72.76-3,2.47-5.17,4.33-.72-2-1.3-3.42-1.72-4.88-.85-3-1.32-6.16-2.46-9-3.09-7.8-3.56-7.87-10.44-3.35-3.68,2.43-8.17.84-8.78-3.4A85.38,85.38,0,0,1,779.71,367c.08-2.19,1.86-4.72,3.56-6.4,5.07-5,11.1-9.14,15.58-14.58s7.76-11.78,10.94-18.06c1.25-2.46-.06-6.33,1.36-8.56s5.07-2.83,7.24-4.72c5.4-4.72,11.63-5.43,17.5-5.15,3.22-2.24,6.69-6.41,8.84-5.81,5.6,1.56,12.74-3.4,16.91,4.13l-2.44,3c1,.35,1.77.56,2.49.88,9.29,4.11,18.73,7.93,27.73,12.6,2.28,1.18,5,6.64,4.3,7.49-2.22,2.7-5.88,4.32-9.17,6-.94.48-2.5-.42-3.78-.42-2.58,0-6.2-3.47-7.08,2.38-1.12,7.44-.65,8.64,5.37,10,1.76-1.7-3.07-6.84,2.88-6.09,2.5.31,4.8,2.27,7.41,3.59.66-8.87,6.48-13.06,14.31-10.3V321.44a14.9,14.9,0,0,1,4.25.07c2.85.8,5,1.93,1.93,5.38-.89,1,0,3.64.11,5.53,1.91-.41,4.09-.36,5.66-1.32,4.21-2.56,8-5.82,12.26-8.26,2.37-1.35,5.37-1.61,8.46-2.46-.19,1-.42,2.22-.73,3.84L959.36,319l-6.09-8.75.72-.89c1.42.9,2.73,2.18,4.28,2.6,2.22.61,4.62.52,6.93.84,2.07.28,4.34.25,6.12,1.16,4.52,2.3,8.81,5,13.52,7.79.29-.93.86-1.88.63-2.15-3.27-3.88-4.88-7.82-4.11-13.32.36-2.55.55-3.9,2.42-5.7s3.21-4.78,4.6-7.32c1.63-3,7.1-4.68,10.28-2.23,1.25,1,.74,4.29.88,6.55.13,2,0,4,.06,5.94,0,1.62.09,3.24.2,4.85.29,4.28.82,8.56.83,12.84a13.09,13.09,0,0,1-1.58,6.16,95,95,0,0,1-5.95,8.49c4.52,1.58,12.41-4.89,12.35-10.06,0-2.15-.79-4.29-1.15-6.44-.41-2.43-.84-4.87-1-7.32-.08-.86.7-1.78.67-2.65-.11-3.25-1.3-6.79-.36-9.65s3.94-4.74,6-7c2.51,2.59-3.69,8.1,1.75,10.63,1.75-3.48,3.25-6.46,5.13-10.22l14.26,5.36c-1.4-2.55-3.08-4.85-3.94-7.41-1.11-3.28.41-5.31,4-5.5,3.31-.18,6.64-.27,9.94-.63,3.12-.33,4.9-1.37,4.19-5.42-.29-1.69,2.16-5,4.09-5.75,7.88-3.15,16-5.63,24.12-8.27a4.38,4.38,0,0,1,2.63.26c3.39,1.25,12.31-2.49,13.78-5.85,2.3-5.28,7.6-8,12.52-6.08,1.15.45,1.78,2.19,2.66,3.33a14.46,14.46,0,0,0,1.5,1.8c1.33,1.22,2.73,2.37,4.59,4,5.79-1.24,12.61-3.19,18,3.36,3.41,4.14,3.07,6.94-1.24,10-4.63,3.27-9.28,6.51-14.39,10.08,1.08.49,1.72.95,1.86.82,3.4-2.93,6.2-3.7,10.84-1,3.76,2.18,9.3,1.06,13.91,2.06,4,.87,7.78,2.94,11.79,4,3.27.83,6.74.91,9.87,1.29l2.8-6.21c4,.93,7.22,1.91,10.54,2.41a8.21,8.21,0,0,1,6.25,10.47c-1.75,5.89,1.84,7.87,6,10.78l4.22-5.83h24.22c-1.4-7.47.94-9.76,8.62-8.16,7.22,1.51,14.45,3,21.6,4.84,1,.25,1.65,2.07,2.44,3.18.29.41.44,1.11.81,1.24,5.58,2,9.75,8.11,16.89,5.69a18.84,18.84,0,0,1,5.49-.51c7.49-.17,10.31,2.16,11.46,9.07,6.33,1.23,12.51,2.73,18.77,3.49,2.09.25,4.39-1.47,6.63-2.15,1.66-.5,3.38-.77,5.08-1.13l.45,1.52-3.84,1.9c1.64,1.45,2.81,2.85,4.31,3.68a4.37,4.37,0,0,0,3.49.14c.59-.26,1-2,.74-2.85-2-5.57.74-4.69,4.85-4.62,14.79.24,26,8.14,37.54,15.87C1367.54,340.85,1374.48,345.06,1381.53,349.53ZM746.14,497.92c4.23,1.9,7,3.54,10.54.63a17.79,17.79,0,0,1,8.28-4c8.63-1.21,17.35-1.85,26.06-2.38,1.16-.07,3.42,1.68,3.47,2.68a85,85,0,0,1-.57,10.79l-1.55,1.22c3.46,1.52,7,2.93,10.37,4.61,1.87.93,3.47,2.4,5.29,3.45A127.11,127.11,0,0,0,819.29,521c.41.19,2.7-2.14,2.94-3.5,1-5.93,3.9-6.9,9.49-4.61,7.48,3,14.61,8.71,23.72,4.93,1.41-.59,3.52.8,5.31.8,2.06,0,5.6,0,5.92-.94a125.25,125.25,0,0,0,5.42-19.33c.53-2.89-1.42-4.52-5.08-3-2,.85-4.73.15-7.12,0-1.06-.06-2.16-.83-3.12-.65-7.14,1.31-11.75-1.92-13.08-9.15a17.56,17.56,0,0,0-2-6.13c-.81-1.28-3.74-2.84-4-2.58-1.72,1.75-4.58,5.26-4.13,5.81,4.36,5.34-.31,8-2.92,11.87-1.16-1.32-2.48-2.21-2.93-3.42-2.43-6.43-4.62-12.95-6.94-19.43a5,5,0,0,0-1.18-1.82c-4.47-4.28-8.92-8.59-13.54-12.7-.79-.71-2.41-.71-3.61-.6-.39,0-1.15,1.79-.88,2.23,2.42,4,4.7,8.11,7.69,11.63,2.47,2.91,5.85,5,8.1,6.92-4,6-7.38,11.13-11,16.54l-5.28-4.12,9.06-5.55c-1.84-3-3.39-6.17-5.6-8.82a158.33,158.33,0,0,0-12-12.73c-1.11-1.05-3.77-1.75-5-1.15-4.06,2-7.63,5-12.71,3.25-.82-.28-3,.88-3.14,1.58-.67,4.9-4.64,6.59-7.82,9.31-2,1.72-3.18,4.8-4,7.49-1.48,5.15-4,9.18-9,11.55A43.6,43.6,0,0,0,746.14,497.92Zm135-22.78c2.86-.44,4.76-.46,6.46-1.05,3.93-1.36,4.87-4.95,1.84-7.76a70.75,70.75,0,0,0-10.38-8c-1.66-1.05-4.52-1.75-6.13-1-5.51,2.48-7.58-.85-9.67-4.74-2.42-4.5-4.63-4.8-7.6-.53-2.45,3.52-3.92,7.73-6.43,11.19-2.36,3.24-2.66,6.2.06,8.84,3.07,3,6.9,3.53,10.56.86,4.61-3.37,9.16-3,14-.57A73.07,73.07,0,0,0,881.15,475.14Zm38.55-15.76a84.17,84.17,0,0,0,7.68-4.39c1-.69,2-2.37,1.83-3.32a5.44,5.44,0,0,0-2.79-3.48c-6.61-2.4-17.63,7.19-16,14,.94,4,3.13,7.66,4.25,11.62.78,2.8,1.56,6.09.8,8.71-1.77,6.06,2.86,13.36,9.26,13.49,5.89.12,8-4.41,5-11.69-1.59-3.88-3.59-7.35,2-8.58C927.82,470.49,924.1,465.4,919.7,459.38ZM852.47,648.51c5.42,2.9,6.86.83,7.25-2.3.13-1.11-.88-2.36-1.37-3.54Zm250.66-228.17c8.2-3.62,9.62-5.66,8.87-11.88Z"/><path class="cls-3" d="M193.69,377.37c4.9-5.09,10-9.45,18.8-4.79-.84-2.63-.86-4.21-1.61-4.74-4.31-3-8.84-5.78-13.21-8.74-.78-.53-1.68-1.66-1.6-2.43s1.36-1.59,2.23-1.74c4.07-.72,5.27-3.53,7.39-6.81,2.66-4.14,8.4-6.3,12.86-9.26,1.49-1,3.1-1.79,4.65-2.69.92-.53,2-1.69,2.73-1.52,4.57,1,9.08,2.34,13.59,3.63.83.24,1.56,1.19,2.35,1.21,9.23.19,18.5-.14,27.69.5a72,72,0,0,1,16.52,3.57c3.62,1.14,6.06,1.64,10.06-.41,6.12-3.13,13.51-3.69,20.19-5.85,2.22-.71,3.93-3,6.39-5a16.24,16.24,0,0,1,1.89,2.24c3.9,5.86,4.15,5.87,8.08-.06,1.68,2.6,3.29,4.4,6.51,1.51,1.1-1,3.81-.57,5.7-.26,6.26,1,12.51,2.15,18.71,3.48a12.82,12.82,0,0,1,4.7,2.44c2.17,1.62,4.36,5.23,6.11,5,4.3-.6,8.45-2.75,12.48-4.64,2.26-1,4-3.21,6.32-4.12,1.2-.47,3.46.2,4.53,1.16,5.6,5,14.81,6.32,22.18,2.89.09-.35.36-.85.23-1-3.43-4.39-1.68-8.87,1.24-12,6.36-6.74,4.58-14.9,4.86-22.57.4-11.38.13-11.51,11.4-11.21,1.45,0,2.9,0,6.13,0-2.56,4.17-3.94,8.14-6.71,10.43s-3.33,4.27-2,7c2.37,5,4.89,10,7.68,14.77.52.91,2.55,1.08,3.93,1.32,5.94,1.05,7.73,3.27,8.33,9.36.2,1.94,1.7,3.75,3.31,5.55,2.2-5.24,7.55-9.16,4.82-15.77-.25-.62,1.82-3.12,2.42-3,2.92.64,6,1.41,8.45,3.05s5,4.28,1.9,7.77a1.23,1.23,0,0,0-.1,1.06c3.8,8.33-2.57,10.5-8,13.3a43.85,43.85,0,0,0-3.87,2.53c1.71,5.34,6,5.93,10,7.46s7.24,3.92,10.84,5.94c0,.53,0,1.06,0,1.59-1.83.39-3.66.86-5.51,1.16-1.57.26-4.08-.25-4.61.57-3.31,5.19-7.5,5.35-12.26,2.81-.35-3.39-.72-6.93-1.15-11.1-10.41,6.61-18.44,14.51-21.72,26.05-1.25,4.43-3.18,10.24,4.6,11.59a.68.68,0,0,1,.46.27c5.76,10.75,18.75,9.34,27.09,15.95,2.41,1.91,6.64,1.51,10.66,2.29-.11,8.15,3.12,14.94,10.4,19.68,6.64-6.34.89-12.49-.33-19l2.92-2c6.57-4.55,7-11.51,1.3-17.36-1.33-1.37-2.94-4.14-2.39-5.37,2.58-5.8-.59-10.95-1.26-16.3-.49-3.95.48-5.1,4.23-4.61,1.78.23,3.68-.19,5.41.2A35.29,35.29,0,0,1,511,375c3.13,1.6,5.93,3.86,9.62,6.34.32,1.33.34,4.38,1.76,6.48,1.83,2.7,4.86,6.49,7.25,6.41,3-.11,6.24-3.29,6.4-7.62.06-1.4.76-2.77,1.59-5.61,4.57,7.71,8.7,14.28,12.4,21.09,2.19,4,3.57,8,9.23,9,7,1.2,11.06,9.24,10.95,16.52-.07,4.41,1.06,11.54,3.71,12.68,4.42,1.9,4.57,5.6,6.8,8.23.7.83.26,2.63.33,4a13.5,13.5,0,0,1-3.52.13c-2.6-.59-5.1-1.8-7.72-2.11s-5.39.14-9.35.32l6-18.31c-.87-.13-1.6-.46-1.82-.25-5.61,5.41-12.82,5.57-19.92,6.56-2.74.38-5.24,2.51-7.6,4.3,7.8-.82,9.25.26,7.28,7.09-1.37,4.75,1,7,4.17,9,3.64,2.27,5.71-.28,7.58-3,.38-.57,1.15-.88,2.1-1.57l4.16,3.81c-6.16,4.29-11.69,8.44-17.61,11.93-.88.52-3.59-2.06-6.61-3.92-2.18,1.35-5.65,3.25-8.79,5.58-1.16.87-2.43,3-2.15,4.16,1.21,5.1-2.12,7.58-5.34,10-7.45,5.51-9.32,13.09-8.81,21.77a7.8,7.8,0,0,1-.83,4.11,21,21,0,0,1-3.53,4.15c-13,13-12.92,13-6.9,30.32a21.66,21.66,0,0,1,.65,9.12c-5.65-1.59-6.34-6.59-8.44-10.57-1.36-2.57-3.48-7.12-4.75-7-5.37.72-12.11-6.14-16.37,2.54-.49,1-4.27,1.39-5.94.68-7.46-3.16-12.3.88-16.85,5.64a7.47,7.47,0,0,0-2.08,5c.67,10.61-1.34,21.84,7.35,30.66,2.57,2.61,4.5,4.07,8.49,2.86,5.17-1.56,9-2.76,9.66-9.55.5-4.83,6-3.9,10.1-3.56-.87,7.18-1.69,14-2.62,21.72,3.19-.31,5.83-.52,8.47-.82,5.74-.63,8.17,1.39,8.49,7.16.33,5.93-1.33,12.47,4.42,16.83,1.5,1.13,4.8,2.27,5.58,1.56,5.19-4.71,8.61-1.4,12.89,3.16,2.86-8.44,8.56-13.44,16.48-16.47.23,1,.53,2.35.82,3.66l1.28.81,1.93-3.81c5,2.07,9.16,4.08,13.55,5.49a8.94,8.94,0,0,0,6.06-.31c4.4-2.13,6.86.1,9.44,3.09,1.26,1.47,3.23,2.34,4.48,3.82,5.94,7.09,14.35,8.55,22.64,11,6.72,2,8.32,9.33,10.29,15.14,1.21,3.56,2.74,4.92,6,6,4.52,1.56,8.64,4.24,13.15,5.86,3.21,1.15,6.83,1.09,10.14,2a54.07,54.07,0,0,1,8.76,3.5c1.46.7,2.48,2.36,4,2.93,3.16,1.22,7.3,1.46,6.84,6.2S656.64,681.63,654,685c-6.13,7.82-9,15.66-8.73,25.76.18,6.65-2.91,13.56-5.39,20-.83,2.15-4.13,4.08-6.65,4.72-9.67,2.43-14.86,8.7-15.77,18.2-.38,3.95-2.7,7.84-4.63,11.51-2.44,4.62-5.55,8.89-8.06,13.48s-6.09,7.22-11.58,6.52c.15,3.1.89,5.94.29,8.47-1.25,5.33-5,8.16-10.5,9.24-1.89.38-4.55,2.26-4.93,3.9-.92,4-2.72,6.28-6.93,6.45-.26,7.39-1.42,14.15-6.77,19.6-.75.76-.13,4.46.89,5.08,4.42,2.68,2.64,5.27.58,8.14-1.06,1.48-2.12,3-3.08,4.52-2.76,4.48-4,8.44-1.09,14.06,2.36,4.63,3.72,9.31,10.46,11.44-4.46,2-8.07,5.18-10.71,4.52-5.29-1.33-10.37-4.32-14.87-7.55-1.62-1.16-1.23-5-1.94-7.58a24.61,24.61,0,0,0-1.79-4.4c-1-2-3.14-4.05-3-5.94.32-3.95.17-8.08.51-12,.51-5.84-1.48-11.71,3.69-16.46.13-.12,0-.85-.25-1-5.7-4.3-1.41-9.67-1.75-14.59-.69-9.9,1.65-19.21,4.14-28.58a5,5,0,0,0,.13-1.09c.93-16.29,2-32.57,2.71-48.86.31-7.14-1.69-13.62-8.82-16.93-8.58-4-12.73-11.5-16.86-19.37-3.55-6.77-8-13.07-12-19.61a4.94,4.94,0,0,1-.8-2.54c.41-10.71-.57-21.7,7.07-30.81,3.24-3.86,3.34-12.52.43-16.77-1.39-2-3.14-3.83-5.1-6.19-1.4,2.12-2.47,3.71-3.91,5.88-5.54-3.07-11.4-5.62-16.38-9.35-3-2.22-4.42-6.4-6.84-9.47-.91-1.15-2.58-1.76-4-2.42-5.13-2.42-10.23-4.89-15.47-7a32,32,0,0,0-7.29-1.71c-3.65-.55-7.6-.19-11-1.45a186.49,186.49,0,0,1-19.51-8.95c-1.55-.79-3.51-3.05-3.39-4.47.53-6.43-3.48-10.22-7.24-14.27-4.08-4.38-8.12-8.79-12.31-13.05a11.72,11.72,0,0,0-6.11-3.3q5.64,9.88,11.27,19.77l-2,1.26c-2.69-3.44-5.33-6.91-8.07-10.3a25.42,25.42,0,0,0-3.45-3.43c-2.23-1.85-6.81-2.29-3.95-7,.15-.24-.41-1-.72-1.42-4.11-6-8.13-12.06-12.44-17.91a10.14,10.14,0,0,0-4.77-3.43c-5.56-1.8-8.52-5.93-11-10.81-2.88-5.65-7.15-10.84-8.8-16.79-2-7.3-2.26-15.16-2.75-22.82-.53-8.27-3.48-14.9-10.63-19.47-2.61-1.67-5.22-3.58-2.16-6.42-3.05-3.58-6-6.91-8.77-10.32-2-2.37-3.55-5.08-5.74-7.21a8,8,0,0,0-4.9-1.8c-1.66-.07-3.36.82-5.91,1.54l1.18-7c-5.11-3.42-10.58-6.08-14.62-11.7-4.8-6.68-13.62-8.07-21.61-9.51-4.83-.88-9.7-1.53-15-2.35-.94,4-4,4.58-8.4,3.75-6.36-1.18-7.38.57-9.48,7.22-1.14,3.61-4.4,6.64-7,9.69-5.57,6.61-11.37,13-22.29,15.05,2.6-3.09,4.13-5.35,6.11-7.11,1.77-1.57,4.27-2.31,6-3.89,2.51-2.27,4.78-5.2,2.1-8.58-2.37-3-5.47-5.15-9.58-2.51-.89.58-1.82,1.1-3.19,1.91-1.57-3.85-3.07-6.42-8.1-7.1-3.24-.43-6.66-6.11-8.19-10.13-.85-2.26,1.83-6,3.26-8.89.37-.75,2.19-.65,3.06-1.31,2.2-1.71,4.25-3.63,6.36-5.46-1.55-.87-3.24-2.69-4.61-2.47C202.23,385.16,199.08,384.18,193.69,377.37ZM478.85,460c-3.34-9-9.4-10.51-15.83-3.84-1.4,1.45-2.1,3.58-3.12,5.39,2-.76,4-1.54,6.05-2.29a8.74,8.74,0,0,1,1.49-.21C470.51,465.61,474.77,460.92,478.85,460Zm5.44,13,4.87,3.84c1.23-3.49,2.41-6.86,4-11.5L484.29,464Zm-11.2,10.93,1.69.06V467.8C470.8,471.35,470.06,478.75,473.09,483.91ZM343.8,367.38c3.16-.54,4-7.68,7.32-1.8l3.51-5.32a32.75,32.75,0,0,0-4.67-2.93c-.9-.39-3-.21-3.15.24C345.68,360.46,344.94,363.49,343.8,367.38Zm36.92,18.29L373,383.08c-1.39,2.5-2.69,4.86-4,7.22C375.23,393.52,376.35,387.31,380.72,385.67Zm52,43.69-1.7,1c-.64,4,2,5.9,6.12,6.88Z"/><path class="cls-3" d="M567.27,327c1.28-7.29-4.78-8.55-9.26-11.77l5.55-3.28-9-4.41a17.27,17.27,0,0,1-.75-4.77c.68-9.85-5.38-16.08-11.79-22-5.39-4.95-12.29-5.2-18.84-3.7-5.87,1.35-10.78,2-14.39-4-.55-.92-2.17-1.19-3.65-1.94l3.84-3.49c-2.51-1.37-4.54-2.43-6.52-3.57-2.32-1.34-3-3.15-.24-4.45a78.55,78.55,0,0,1,12.71-5c3-.81,6.5-.89,6.21-4.67-.13-1.71-3-3.21-4.93-5,1.59-4.13,8.49-8.81,13.75-8.24,3,.33,4-.38,3.91-3.42,0-1.15.85-3.16,1.68-3.37,6.73-1.7,13.5-3.58,20.38-4.32,3.12-.34,6.5,1.79,10.57,3-.67-2.11-1.11-3.52-2-6.36L576,227.34c.19-.33.58-.69.51-.93-2.29-8.11-2.28-8,6-9.11,12.39-1.62,24.72-3.93,37.16-4.93,8.08-.65,16.42-.46,23.64,4.88,1.85,1.37,4.91,1.11,5.84,1.29l2.05,11.91c3.71-.17,7.11-.28,10.51-.49a5,5,0,0,0,2.54-.64c6.4-4.54,7.8-4.67,15.13-1.09,0,.36.15.88,0,1.05-5.88,5.56-11.86,11-17.66,16.65-2,1.9-4.25,4.06-4.88,6.48-.48,1.87,1.47,4.33,2.22,6.57.53,1.6.51,3.48,1.37,4.84.66,1.05,2.3,1.49,4.26,2.63l-8.74,3.32c2,2.38,4.42,4,4.92,6.12.44,1.84-1.23,4.19-2.15,6.85l2.46,2.34-4.88,8.73q-2.5,4.45-5,8.94c5.2,9.07,2,16.69-9.29,22a18.86,18.86,0,0,1-4.67,1.66c-7.95,1.39-14.54,4.26-18.65,12.08-1.33,2.53-5.54,4.2-8.75,5-5.31,1.26-8.23,4-9.54,9.26-1.67,6.67-3.91,13.2-5.7,19.84-1,3.84-2.44,4.76-6.65,3.31-10.63-3.67-16.41-11.09-19.47-21.47a26,26,0,0,0-4.68-8.6C558.38,339,559.69,331,567.27,327Z"/><path class="cls-3" d="M1107.35,782.72c6.53-5.43,4.14-12.92,3.57-19.53s-1.48-13,.46-19.7c2.21-7.72,6.21-11.17,14.3-12,5.44-.57,10.75-2.73,16-4.56,1.27-.45,2.21-2.32,2.91-3.73.81-1.64.87-4,3.59-1.82.2.15,1.17-.44,1.63-.85,3.6-3.24,7.16-6.52,11-10a25.56,25.56,0,0,1,2.83,3c2.29,3.9,4.12,4.23,7.33.38,2.74-3.28,6.82-5.45,9.84-7.76l12.75,5.67c-1.21,3.49-4.39,7.9-3.33,10.73,1.73,4.63,6.22,8.24,9.62,12.37,9-6.49,6.8-17.46,13.19-24.86a14.7,14.7,0,0,1,.87,3.43c-.24,9.73,6.41,18.43,4.21,28.44-.07.34-.06.94.13,1.07,6.09,3.9,5.45,11.35,8.75,16.79,2.84,4.67,5.59,10.29,5.69,15.54a39.5,39.5,0,0,1-8.3,25.7c-4.16,5.31-7.51,11.25-11.39,16.78A10.65,10.65,0,0,1,1209,821c-1.61.8-3.72.68-5.19,1.62-2.46,1.55-4,1.59-6.69-.2-3.45-2.28-8.1-2.67-11.79-4.69-1.91-1-4.07-3.89-4-5.85.24-6.91-5.92-8.52-9.2-12.46-.93-1.12-2.4-2.14-2.69-3.42-2-8.72-8.39-13.69-17.26-12.38-6.06.9-12,2.7-18,4a8.65,8.65,0,0,1-3.81.16,19.1,19.1,0,0,0-12.83,1C1112.41,790.92,1109.46,787.39,1107.35,782.72Z"/><path class="cls-3" d="M442.75,272.75l5.69-3.77c-1.11-2.61-3.44-5.86,3-6.77L448.65,261c.86-2,1.19-4.66,2.69-5.91,5.18-4.32,5.06-4.21,0-8.33-1.81-1.47-2-5-2.88-7.57l1.33-.89c-5.08-1.86-10.25-3.53-15.2-5.69-1.47-.64-2.37-2.62-3.52-4,1.67-.75,3.4-1.4,5-2.26,4.26-2.31,10.25-.21,13.47-5.4.52-.85,2.68-1.66,3.41-1.26,5.18,2.86,8.37-1.3,12.16-3.18,9.92-4.91,20.67-5.88,31.43-6.28a151.84,151.84,0,0,1,22.16.86c4.12.44,8.09,2.37,13.08,3.93-5.54,4.77-10.75,9.36-16.06,13.82-2.94,2.47-6,4.9-9.11,7.08-3.85,2.65-8,4.87-11.82,7.55-2.36,1.65-5,2.74-4.84,7,.12,2.88-2.47,6.29-4.67,8.73-2.5,2.78-5.91,4.75-8.94,7.08l4.43,4.81c-3.15,1.48-6.17,3.64-9.49,4.28-4.1.79-8.44.48-12.68.37-5.26-.13-10.52-.54-15.78-.84C442.8,274.23,442.78,273.49,442.75,272.75Z"/><path class="cls-3" d="M545.38,334.34c-.69,1.71-1.57,4.31-2.78,6.74-1.73,3.46-3.76,6-8.13,2.75-1.09-.8-3.47.14-5.26.28,1,1.25,1.8,3,3.12,3.68,7.13,3.57,8,9.71,1.73,14.39l1.49,4.85c-1,.25-2.06.87-2.63.58-6.38-3.2-14.23-2.77-19.66-8.8-1.73-1.91-6.25-1.86-9.46-1.75s-8,3.12-9.18-1c-1.37-4.63,3.31-5.52,7.28-5.67a6.39,6.39,0,0,0,2.59-.7c1.55-3.76,2.44-6.34,3.64-8.77a7.05,7.05,0,0,0-2.08-9.36c-6.54-5.16-13.37-9.43-22.26-10.07s-17.3-2.52-26.22.16c-6,1.8-9.68-1.86-11.72-9.47-1.71-6.38,1.42-13.25,7.56-15.35,4.67-1.58,9.66-3.28,14.43-3.09,2.3.09,4.64,4.28,6.53,6.92.84,1.17.62,3.1,1,5.57,2.6-1.24,4.83-2,6.7-3.28,4.9-3.35,11.59-2.94,15.35,1.93,1.93,2.51,3.38,2.88,5.9,1.56.76-.4,2.2-.83,2.57-.46,6.31,6.2,18.6,5.32,20.16,17.3.37,2.88,2.61,5.22,6.52,4.31,1.18-.27,2.78.5,4,1.18C539.41,330.38,542.13,332.25,545.38,334.34Z"/><path class="cls-3" d="M356.69,330.41l2.65-4.71c-3.18-2.71-6.51-4.62-8.42-7.48a11.38,11.38,0,0,1-1.24-8.26c1-3.76,9.55-7.24,13.73-6.64,1.57.22,3.31-.63,4.85-.34s2.86,1.4,4.66,2.34l1.72-4.65,9.41,6.33c-.42-1-.88-2.1-1.4-3.21a8.32,8.32,0,0,1,4-11.14,4.4,4.4,0,0,1,3.57,0c.76.5,1.11,2.17,1,3.28-.68,9,3.8,15,12.44,17.35,3.28.87,8.67,0,4.69,7.38-3.55,6.54-3,8.13-10.44,6.36-5.47-1.3-8.59,2.39-12.39,4.39-5.36,2.81-10.22,6.22-16,.95-.58-.53-2.13.13-3.18,0C363.47,331.8,360.59,331.18,356.69,330.41Z"/><path class="cls-3" d="M1193.59,697.74l3.9-2.77c.16-7.63-5.32-10.78-10.71-12.79-5-1.86-6.75-4.89-7.45-9.51a17.73,17.73,0,0,0-1.41-3.62c2.75-3,6.1-3.63,8.26-.18,1.5,2.4,1.16,6,1.71,9.42,1-.26,2.11-.2,2.65-.69,5.28-4.82,10-3.47,14.94.74,4.19,3.56,9.17,6.22,13.11,10,3.68,3.52,7.67,6.82,6.79,13.59-.48,3.7,3.32,7.95,5.36,12.3-4-.82-7.39-2-9.57-6.09-3.87-7.24-4.24-7.11-11.61-3.55a5.29,5.29,0,0,1-4.11.24C1201.53,702.78,1197.83,700.32,1193.59,697.74Z"/><path class="cls-3" d="M1109.53,655H1114l17.65-20.74L1139,638c-1.29,2.85-3.64,5.74-3.57,8.58s2.61,5.41,3.43,6.92c-1.75,5.71-3.46,10.6-4.73,15.59-1,4-1.94,7.17-7.31,5-2.06-.82-4.77.12-7-.46C1114.27,672.23,1108.74,662.26,1109.53,655Z"/><path class="cls-3" d="M952,304.69c-6.21.62-10.68,1.36-14.1-3.63-1.29-1.89-4.13-2.71-5.7-3.68,2.52-4.95,4.3-10,7.34-14.14,6.66-9,11.93-19.83,24.44-22.61,1.06-.24,2.17-.23,3.21-.53,4-1.14,8-2.35,12-3.56,2.88-.88,5.76-1.8,8.64-2.7l1.28,2.66c-2.67,1.83-5.22,3.88-8,5.44-7.06,3.9-15.08,6.56-21.12,11.62-5.85,4.91-10.07,12-14.18,18.59-1,1.62,1,5.35,2.12,7.94C948.46,301.47,950,302.47,952,304.69Z"/><path class="cls-3" d="M418.15,227.49l20.41,12.58c.66,2.28.42,7.52,6.9,7.59-4.25,3.68-7.75,7.38-11.89,10.13-4.74,3.16-11.94-.07-17.22-6.92a30.11,30.11,0,0,0-4-4.22c-4.34-3.85-3.88-9.51.81-13.15C415.09,232,416.39,229.66,418.15,227.49Z"/><path class="cls-3" d="M743.59,429.63c.7-5.38,1.23-10.12,2-14.82a4.61,4.61,0,0,1,1.7-2.9c3.72-2.48,3.76-4.61,0-6.9-1.19-.72-2.2-1.74-3.38-2.47-5.19-3.18-1.58-9-4.3-13l10-8.26c.34,5.94,9.12,9.85,2.7,14.38L765.18,418c-1,7.31-1.79,8.1-11.19,9.66C750.49,428.19,747,429,743.59,429.63Z"/><path class="cls-3" d="M910,690.23c1.07,4.69,2.56,9.14-.13,14.93-4.14,8.93-6.52,18.68-9.54,28.12-1.07,3.37-2.66,7-6.46,5.93-2.13-.6-4.47-4.3-4.73-6.81-.42-3.93.89-8,1.39-12.07a73.65,73.65,0,0,0,.68-8c0-5,0-9,6.49-11.36C902.4,699.31,905.82,694.07,910,690.23Z"/><path class="cls-3" d="M418.72,272.08a38.88,38.88,0,0,1,6.48.06A87.26,87.26,0,0,1,437.84,275a12.07,12.07,0,0,1,5.39,4c2.1,2.69,8.41,3.61,13.39,2.4a63.49,63.49,0,0,1,14.55-1.59c1.54,0,4.58,2.73,4.38,3.33-.76,2.17-2.32,5.3-4.07,5.66-6.06,1.23-12.33,1.5-18.53,2-3.21.27-6.47.07-9.66.43-3.77.42-8.52-2.39-9-6.24-.57-4.56-3-6.07-7.27-6.65-3-.4-5.86-2.14-8.79-3.29Z"/><path class="cls-3" d="M331.31,324.16,321,317.52c.78-5.76,1.56-11.44,2.48-18.24,7.22-3.83,22-3.24,28.5,2.2Z"/><path class="cls-3" d="M1176.4,520.25,1173,527l-1.43-.22-3.66-10.2c7.14-2.84,12.38-9.59,21.27-9.59,2.15,0,4.29-3.56,7.13-6.11,4.12.08,8.27-4.39,9.37-11.47.22-1.44.12-3.07.81-4.24a3.91,3.91,0,0,1,3.11-1.71,3.49,3.49,0,0,1,2.29,2.49,22.55,22.55,0,0,1-.39,7.61c-1.07,4-3,7.75-4.1,11.73-1.06,3.72-2.94,5.8-6.86,6.92-5.75,1.65-11.22,4.27-16.87,6.33A73.69,73.69,0,0,1,1176.4,520.25Z"/><path class="cls-3" d="M1087.17,242.22c6.9-6.32,7.07-6.3,17.12,1.73-5.24,6.07-12.19,5.59-19.61,6,1.92-6.14-2-6.94-6.13-8.49-5.75-2.12-11.09-5.35-17-8.32,3.93-5.82,4.58-13.18,14-13.29.92,2.69,1.84,6.07,3.25,9.22a5,5,0,0,0,3.36,2.43c3.41.45,4.39,1.66,3.31,5.15C1085,238.05,1086.42,240,1087.17,242.22Z"/><path class="cls-3" d="M655.25,358.44c-1.11-1.94-2.32-5.41-4.65-7.78-3.32-3.36-.2-5.12.93-7.48,1.94,1.22,3.88,2.42,5.8,3.67.41.27.7.72.4.4,5.41-2.47,10.21-5.62,15.42-6.61,2.5-.47,6.37,2.67,8.42,5.15.87,1.07-1.19,4.7-2.17,7.06-.29.7-1.59.92-2.21,1.57C671.2,360.68,664.1,362.07,655.25,358.44Z"/><path class="cls-3" d="M1064.9,637.44c3,2.33,6.18,4.54,9.08,7a87.86,87.86,0,0,1,8.23,7.91c2,2.24,3.48,5,5.44,7.31s4.16,4.34,6.31,6.44c1,1,3,1.94,2.92,2.65a83.37,83.37,0,0,1-2.92,11.93c-.07.22-3.49.17-4.15-.69-4-5.14-7.8-10.45-11.34-15.92-4.06-6.28-7.78-12.78-11.64-19.18-1.18-1.95-2.36-3.89-3.53-5.84Z"/><path class="cls-3" d="M374.52,286.35c.88-4-4.85-8,1.24-11,3.37,2.26,4.6,9.94,10.87,4.28,3.81,4.28,3.31,7.29-1.19,9.52-4.89,2.42-9.7,5-14.43,7.7s-6.51,2.41-9.07-2.64a32.62,32.62,0,0,1-4.66,1,37.74,37.74,0,0,1-5.49-.6l3.79-13.07Z"/><path class="cls-3" d="M398.29,280.22v-4.67l5.21,1.39c-.37-1.78-.66-3.24-.92-4.5,3.65.45,7.09.38,10.14,1.45,1.72.6,3.84,3,3.93,4.72.18,3.79-.11,7.94-1.62,11.32-.61,1.35-4.92,1.06-7.56,1.46-.28,0-.88-.3-.91-.52-.94-6.06-6-5-10-6.28-4.83-1.5-8.62-4.75-8.83-10.84C393.91,271.81,394.1,278.87,398.29,280.22Z"/><path class="cls-3" d="M418.47,303h3.38c-.32,3.11-.06,6.14-1,8.71-1.84,4.86-6.61,5.78-10.82,2.64-1.75-1.31-3.83-2.22-5.44-3.66-1.23-1.1-1.95-2.75-2.9-4.16,1.42-.21,2.84-.41,4.25-.64.65-.11,1.29-.28,2.57-.57l-4.44-5.57a96,96,0,0,1,11.53-4C415.91,295.67,417.27,300,418.47,303Z"/><path class="cls-3" d="M1152.85,664.12c-.46,1.31-.62,3.83-1.58,4.19-3.54,1.3-3.88,4.18-4,7-.16,4.72-1.53,6.45-5.67,2.93l-3.48,4.53c-4.41-9.56-.24-16.6,5.3-23,1.06-1.23,3.85-1.45,5.79-1.34,3.11.18,6.19,1,10.24,1.76Z"/><path class="cls-3" d="M1294.12,839.31l4.62,1.37c-2.69,4.17-4.88,8.14-7.64,11.67-2.18,2.79-5.28,4.85-7.55,7.59s-4.86,3.8-8.21,2.41c-4.16-1.73-4.8-5-1.53-8.12a42.36,42.36,0,0,1,4.37-3.34C1283.07,847.32,1288,843.76,1294.12,839.31Z"/><path class="cls-3" d="M977.56,224.15c-8.84,3.31-15.59,10.51-25.42,7.9-2.18-.58-3.86-3.07-5.77-4.68a55.15,55.15,0,0,1,5.86-4c2.73-1.4,5.72-2.27,8.48-3.61C963.78,218.27,973.3,220.21,977.56,224.15Z"/><path class="cls-3" d="M1219.89,272.82c4.64-3.53,8.76-.76,12.83.73.7.26,1.35,2.42,1,3.34a4.63,4.63,0,0,1-2.91,2.74,88,88,0,0,1-15.08,1.25c-2.29-.07-6.32-2-6.38-3.28-.13-2.44,1.58-5.4,3.4-7.31.65-.67,3.84,1.07,5.86,1.74A7.85,7.85,0,0,1,1219.89,272.82Z"/><path class="cls-3" d="M1220.85,418.53c0,5.71,0,11.42,0,17.12,0,3.89.9,7.45-2.25,11.22-2,2.36-1.14,7-1.62,11h-4.6c-.27-.5-.62-.84-.59-1.13,1.3-10.36,2.5-20.75,4.07-31.08.39-2.54,2-4.9,3.07-7.35Z"/><path class="cls-3" d="M728.46,408.48c2.1-1.69,4.7-4.4,7.83-6.12,3.89-2.12,4.86.31,4.45,3.88a31.45,31.45,0,0,0-.31,5.89c.32,4.26-4,10.2-8.3,10.4-1.18.06-3.35-1.69-3.5-2.82C728.16,416.27,728.46,412.73,728.46,408.48Z"/><path class="cls-3" d="M1301.34,809.92c1.48,2.53,2.65,4.2,3.48,6,1.44,3.14,2.3,6.62,4.14,9.47.79,1.23,3.44,1.27,6.34,2.2l-12.74,14.62c-1.26-4.62-2.15-7.88-3-11.14-.09-.34-.21-.89,0-1.05,5.68-5.57,2.28-11.59,1-17.52C1300.36,812.11,1300.75,811.59,1301.34,809.92Z"/><path class="cls-3" d="M335.4,292.31l-4-2.35c1-1.31,1.92-2.7,3-3.92.82-.91,2.34-1.42,2.76-2.43,2.36-5.71,7.93-6.86,12.65-9.18a2.68,2.68,0,0,1,2.36.88c1.57,2-1,9.47-3.48,10.78s-4.83,3-7.37,4.32A42.64,42.64,0,0,1,335.4,292.31Z"/><path class="cls-3" d="M1149.1,604.42c-3.39-5.38-4.55-11.66-11.88-13.24-3.47-.75-3.31-15.66.06-17.71.89-.54,3.1.19,4.12,1,.77.64.83,2.39.84,3.65.07,7.09,1.43,10.66,6.61,16.71C1152.1,598.66,1152.17,599.66,1149.1,604.42Z"/><path class="cls-3" d="M1225.13,473.23c-3.25,1.93-6.31,4.36-9.8,5.64s-7.2,1.28-12,2c1-2.44,1.41-4.64,2.59-6.3,2.39-3.35,5.18-6.41,8.07-9.91,2.13,2.66,3.84,8.58,10.89,6.3C1224.93,471.74,1225,472.49,1225.13,473.23Z"/><path class="cls-3" d="M388.17,261.8c-.87-2-2-4.65-3.18-7.4,5.6-3.66,9.71.52,13.86,2.47,2.67,1.25,4.69,4,6.77,6.35a2.93,2.93,0,0,1-.29,2.85,3.32,3.32,0,0,1-2.85.54C397.73,265.13,393,263.46,388.17,261.8Z"/><path class="cls-3" d="M1098.81,682.12c2.19.13,4.51-.17,6.54.48a98.7,98.7,0,0,1,15.42,5.85c2.49,1.29,4.06,4.37,6.75,7.46-11.64-.86-20.22-6.59-29.35-11C1098.38,684,1098.6,683.07,1098.81,682.12Z"/><path class="cls-3" d="M492,570.29c4.59-6.24,8-7.39,13.59-5.16,6.48,2.58,12.87,5.39,20.47,8.58-5.05,2.56-8,3.13-12.14.28-4.35-3-9.75-4.73-14.9-6.31C497.5,567.2,495.24,569,492,570.29Z"/><path class="cls-3" d="M411,258.51c3.64,0,7.34-.34,10.91.18,1.29.18,3,2.32,3.21,3.73.2,1.62-.65,4.25-1.89,4.95-1.94,1.1-5.48,2.07-6.75,1.08-2.88-2.26-4.78-5.75-7.08-8.73Z"/><path class="cls-3" d="M379,263.44c-1.26,3.58-1.76,5.52-2.6,7.29-2.21,4.67-7.55,6.19-11.5,3.41-3.13-2.2-3.11-6,.43-7.29C369.36,265.37,373.67,264.73,379,263.44Z"/><path class="cls-3" d="M531.23,573.22c4.74,1.22,11-1.91,15.85,2.77.06.68.11,1.35.17,2L527,582.42Z"/><path class="cls-3" d="M1150.53,624.53l-9.53-7.86,13-6.37C1157.21,615.62,1154.5,620.14,1150.53,624.53Z"/><path class="cls-3" d="M923.2,227.21c4.15-2.48,8.19-5.38,12.64-7.33,1.91-.84,4.68.3,8.35.68C934.7,229.09,927,231.09,923.2,227.21Z"/><path class="cls-3" d="M1210.67,844.63c-.93-4.67-1.71-8.54-2.5-12.51h9.16C1219.59,837.5,1218.54,839.89,1210.67,844.63Z"/><path class="cls-3" d="M1163.34,691.91c-4.56,4.16-8.71,8.12-13.11,11.8-.7.58-2.8.27-3.68-.4-.64-.49-.76-3.1-.42-3.26C1151.76,697.43,1155.69,691,1163.34,691.91Z"/><path class="cls-3" d="M1011.34,608.06c5.32,7,5.18,10.41-.22,13.84C1007.67,618,1007.69,613.92,1011.34,608.06Z"/><path class="cls-3" d="M1165.34,667.5c.49-4,1-7.91,1.64-13.31,6.29,8,6.29,8,.21,13.68Z"/><path class="cls-3" d="M1134.78,569.08c-3.26-6.19-2-9.89,4.11-12.14C1137.45,561.2,1136.25,564.76,1134.78,569.08Z"/><path class="cls-3" d="M789.21,484.07c-3.3-7.84-2.54-16.6,2.36-21.1C789.81,470.36,793.43,477,789.21,484.07Z"/><rect class="cls-3" y="1518.98" width="4261" height="481.02"/><path class="cls-5" d="M3184.16,1321.39c-1-9.12-2.26-18.45-6.49-26.58-5.15-9.9-14.2-17-22.1-24.9a138.12,138.12,0,0,1-33-52.5c-5.28-15.24-7.91-31.46-15.17-45.85-4.44-8.78-10.49-16.63-15.54-25.09-11.91-20-18.4-43.57-34.55-60.29a72.41,72.41,0,0,0,16.38,57.33c4,4.64,8.59,8.82,11.62,14.13,5.51,9.64,5,21.4,5.65,32.48a142.54,142.54,0,0,0,17.06,59.69c10.6,19.46,25.9,36.78,31.57,58.21,4.25,16,3,34.06,12,48,1,1.51,2.11,3,2.35,4.8a10.94,10.94,0,0,1-.18,3c-.21,1.29-.41,2.59-.61,3.88-2.06,13.14-4.19,29.86,7.11,39.7,7.83,6.81,17.9,7,23.53-2.09s5.16-22.46,4.74-32.72C3187.92,1355.51,3186.09,1338.37,3184.16,1321.39Z"/><path class="cls-6" d="M3204.51,1310.82c-4.39-15.21-11.22-29.7-14.63-45.16-3.32-15-3.35-30.5-3.36-45.86l0-50.5c0-10.47,0-21-1.75-31.34-3.73-22.24-15.29-42.8-17.25-65.26-.85-9.71.13-19.53-.93-29.22a46.08,46.08,0,0,0-4.6-16.1,7.17,7.17,0,0,0-12.87.36c-5.62,12.17-9.18,25.31-6.91,38.34,1.36,7.82,4.75,15.11,7.28,22.63,11.26,33.48,5.28,70.54,14,104.78,2.63,10.34,6.61,20.47,7.07,31.13,1.11,25.5-17.95,48.79-16.2,74.26,1.43,20.88,16.45,38.15,22.76,58.11,3.52,11.17,4.28,23.09,8.06,34.18,2.94,8.61,9.77,19.07,20.38,16.46,10.07-2.49,7-10.7,6.58-18.55C3210.58,1362.53,3212,1336.76,3204.51,1310.82Z"/><path class="cls-5" d="M3227.57,1324.76c-.45-7.9,4.91-11.89,6-19.72.93-6.62,2-17.1,3.87-23.51,3.53-12-.71-24.37.14-36.87q2.34-34.08,4.66-68.16c2.42-35.32,4.85-70.74,11.45-105.52,1.84-9.65,3.9-20.11-.45-28.93-.91-1.86-2.71-3.83-4.69-3.21-1.4.44-2.09,2-2.6,3.37-14.44,39.23-19.9,81.47-36,120-3.86,9.24-8.36,18.33-10.35,28.14-2.41,11.78-1.09,24-.78,36,.45,17.24-1.23,34.62-6,51.19-2.49,8.67-5.83,17.15-7.19,26.07-1.7,11.12-.27,22.45.79,33.66a515.66,515.66,0,0,1,2.08,64.82c-.39,12.72,10.34,12.38,17.46,4.57,5-5.46,4.92-11.46,6.63-18.26C3218.18,1366.1,3228.92,1349,3227.57,1324.76Z"/><path class="cls-6" d="M3160.49,1359.23c-9.49-15.24-28.41-23.91-34.48-40.82-1.54-4.31-2.14-8.93-4-13.1-4.19-9.25-13.71-14.47-23.08-18.73a2,2,0,0,0-2.8,1.78h0a6.73,6.73,0,0,0,2.94,5.71,38,38,0,0,1,15.13,20.64c2.9,9.91,1.64,20.77,5.24,30.45,3,8.13,9.23,14.77,12.15,22.93,2.66,7.46,2.38,15.61,3.64,23.43s4.73,16.12,11.92,19.44C3173.12,1422.93,3166.62,1369.08,3160.49,1359.23Z"/><path class="cls-5" d="M3268.65,1354.2c-.4,7.37.72,15.1-2.16,21.89-1.85,4.35-5.17,7.86-7.9,11.72-9.57,13.53-13,32.71-27.75,40.33a5,5,0,0,1-3.13.75c-1.5-.28-2.49-1.73-3.1-3.14-3.6-8.4.44-17.86,2.84-26.68.42-1.55.77-3.27,0-4.69s-2.65-2.24-3.91-3.46c-2.52-2.44-2.28-6.49-1.78-10a225.93,225.93,0,0,1,5.25-25.75c1.27-4.8,2.74-9.64,5.51-13.77,3-4.54,7.48-7.93,11.62-11.49a137.59,137.59,0,0,0,40.2-59.31c1.7-5,3.21-10.18,6.73-14.05s9.77-5.88,14-2.87c3.05,2.14-9.42,22.18-10.87,24.58-4.15,6.87-4.21,12.85-6.56,20.47C3282,1317.46,3269.75,1334.18,3268.65,1354.2Z"/><path class="cls-6" d="M3254.15,1362.72c2.72-7,5.47-14.15,6.36-21.64,1-8.32-.32-16.84,1.1-25.1,1.83-10.62,8-20,11.09-30.29,2.22-7.46,2.76-15.3,4.09-23,3.81-21.93,14.12-43.36,11.16-65.41-.64-4.8-2.81-10.39-7.57-11.21-4.32-.74-8.24,3.2-9.36,7.43s-.29,8.71,0,13.08a54,54,0,0,1-9.67,34.62c-6.78,9.58-16.61,16.8-22.71,26.83-7.48,12.3-8.5,27.32-12.31,41.2-7.59,27.62-26.63,51.71-30.1,80.14-1.38,11.32,1.28,25.07,11.72,29.59C3238.19,1432.06,3247.31,1380.42,3254.15,1362.72Z"/><path class="cls-7" d="M3201.34,1397.77H3132a7.35,7.35,0,0,0-7.14,9.06l25.27,106.53a7.35,7.35,0,0,0,7.14,5.65h83.3a7.35,7.35,0,0,0,7.14-5.65L3273,1406.83a7.35,7.35,0,0,0-7.14-9.06Z"/><path class="cls-6" d="M182.89,1410.92h-3.83a225.42,225.42,0,0,0-8.18-42.1c-16.73-56.44-9.41-63.75-37.64-99s-30.33-108.44-30.33-108.44-13.59-83.1,0-119.68,14.64-73.16,47.58-111.83c0,0,6.28,51.73,14.12,75.25s15.29,46,9.47,102.43-9.42,61.14-10.75,75.77.76,76.32-2.38,86.5,18.3,80.73,19.87,111C181.29,1389.94,182.14,1400.33,182.89,1410.92Z"/><path class="cls-5" d="M163.55,1387.47A40.91,40.91,0,0,0,140,1368.19c-30.59-9.79-50.23-7.34-67.21-37.07s-21.68-72.41-27.34-80.74c0,0,12.27-3.46,27.23,17.54s25.27,36.72,33.92,48.94,18.66,7.43,28.61,16.34c8.33,7.47,17.3,26,21,35.49a38.84,38.84,0,0,0,4.7,8.69c1.76,2.44,3.85,5.41,5.14,7.55a13.31,13.31,0,0,1,.93,2.16Z"/><path class="cls-6" d="M294.8,1188c3.13,40.24-22.49,37.1-23.53,62.71s-34.51,69-50,99.81c-8.06,16-11,40.56-12,60.4H196.76c4.82-50.22,25.2-85.17,37.39-113.18,15.68-36.06,18-52.52,4.7-80.74s6.28-101.12-12.7-133.62-9.26-83.51-4.89-103.11-.45-32.93-4.37-53.59S221.26,876,221.26,876c.7,25.61,20.21,60.62,34.32,83.09s40.78,83.62,37.65,111.32-1.57,29.78-1.57,29.78C301.59,1137.31,291.66,1147.76,294.8,1188Z"/><path class="cls-5" d="M220.06,1378.22c-1.6,4.8-6.73,17.07-11.43,32.7H201c3.47-19.9,9.47-43,19.6-56.22,20.39-26.65,61.17-38.15,65.87-57.48s-.52-77.35,29.28-109.75c0,0-4.18,36.08,0,45.74s39.74,54.6,18.83,92.23-68,32.92-82.61,41.28S222.68,1370.38,220.06,1378.22Z"/><path class="cls-5" d="M238.89,1204.69c.52,38.67-29.81,53.3-29.28,74.73s-6.28,44.42-12,61.66c-3.64,10.92-1.62,41.31-1,69.84h-8.41c-2.12-21-4.45-51.21-3.68-64.61,1.05-18.29-7.32-32.92-8.36-64.8s-7.85-60.62,6.27-100.86,11.5-88.32,70.58-132.74c0,0,10.46,47,2.62,72.64S238.36,1166,238.89,1204.69Z"/><path class="cls-7" d="M193,1373.42h81a8.58,8.58,0,0,1,8.34,10.57l-29.52,124.42a8.58,8.58,0,0,1-8.34,6.6H147.13a8.58,8.58,0,0,1-8.34-6.6L109.27,1384a8.58,8.58,0,0,1,8.34-10.57Z"/><path class="cls-8" d="M1569,1832.85c0-.13,0-47-.18-97.26-29.52,3.75-48.55,2.88-59.38,1.47,10.56,53.25,20.44,98,20.46,98.09a27.74,27.74,0,0,1-.3,5.36c-1.52,7.8-14.47,17.22-17.11,25.31S1509,1879,1531,1883.64s36.44,2.14,37.08-.58,9.89-22.07,4.28-34.59C1570.82,1845.05,1569.76,1839.33,1569,1832.85Z"/><path class="cls-9" d="M1527.89,1886.67c-22.68-4.79-18.7-15.72-16-24.05,1.7-5.21,8.92-10.83,13.46-16.37,1.88,1.84,4.92,5,14.57,9,10,4.1,24.83-.46,34.24-3.31,2,12.26.58,27.5,0,29.78C1573.58,1884.52,1550.56,1891.45,1527.89,1886.67Z"/><path class="cls-8" d="M1591.71,1832.85c0-.13,0-47,.19-97.26,29.52,3.75,48.54,2.88,59.37,1.47-10.55,53.25-20.44,98-20.46,98.09a28.57,28.57,0,0,0,.3,5.36c1.53,7.8,14.47,17.22,17.12,25.31s3.53,13.17-18.5,17.82-36.43,2.14-37.08-.58-9.88-22.07-4.27-34.59C1589.91,1845.05,1591,1839.33,1591.71,1832.85Z"/><path class="cls-9" d="M1632.85,1886.67c22.68-4.79,18.69-15.72,16-24.05-1.71-5.21-8.93-10.83-13.46-16.37-1.88,1.84-4.92,5-14.58,9-10,4.1-24.82-.46-34.24-3.31-2,12.26-.58,27.5,0,29.78C1587.16,1884.52,1610.17,1891.45,1632.85,1886.67Z"/><path class="cls-10" d="M1568.84,1735.59c-.16-47.08-.44-97.07-.94-114.16-2.77-93.58-51.22-89.92-51.22-89.92s-24.76.4-31.67,34.72c-3.89,19.32,10.84,102.15,24.45,170.83C1520.29,1738.47,1539.32,1739.34,1568.84,1735.59Z"/><path class="cls-10" d="M1591.9,1735.59c.15-47.08.43-97.07.94-114.16,2.77-93.58,51.21-89.92,51.21-89.92s24.77.4,31.68,34.72c3.89,19.32-10.84,102.15-24.46,170.83C1640.44,1738.47,1621.42,1739.34,1591.9,1735.59Z"/><polygon class="cls-6" points="1688.13 1888.31 1696.51 1888.31 1683.18 1449.98 1674.81 1449.98 1688.13 1888.31"/><polygon class="cls-6" points="1459.84 1888.31 1451.47 1888.31 1464.79 1449.98 1473.17 1449.98 1459.84 1888.31"/><path class="cls-6" d="M1707.75,1237.68h-6.67a147,147,0,0,1-20.5,5c-10.49,1.67-39.57,7.23-71,8.34-10.71.38-21.74.5-31.65.5v0l-3.86,0-3.85,0v0c-9.9,0-20.93-.12-31.65-.5-31.46-1.11-60.55-6.67-71-8.34a147.46,147.46,0,0,1-20.5-5h-6.67c-8.52,0-15.12,8.72-14.06,18.59l30.88,288.15c.85,7.87,6.35,13.93,13.13,14.45L1563,1566a13.09,13.09,0,0,0,11-4.94,13.12,13.12,0,0,0,11,4.94l92.73-7.12c6.78-.52,12.29-6.58,13.14-14.45l30.88-288.15C1722.88,1246.4,1716.28,1237.68,1707.75,1237.68Z"/><path class="cls-11" d="M1655.57,1144.66c-7-48.74-50.77-84.13-97.06-60.92-10.41,5.22-24.53,15.87-31.77,25-19.91,25.07-25,56.32-46,80.41-18.17,20.77-66.15,16.39-88.72,32.29s-38.54,44.63-38.85,79.16c-.34,38.62,8,79.69,37.73,104.37s72.21,31.15,109.52,21.13,69.49-35.08,92.75-65.91,39.82-64.71,51.61-101.49C1657.89,1217.64,1660.12,1176.16,1655.57,1144.66Z"/><path class="cls-12" d="M1535.36,1251.39s-19.53-2.78-49.92,26.49-71.36,65-53.64,93.52l74.64-1.79s45.12-53.07,45.76-55.83S1535.36,1251.39,1535.36,1251.39Z"/><path class="cls-12" d="M1622.48,1251.39s19.52-2.78,49.91,26.49,71.37,65,53.64,93.52l-74.63-1.79s-45.13-53.07-45.77-55.83S1622.48,1251.39,1622.48,1251.39Z"/><path class="cls-13" d="M1582.72,1506.53a496.47,496.47,0,0,0,100.77-15.83L1663.94,1328c-8.27-68.87-30.39-76-36.52-76.59l-1.6,0h0c-12-.32-27.78-1.19-43.09-2.17V1249l-1.33.08-1.33-.08v.17c-15.31,1-31,1.85-43.09,2.17h0l-1.6,0c-6.13.62-28.26,7.72-36.53,76.59l-19.55,162.72a496.49,496.49,0,0,0,100.78,15.83v.13l1.33-.06,1.33.06Z"/><path class="cls-8" d="M1429.89,1371.4s-8.79-6.82-2.38-24.07,52.32-28.84,62.36-5Z"/><path class="cls-8" d="M1728,1371.4s8.78-6.82,2.37-24.07-52.31-28.84-62.35-5Z"/><path class="cls-10" d="M1603,1223c-.06.58,2.58,21.8,4,33a8.84,8.84,0,0,1-6,9.49c-10.7,3.59-31.45,8-44-6a5.86,5.86,0,0,1-1.41-4.7l6.9-49.26Z"/><path class="cls-14" d="M1601,1233.74a8.65,8.65,0,0,0,3-1.75c-.61-5-1-8.72-1-9l-40.5-17.49-3.39,24.23C1571.74,1241.23,1590.87,1237.14,1601,1233.74Z"/><path class="cls-10" d="M1537.61,1164.52c1.25,8.58-2.45,16.23-8.25,17.07s-11.52-5.43-12.77-14,2.44-16.23,8.25-17.07S1536.36,1155.93,1537.61,1164.52Z"/><path class="cls-10" d="M1628,1173.14c-2.85,8.2-.67,16.4,4.87,18.33s12.35-3.16,15.2-11.35.67-16.4-4.87-18.32S1630.88,1165,1628,1173.14Z"/><path class="cls-10" d="M1636.62,1170.73c-3.53,36.89-29.89,64.55-58.89,61.78s-49.65-34.91-46.12-71.8,29.88-64.55,58.88-61.78S1640.14,1133.84,1636.62,1170.73Z"/><path class="cls-8" d="M1556.38,1249s8.47,15.53,26.09,20.13c0,0-13.41,5-21.07,1.7S1547.91,1261.14,1556.38,1249Z"/><path class="cls-8" d="M1606.1,1249s-8.37,15.53-25.8,20.13c0,0,13.26,5,20.84,1.7S1614.48,1261.14,1606.1,1249Z"/><path class="cls-15" d="M1618.39,1373.07c1-1.47-1.45-4-3.25-5.85-2-2.09-14.09-7.31-16.15-7.94s-19.68,1.86-26.43,4.07-11.19,1.3-11.19,1.3c-1.77-.36-4.43-.85-6.49-1.27l-4.23,15.72c15.84-.2,32.4,1,33.9.94,4.76-.12,13.48-5.09,15.5-5.83s6.12-.15,8.87,1.14,10.77,4.36,12.11,3.64S1618.39,1373.07,1618.39,1373.07Z"/><path class="cls-15" d="M1562.3,1364.77s-89-32.45-109-26.45-28,24.84-22,36.84,124,3.92,124,3.92Z"/><path class="cls-10" d="M1539.45,1373.07c-1-1.47,1.44-4,3.24-5.85,2-2.09,14.09-7.31,16.15-7.94s19.68,1.86,26.43,4.07,11.19,1.3,11.19,1.3c1.77-.36,4.43-.85,6.5-1.27l4.22,15.72c-15.83-.2-32.39,1-33.9.94-4.75-.12-13.47-5.09-15.5-5.83s-6.11-.15-8.87,1.14-10.77,4.36-12.11,3.64S1539.45,1373.07,1539.45,1373.07Z"/><path class="cls-10" d="M1595.53,1364.77s89-32.45,109-26.45,27.55,25.67,21.54,37.67-123.56,3.09-123.56,3.09Z"/><rect class="cls-9" x="1212.33" y="1401.85" width="16.54" height="486.45"/><rect class="cls-9" x="1942.15" y="1401.85" width="16.54" height="486.45"/><rect class="cls-16" x="1181.15" y="1377.84" width="808.73" height="24.01"/><rect class="cls-16" x="1212.33" y="1438.57" width="746.36" height="230.82"/><rect class="cls-9" x="1212.33" y="1702.78" width="746.36" height="16.7"/><path class="cls-11" d="M1532.59,1153.62s60.71-34.82,61.92-57.81-40.39,4.35-40.39,4.35l-23.47,28.69Z"/><path class="cls-11" d="M1588.53,1098.79s38,61.77,48.48,63.47c0,0,6.22-29.47,5.36-30.67s-14.95-23.51-15.71-24.42-27.68-14.66-27.68-14.66l-25.38-.75Z"/><path class="cls-6" d="M1568.88,1748.51q0-6.4,0-12.92c-29.52,3.75-48.55,2.88-59.38,1.47q1.2,6,2.37,11.86C1519.35,1750.79,1538.09,1753.74,1568.88,1748.51Z"/><path class="cls-6" d="M1591.86,1748.51q0-6.4,0-12.92c29.52,3.75,48.54,2.88,59.37,1.47q-1.18,6-2.36,11.86C1641.38,1750.79,1622.64,1753.74,1591.86,1748.51Z"/><path class="cls-17" d="M1568,1195.32l29.08,1.41s-1.24,11.45-14,11.22C1567.41,1207.66,1568,1195.32,1568,1195.32Z"/><path class="cls-18" d="M1251.43,1345.17h-5.51a5.42,5.42,0,0,1,3.26-1.09h138a12.94,12.94,0,0,1,13.07,12.81V1365a12.94,12.94,0,0,1-13.07,12.81l-136.45,0Z"/><path class="cls-19" d="M1329.77,1344.11a12.38,12.38,0,0,1,12.5,12.25v9.2a12.38,12.38,0,0,1-12.5,12.25h-85.9v-2.06h.35l21.84-2,4.42-17s-8.52-9.37-9.08-9.61-17.18-1-17.18-1h-.35v-2.05Z"/><path class="cls-8" d="M1249.44,1360.9c0-9.92-5.23-14.73-5.23-14.73H1328a11.37,11.37,0,0,1,11.49,11.25v7.08a11.37,11.37,0,0,1-11.49,11.25h-83.8S1249.44,1373.39,1249.44,1360.9Z"/><path class="cls-20" d="M1339.5,1357.42v7.08a11,11,0,0,1-.34,2.7c-2.82-6.78-8.24-13.31-18.55-15.41-24.08-4.9-76.4-5.62-76.4-5.62H1328A11.37,11.37,0,0,1,1339.5,1357.42Z"/><path class="cls-21" d="M1254.71,1318.19h-5.51a6.35,6.35,0,0,1,3.26-.86h138c7.22,0,13.07,4.55,13.07,10.16V1334c0,5.61-5.85,10.16-13.07,10.16l-136.51,0Z"/><path class="cls-22" d="M1333.09,1317.35c6.9,0,12.5,4.35,12.5,9.72v7.3c0,5.37-5.6,9.72-12.5,9.72h-85.94v-1.63h.35l21.85-1.61,4.42-13.47s-8.53-7.44-9.08-7.63-17.19-.77-17.19-.77h-.35v-1.63Z"/><path class="cls-8" d="M1252.72,1330.67a14.85,14.85,0,0,0-5.23-11.69h83.84c6.34,0,11.48,4,11.48,8.93v5.62c0,4.93-5.14,8.93-11.48,8.93h-83.84S1252.72,1340.58,1252.72,1330.67Z"/><path class="cls-20" d="M1342.81,1327.91v5.62a7.3,7.3,0,0,1-.33,2.14c-2.83-5.38-8.25-10.56-18.57-12.22-24.08-3.89-76.42-4.47-76.42-4.47h83.84C1337.67,1319,1342.81,1323,1342.81,1327.91Z"/><polygon class="cls-23" points="1270.93 1358.41 1265.57 1366.89 1259.57 1358.41 1270.93 1358.41"/><polygon class="cls-14" points="1313.23 1329.17 1307.92 1337.58 1301.98 1329.17 1313.23 1329.17"/><path class="cls-20" d="M1252.66,1329.17h90.15v-.67c0-.09-90.23,0-90.23,0Z"/><path class="cls-20" d="M1249.28,1358.41l90.2-.05v-.67c0-.1-90.28,0-90.28,0Z"/><polygon class="cls-6" points="2757.71 1888.31 2766.09 1888.31 2752.76 1449.98 2744.39 1449.98 2757.71 1888.31"/><polygon class="cls-6" points="2529.42 1888.31 2521.05 1888.31 2534.37 1449.98 2542.75 1449.98 2529.42 1888.31"/><path class="cls-6" d="M2777.33,1237.68h-6.67a147,147,0,0,1-20.5,5c-10.49,1.67-39.57,7.23-71,8.34-10.71.38-21.74.5-31.65.5v0l-3.86,0-3.85,0a0,0,0,0,1,0,0c-9.9,0-20.93-.12-31.65-.5-31.46-1.11-60.55-6.67-71-8.34a147,147,0,0,1-20.5-5h-6.67c-8.52,0-15.12,8.72-14.06,18.59l30.88,288.15c.84,7.87,6.35,13.93,13.13,14.45l92.73,7.12a14.81,14.81,0,0,1,22.08,0l92.73-7.12c6.78-.52,12.29-6.58,13.13-14.45l30.89-288.15C2792.45,1246.4,2785.86,1237.68,2777.33,1237.68Z"/><path class="cls-10" d="M2432.74,1110.14c3.35-2.93,14.14,14.73,18.48,14.15s-5.41-25.61-2.31-27.9c5.71-4.22,12.38,26.75,15.13,25s-2.55-34,3.86-32.91,2,34,5.79,33.44,1.35-31,9.15-33.55c4.17-1.39-2.39,52.45,1.88,56.66s19.11-14.1,23.59-11.18-32.5,31.41-32.76,34.77-10.18,76.52-7,99.85c8.13-.29,53.17,3,60.79,2.55-3.66,15.28.06,29.79-2.69,45.15-25.84.11-92.94-8.26-98.24-13.32-16.11-15.39,14.88-112.59,19.35-131.29s-2.25-25.7-2.95-36.85S2429.4,1113.07,2432.74,1110.14Z"/><path class="cls-24" d="M2484,1323.83s94,13.24,122.45,5.1,50.59-46.58,37.07-69-165.33,6.14-165.33,6.14Z"/><path class="cls-24" d="M2692.05,1251.39s19.53-2.78,49.92,26.49,71.37,65,53.64,93.52l-74.63-1.79s-45.13-53.07-45.77-55.83S2692.05,1251.39,2692.05,1251.39Z"/><path class="cls-14" d="M2652.3,1506.53a496.47,496.47,0,0,0,100.77-15.83L2733.52,1328c-8.27-68.87-30.39-76-36.52-76.59l-1.6,0h0c-12-.32-27.78-1.19-43.09-2.17V1249l-1.33.08-1.33-.08v.17c-15.31,1-31,1.85-43.09,2.17h0l-1.6,0c-6.14.62-28.26,7.72-36.53,76.59l-19.55,162.72a496.49,496.49,0,0,0,100.78,15.83v.13l1.33-.06,1.33.06Z"/><path class="cls-25" d="M2659.17,1056.71s-41.06-18.36-51.47,15.51c0,0-33.76-4.2-25.47,32.12,0,0-32.49,17-8,63,0,0-4.28,41.64,44,45.3,0,0,6.11,16.37,27.82,13.27s27.5-12.86,27.5-12.86,39.1,16.46,48.33-19.93c0,0,27.93-10,7.49-46.11,0,0,20.11-45.3-18-63.52C2711.38,1083.5,2700,1039.65,2659.17,1056.71Z"/><path class="cls-10" d="M2672.56,1223c-.06.58,2.58,21.8,4,33a8.84,8.84,0,0,1-6,9.49c-10.7,3.59-31.45,8-44-6a5.82,5.82,0,0,1-1.41-4.7l6.89-49.26Z"/><path class="cls-14" d="M2670.57,1233.74a8.65,8.65,0,0,0,3-1.75c-.61-5-1-8.72-1-9l-40.51-17.49-3.39,24.23C2641.32,1241.23,2660.45,1237.14,2670.57,1233.74Z"/><path class="cls-10" d="M2605.45,1167.71c2.06,8.42-.9,16.38-6.59,17.78s-12-4.32-14.05-12.74.89-16.39,6.59-17.78S2603.39,1159.28,2605.45,1167.71Z"/><path class="cls-10" d="M2696.28,1167.71c-2.06,8.42.89,16.38,6.59,17.78s12-4.32,14.05-12.74-.89-16.39-6.59-17.78S2698.34,1159.28,2696.28,1167.71Z"/><path class="cls-10" d="M2704.6,1164.49c0,37-23.62,67.09-52.75,67.09s-52.74-30-52.74-67.09,23.61-67.1,52.74-67.1S2704.6,1127.43,2704.6,1164.49Z"/><path class="cls-8" d="M2626,1249s8.47,15.53,26.09,20.13c0,0-13.41,5-21.07,1.7S2617.49,1261.14,2626,1249Z"/><path class="cls-8" d="M2675.68,1249s-8.37,15.53-25.8,20.13c0,0,13.26,5,20.84,1.7S2684.06,1261.14,2675.68,1249Z"/><path class="cls-10" d="M2609,1373.07c-1-1.47,1.44-4,3.24-5.85,2-2.09,14.09-7.31,16.15-7.94s19.68,1.86,26.43,4.07,11.19,1.3,11.19,1.3c1.77-.36,4.43-.85,6.49-1.27l4.23,15.72c-15.83-.2-32.39,1-33.9.94-4.76-.12-13.47-5.09-15.5-5.83s-6.11-.15-8.87,1.14-10.77,4.36-12.11,3.64S2609,1373.07,2609,1373.07Z"/><path class="cls-10" d="M2665.11,1364.77s89-32.45,109-26.45,27.55,25.67,21.54,37.67-123.56,3.09-123.56,3.09Z"/><rect class="cls-9" x="2281.91" y="1401.85" width="16.54" height="486.45"/><rect class="cls-9" x="3011.73" y="1401.85" width="16.54" height="486.45"/><path class="cls-10" d="M2637,1792.91s-.67,43,5,55.56-3.64,31.87-4.28,34.59-15,5.22-37.08.58-21.14-9.73-18.49-17.82,15.58-17.51,17.11-25.31-3.1-36.94-3.1-36.94Z"/><path class="cls-9" d="M2597.46,1886.67c-22.67-4.79-18.69-15.72-16-24.05,1.7-5.21,8.92-10.83,13.46-16.37,1.88,1.84,4.92,5,14.57,9,10,4.1,24.82-.46,34.24-3.31,2,12.26.58,27.5.05,29.78C2643.15,1884.52,2620.14,1891.45,2597.46,1886.67Z"/><path class="cls-13" d="M2637.48,1621.43c1,35.35,6.13,211.32,6.13,211.32l-53.83,1.11s-42.1-233.31-35.19-267.63,31.67-34.72,31.67-34.72S2634.71,1527.85,2637.48,1621.43Z"/><path class="cls-10" d="M2656.13,1792.91s.67,43-4.94,55.56,3.63,31.87,4.27,34.59,15.06,5.22,37.08.58,21.14-9.73,18.5-17.82-15.59-17.51-17.12-25.31,3.11-36.94,3.11-36.94Z"/><path class="cls-9" d="M2695.66,1886.67c22.68-4.79,18.69-15.72,16-24.05-1.71-5.21-8.93-10.83-13.46-16.37-1.89,1.84-4.92,5-14.58,9-10,4.1-24.82-.46-34.24-3.31-2,12.26-.58,27.5,0,29.78C2650,1884.52,2673,1891.45,2695.66,1886.67Z"/><path class="cls-13" d="M2655.65,1621.43c-1.05,35.35-6.14,211.32-6.14,211.32l53.83,1.11s42.11-233.31,35.2-267.63-31.68-34.72-31.68-34.72S2658.42,1527.85,2655.65,1621.43Z"/><rect class="cls-16" x="2250.72" y="1377.84" width="808.73" height="24.01"/><rect class="cls-16" x="2281.91" y="1438.57" width="746.36" height="230.82"/><rect class="cls-9" x="2281.91" y="1702.78" width="746.36" height="16.7"/><path class="cls-17" d="M2636.91,1196.24l29.08,1.61s-1.32,11.44-14.13,11.12C2636.24,1208.58,2636.91,1196.24,2636.91,1196.24Z"/><rect class="cls-8" x="1767.6" y="1322.13" width="159.87" height="55.97" transform="translate(3695.07 2700.23) rotate(180)"/><rect class="cls-26" x="1767.6" y="1332.38" width="159.87" height="0.94" transform="translate(3695.07 2665.7) rotate(180)"/><rect class="cls-26" x="1767.6" y="1341.61" width="159.87" height="0.94" transform="translate(3695.07 2684.17) rotate(180)"/><rect class="cls-26" x="1767.6" y="1350.85" width="159.87" height="0.94" transform="translate(3695.07 2702.64) rotate(180)"/><rect class="cls-26" x="1767.6" y="1360.08" width="159.87" height="0.94" transform="translate(3695.07 2721.1) rotate(180)"/><path class="cls-26" d="M1848.66,1342.56s-75.22,6.45-84.65,14.55c0,0,.48-9.61,3.59-15.5l23.56.9Z"/><polygon class="cls-14" points="1888.9 1342.55 1880.7 1355.54 1871.51 1342.55 1888.9 1342.55"/><polygon class="cls-23" points="1850.63 1351.79 1842.42 1364.79 1833.24 1351.79 1850.63 1351.79"/><rect class="cls-26" x="1767.6" y="1369.27" width="159.87" height="0.94" transform="translate(3695.07 2739.48) rotate(180)"/><polygon class="cls-18" points="1808.13 1361.05 1799.93 1374.05 1790.74 1361.05 1808.13 1361.05"/><polygon class="cls-27" points="1889.42 1322.13 1889.42 1349.9 1889.42 1350.34 1889.42 1378.1 1927.47 1378.1 1927.47 1350.34 1927.47 1349.9 1927.47 1322.13 1889.42 1322.13"/><path class="cls-18" d="M2986.44,1345.17h5.5a5.36,5.36,0,0,0-3.25-1.09h-138a13,13,0,0,0-13.08,12.81V1365a13,13,0,0,0,13.08,12.81l136.44,0Z"/><path class="cls-19" d="M2908.09,1344.11a12.38,12.38,0,0,0-12.5,12.25v9.2a12.38,12.38,0,0,0,12.5,12.25H2994v-2.06h-.36l-21.84-2-4.41-17s8.52-9.37,9.07-9.61,17.18-1,17.18-1h.36v-2.05Z"/><path class="cls-8" d="M2988.43,1360.9c0-9.92,5.23-14.73,5.23-14.73h-83.81a11.37,11.37,0,0,0-11.48,11.25v7.08a11.37,11.37,0,0,0,11.48,11.25h83.81S2988.43,1373.39,2988.43,1360.9Z"/><path class="cls-20" d="M2898.37,1357.42v7.08a11,11,0,0,0,.34,2.7c2.82-6.78,8.24-13.31,18.55-15.41,24.08-4.9,76.4-5.62,76.4-5.62h-83.81A11.37,11.37,0,0,0,2898.37,1357.42Z"/><path class="cls-14" d="M2983.15,1318.19h5.51a6.34,6.34,0,0,0-3.25-.86h-138c-7.22,0-13.07,4.55-13.07,10.16V1334c0,5.61,5.85,10.16,13.07,10.16l136.5,0Z"/><path class="cls-24" d="M2904.78,1317.35c-6.9,0-12.5,4.35-12.5,9.72v7.3c0,5.37,5.6,9.72,12.5,9.72h85.94v-1.63h-.36l-21.84-1.61-4.42-13.47s8.52-7.44,9.08-7.63,17.18-.77,17.18-.77h.36v-1.63Z"/><path class="cls-8" d="M2985.15,1330.67a14.85,14.85,0,0,1,5.23-11.69h-83.84c-6.34,0-11.48,4-11.48,8.93v5.62c0,4.93,5.14,8.93,11.48,8.93h83.84S2985.15,1340.58,2985.15,1330.67Z"/><path class="cls-20" d="M2895.06,1327.91v5.62a7,7,0,0,0,.33,2.14c2.83-5.38,8.25-10.56,18.56-12.22,24.09-3.89,76.43-4.47,76.43-4.47h-83.84C2900.2,1319,2895.06,1323,2895.06,1327.91Z"/><polygon class="cls-23" points="2966.94 1358.41 2972.3 1366.89 2978.3 1358.41 2966.94 1358.41"/><polygon class="cls-14" points="2924.64 1329.17 2929.95 1337.58 2935.89 1329.17 2924.64 1329.17"/><path class="cls-20" d="M2985.21,1329.17h-90.15v-.67c0-.09,90.23,0,90.23,0Z"/><path class="cls-20" d="M2988.59,1358.41l-90.21-.05v-.67c0-.1,90.28,0,90.28,0Z"/><polygon class="cls-6" points="620.58 1888.31 628.95 1888.31 615.63 1449.98 607.25 1449.98 620.58 1888.31"/><polygon class="cls-6" points="392.29 1888.31 383.91 1888.31 397.23 1449.98 405.61 1449.98 392.29 1888.31"/><path class="cls-6" d="M640.2,1237.68h-6.68a147,147,0,0,1-20.5,5c-10.49,1.67-39.57,7.23-71,8.34-10.71.38-21.74.5-31.65.5v0l-3.86,0-3.85,0v0c-9.91,0-20.94-.12-31.65-.5-31.47-1.11-60.56-6.67-71-8.34a147.37,147.37,0,0,1-20.51-5h-6.67c-8.52,0-15.12,8.72-14.06,18.59l30.88,288.15c.85,7.87,6.36,13.93,13.14,14.45l92.73,7.12a13.09,13.09,0,0,0,11-4.94,13.12,13.12,0,0,0,11,4.94l92.73-7.12c6.78-.52,12.29-6.58,13.14-14.45l30.88-288.15C655.32,1246.4,648.72,1237.68,640.2,1237.68Z"/><path class="cls-28" d="M584.79,1260.91s46.3-82.59,57.56-100.15S683,1073.43,684,1070.69s-20.2-35.77-15.46-36.9,10,17.41,15.06,15.19,19.85-46.84,22.73-44.63c5.4,4.15-8,27.69-5.09,29.17s11.59-25.9,17.24-25.1-10.74,25.1-9.16,27.25,18.6-20.74,21.68-15.86c1.67,2.65-15.65,20-12.32,21.6s18.73-9.57,20.37-6.34-14.26,7.64-19,16.34-12.83,12.46-16.19,28.56-25.59,103.47-42.8,132.54-37.84,64.36-37.84,64.36Z"/><path class="cls-11" d="M543.92,1089.58c-41.8-22-89.73,7-98.82,18.77s-4.63,56.77,3.65,73.44,17.3,51.75,36.1,45.27c3.46-1.19,29.62-11.08,30.42-18.89,3.6,7,31,6.69,34.67,6.53,19.87-.86,17-37.11,18.61-55.66S557.08,1096.53,543.92,1089.58Z"/><path class="cls-14" d="M467.8,1251.39s-19.53-2.78-49.92,26.49-71.36,65-53.64,93.52l74.64-1.79s45.12-53.07,45.77-55.83S467.8,1251.39,467.8,1251.39Z"/><path class="cls-14" d="M676.23,1190.38l-42.07-25.89s-58.84,86.83-74.3,86.9l-1.6,0h0c-12-.32-27.78-1.19-43.09-2.17V1249l-1.33.08-1.33-.08v.17c-15.31,1-31.05,1.85-43.09,2.17h0l-1.6,0c-6.13.62-28.26,7.72-36.53,76.58L411.73,1490.7a496.31,496.31,0,0,0,100.77,15.83v.13l1.33-.06,1.33.06v-.13a496.47,496.47,0,0,0,100.77-15.83L600.11,1359a74.65,74.65,0,0,1,12.11-50.6C640.88,1265.83,676.23,1190.38,676.23,1190.38Z"/><path class="cls-10" d="M535.42,1223c-.06.58,2.59,21.8,4,33a8.84,8.84,0,0,1-6,9.49c-10.69,3.59-31.45,8-44-6a5.83,5.83,0,0,1-1.42-4.7l6.9-49.26Z"/><path class="cls-14" d="M533.43,1233.74a8.65,8.65,0,0,0,3-1.75c-.6-5-1-8.72-1-9l-40.5-17.49-3.39,24.23C504.18,1241.23,523.31,1237.14,533.43,1233.74Z"/><path class="cls-10" d="M462.4,1176.64c3.6,7.89,2.19,16.26-3.15,18.69s-12.59-2-16.18-9.89-2.19-16.27,3.15-18.7S458.8,1168.74,462.4,1176.64Z"/><path class="cls-10" d="M551.64,1159.69c-.45,8.66,3.93,15.93,9.79,16.23s11-6.47,11.42-15.13-3.93-15.94-9.79-16.24S552.09,1151,551.64,1159.69Z"/><path class="cls-10" d="M559.21,1155c6.92,36.4-10.67,70.32-39.29,75.75s-57.43-19.67-64.35-56.07,10.67-70.33,39.29-75.76S552.29,1118.57,559.21,1155Z"/><path class="cls-8" d="M488.82,1249s8.47,15.53,26.09,20.13c0,0-13.41,5-21.07,1.7S480.35,1261.14,488.82,1249Z"/><path class="cls-8" d="M538.54,1249s-8.37,15.53-25.79,20.13c0,0,13.25,5,20.83,1.7S546.92,1261.14,538.54,1249Z"/><path class="cls-10" d="M550.83,1373.07c1-1.47-1.45-4-3.25-5.85-2-2.09-14.09-7.31-16.15-7.94s-19.68,1.86-26.42,4.07-11.2,1.3-11.2,1.3c-1.77-.36-4.42-.85-6.49-1.27l-4.23,15.72c15.84-.2,32.4,1,33.9.94,4.76-.12,13.48-5.09,15.5-5.83s6.12-.15,8.87,1.14,10.77,4.36,12.12,3.64S550.83,1373.07,550.83,1373.07Z"/><path class="cls-10" d="M494.74,1364.77s-89-32.45-109-26.45-28,24.84-22,36.84,124,3.92,124,3.92Z"/><rect class="cls-9" x="144.77" y="1401.85" width="16.54" height="486.45"/><rect class="cls-9" x="874.59" y="1401.85" width="16.54" height="486.45"/><path class="cls-10" d="M499.85,1792.91s-.66,43,4.95,55.56-3.64,31.87-4.28,34.59-15,5.22-37.08.58-21.14-9.73-18.49-17.82,15.59-17.51,17.11-25.31-3.1-36.94-3.1-36.94Z"/><path class="cls-9" d="M460.33,1886.67c-22.68-4.79-18.7-15.72-16-24.05,1.7-5.21,8.93-10.83,13.46-16.37,1.88,1.84,4.92,5,14.58,9,10,4.1,24.82-.46,34.24-3.31,2,12.26.57,27.5,0,29.78C506,1884.52,483,1891.45,460.33,1886.67Z"/><path class="cls-13" d="M500.34,1621.43c1.05,35.35,6.13,211.32,6.13,211.32l-53.82,1.11s-42.11-233.31-35.2-267.63,31.67-34.72,31.67-34.72S497.57,1527.85,500.34,1621.43Z"/><path class="cls-10" d="M519,1792.91s.67,43-4.94,55.56,3.63,31.87,4.27,34.59,15.06,5.22,37.08.58,21.14-9.73,18.5-17.82-15.59-17.51-17.12-25.31,3.11-36.94,3.11-36.94Z"/><path class="cls-9" d="M558.52,1886.67c22.68-4.79,18.69-15.72,16-24.05-1.71-5.21-8.93-10.83-13.46-16.37-1.88,1.84-4.92,5-14.58,9-10,4.1-24.82-.46-34.24-3.31-2,12.26-.58,27.5,0,29.78C512.83,1884.52,535.84,1891.45,558.52,1886.67Z"/><path class="cls-13" d="M518.51,1621.43c-1,35.35-6.14,211.32-6.14,211.32l53.83,1.11s42.11-233.31,35.2-267.63-31.68-34.72-31.68-34.72S521.28,1527.85,518.51,1621.43Z"/><rect class="cls-16" x="113.59" y="1377.84" width="808.73" height="24.01"/><rect class="cls-16" x="144.77" y="1438.57" width="746.36" height="230.82"/><rect class="cls-9" x="144.77" y="1702.78" width="746.36" height="16.7"/><path class="cls-25" d="M699.27,1345.17h-5.51a5.39,5.39,0,0,1,3.26-1.09H835a12.94,12.94,0,0,1,13.07,12.81V1365A12.94,12.94,0,0,1,835,1377.84l-136.45,0Z"/><path class="cls-29" d="M777.61,1344.11a12.38,12.38,0,0,1,12.5,12.25v9.2a12.38,12.38,0,0,1-12.5,12.25h-85.9v-2.06h.35l21.84-2,4.42-17s-8.52-9.37-9.08-9.61-17.18-1-17.18-1h-.35v-2.05Z"/><path class="cls-8" d="M697.28,1360.9c0-9.92-5.23-14.73-5.23-14.73h83.8a11.38,11.38,0,0,1,11.49,11.25v7.08a11.38,11.38,0,0,1-11.49,11.25h-83.8S697.28,1373.39,697.28,1360.9Z"/><path class="cls-20" d="M787.34,1357.42v7.08a11,11,0,0,1-.34,2.7c-2.83-6.78-8.24-13.31-18.55-15.41-24.08-4.9-76.4-5.62-76.4-5.62h83.8A11.38,11.38,0,0,1,787.34,1357.42Z"/><path class="cls-18" d="M853.88,1318.19h5.51a6.35,6.35,0,0,0-3.26-.86h-138c-7.22,0-13.08,4.55-13.08,10.16V1334c0,5.61,5.86,10.16,13.08,10.16l136.5,0Z"/><path class="cls-19" d="M775.51,1317.35c-6.91,0-12.51,4.35-12.51,9.72v7.3c0,5.37,5.6,9.72,12.51,9.72h85.94v-1.63h-.36l-21.85-1.61-4.41-13.47s8.52-7.44,9.08-7.63,17.18-.77,17.18-.77h.36v-1.63Z"/><path class="cls-8" d="M855.87,1330.67a14.84,14.84,0,0,1,5.24-11.69H777.27c-6.35,0-11.49,4-11.49,8.93v5.62c0,4.93,5.14,8.93,11.49,8.93h83.84S855.87,1340.58,855.87,1330.67Z"/><path class="cls-20" d="M765.78,1327.91v5.62a7,7,0,0,0,.34,2.14c2.82-5.38,8.24-10.56,18.56-12.22,24.09-3.89,76.43-4.47,76.43-4.47H777.27C770.92,1319,765.78,1323,765.78,1327.91Z"/><path class="cls-11" d="M454.19,1167.39s24.24-5.85,34.35-21.74,31.78-43.05,41.17-43.32-10-12.83-16.56-11.59-52,14.57-52,14.57l-7.71,20.57-6.42,25Z"/><polygon class="cls-8" points="634.1 1164.58 676.04 1190.78 680.78 1180.01 640.97 1156.51 634.1 1164.58"/><path class="cls-17" d="M499.41,1200l31.44-7.51s2.23,12.59-11.5,16.31C502.61,1213.34,499.41,1200,499.41,1200Z"/><polygon class="cls-14" points="843.6 1330.54 838.29 1338.94 832.35 1330.54 843.6 1330.54"/><path class="cls-20" d="M765.86,1330.54h90v-.67c0-.1-90.1,0-90.1,0Z"/><polygon class="cls-18" points="709.61 1361.67 714.91 1370.08 720.86 1361.67 709.61 1361.67"/><path class="cls-20" d="M787.35,1361.67h-90V1361c0-.09,90.09,0,90.09,0Z"/><path class="cls-14" d="M713.81,1291.55h-4.35a4.23,4.23,0,0,1,2.57-.86h109a10.23,10.23,0,0,1,10.33,10.11v6.43a10.23,10.23,0,0,1-10.33,10.12l-107.8,0Z"/><path class="cls-24" d="M775.71,1290.71a9.77,9.77,0,0,1,9.87,9.68v7.26a9.77,9.77,0,0,1-9.87,9.68H707.84v-1.63h.28l17.25-1.6,3.49-13.4s-6.73-7.41-7.17-7.6-13.57-.77-13.57-.77h-.28v-1.62Z"/><path class="cls-8" d="M712.24,1304c0-7.84-4.13-11.64-4.13-11.64h66.2a9,9,0,0,1,9.08,8.89v5.59a9,9,0,0,1-9.08,8.89h-66.2S712.24,1313.84,712.24,1304Z"/><path class="cls-20" d="M783.39,1301.22v5.59a8.9,8.9,0,0,1-.27,2.14,19.38,19.38,0,0,0-14.66-12.17c-19-3.87-60.35-4.45-60.35-4.45h66.2A9,9,0,0,1,783.39,1301.22Z"/><polygon class="cls-25" points="759.01 1303.42 763.69 1311.73 767.9 1303.42 759.01 1303.42"/><path class="cls-20" d="M783.39,1303.42H712.21v-.67c0-.1,71.18,0,71.18,0Z"/><polygon class="cls-6" points="3804.05 1887.61 3812.43 1887.61 3799.1 1449.3 3790.73 1449.3 3804.05 1887.61"/><polygon class="cls-6" points="3575.76 1887.61 3567.39 1887.61 3580.71 1449.3 3589.09 1449.3 3575.76 1887.61"/><path class="cls-6" d="M3823.67,1237H3817a147,147,0,0,1-20.5,5c-10.49,1.66-39.57,7.23-71,8.34-10.72.38-21.74.5-31.65.5v0l-3.86,0-3.85,0v0c-9.91,0-20.93-.12-31.65-.5-31.47-1.11-60.55-6.68-71-8.34a147,147,0,0,1-20.5-5h-6.67c-8.52,0-15.12,8.72-14.06,18.59l30.88,288.15c.84,7.86,6.35,13.93,13.13,14.45l92.73,7.12a14.81,14.81,0,0,1,22.08,0l92.73-7.12c6.78-.52,12.29-6.59,13.13-14.45l30.88-288.15C3838.79,1245.71,3832.2,1237,3823.67,1237Z"/><path class="cls-30" d="M3666.11,1088.22S3637.75,1083,3625,1113s-3.84,25.85-10,40.8-28.56,15.81-25.05,36.83,13.87,22.66,13.87,22.66-6.14,17.83,6.48,33,39.49,25.57,59.57,19.82c0,0,33.55,11.72,63.05-1.39s18.75-11.31,31.36-13.42,43.81-25.08,34-49.37c0,0,16.65-28.15-6.88-45s-30.76-36.64-47-61.78S3679,1079.34,3666.11,1088.22Z"/><path class="cls-12" d="M3654.64,1250.7s-19.53-2.78-49.92,26.49-71.36,65-53.64,93.52l74.64-1.79s45.12-53.07,45.77-55.83S3654.64,1250.7,3654.64,1250.7Z"/><path class="cls-8" d="M3684.94,1832.16c0-.13,0-47-.19-97.26-29.52,3.75-48.54,2.88-59.37,1.47,10.55,53.25,20.44,98,20.46,98.09a28.57,28.57,0,0,1-.3,5.36c-1.53,7.8-14.47,17.22-17.12,25.31s-3.53,13.17,18.5,17.82,36.44,2.14,37.08-.58,9.88-22.07,4.27-34.59C3686.74,1844.36,3685.68,1838.64,3684.94,1832.16Z"/><path class="cls-9" d="M3643.8,1886c-22.68-4.78-18.69-15.71-16-24,1.71-5.21,8.93-10.83,13.46-16.37,1.89,1.84,4.92,5,14.58,9,10,4.1,24.82-.47,34.24-3.31,2,12.26.58,27.5,0,29.78C3689.49,1883.83,3666.48,1890.76,3643.8,1886Z"/><path class="cls-8" d="M3707.63,1832.16c0-.13,0-47,.19-97.26,29.52,3.75,48.54,2.88,59.37,1.47-10.56,53.25-20.44,98-20.46,98.09a28.57,28.57,0,0,0,.3,5.36c1.53,7.8,14.47,17.22,17.12,25.31s3.53,13.17-18.5,17.82-36.44,2.14-37.08-.58-9.89-22.07-4.27-34.59C3705.83,1844.36,3706.89,1838.64,3707.63,1832.16Z"/><path class="cls-9" d="M3748.77,1886c22.68-4.78,18.69-15.71,16-24-1.71-5.21-8.93-10.83-13.46-16.37-1.89,1.84-4.92,5-14.58,9-10,4.1-24.82-.47-34.24-3.31-2,12.26-.58,27.5,0,29.78C3703.08,1883.83,3726.09,1890.76,3748.77,1886Z"/><path class="cls-10" d="M3684.75,1734.9c-.15-47.08-.43-97.07-.94-114.16-2.77-93.58-51.21-89.93-51.21-89.93s-24.77.41-31.68,34.73c-3.89,19.32,10.84,102.15,24.46,170.83C3636.21,1737.78,3655.23,1738.65,3684.75,1734.9Z"/><path class="cls-10" d="M3707.82,1734.9c.15-47.08.43-97.07.94-114.16,2.77-93.58,51.21-89.93,51.21-89.93s24.77.41,31.68,34.73c3.89,19.32-10.84,102.15-24.46,170.83C3756.36,1737.78,3737.34,1738.65,3707.82,1734.9Z"/><path class="cls-12" d="M3741.73,1250.66s26.27-2.74,56.66,26.53,71.36,65,53.64,93.52l-74.64-1.79s-45.12-53.07-45.77-55.83S3741.73,1250.66,3741.73,1250.66Z"/><path class="cls-13" d="M3698.63,1505.84A496.49,496.49,0,0,0,3799.41,1490l-19.55-162.73c-8.27-68.86-30.39-76-36.53-76.58l-1.6,0h0c-12-.32-27.77-1.19-43.09-2.17v-.17l-1.33.08-1.33-.08v.17c-15.31,1-31,1.85-43.09,2.17h0l-1.6,0c-6.14.62-28.26,7.72-36.53,76.58L3595.2,1490A496.47,496.47,0,0,0,3696,1505.84v.13l1.33-.06,1.33.06Z"/><path class="cls-8" d="M3853.94,1370.71s8.79-6.82,2.38-24.07-52.32-28.84-62.36-5Z"/><path class="cls-8" d="M3549.17,1370.71s-8.79-6.82-2.38-24.07,52.32-28.84,62.36-5Z"/><path class="cls-15" d="M3737.67,1372.38c1-1.47-1.45-4-3.25-5.86-2-2.08-14.09-7.3-16.15-7.93s-19.68,1.86-26.42,4.07-11.2,1.3-11.2,1.3c-1.77-.36-4.43-.85-6.49-1.28l-4.23,15.73c15.84-.2,32.4,1,33.9.94,4.76-.12,13.48-5.1,15.5-5.83s6.12-.15,8.87,1.14,10.77,4.36,12.12,3.64S3737.67,1372.38,3737.67,1372.38Z"/><path class="cls-15" d="M3681.58,1364.08s-89-32.46-109-26.45-28,24.83-22,36.84,124,3.92,124,3.92Z"/><path class="cls-10" d="M3718.9,1222.34c-.06.58,2.58,21.8,4,33a8.85,8.85,0,0,1-6,9.49c-10.7,3.59-31.45,8-44-6a5.82,5.82,0,0,1-1.41-4.7l6.89-49.26Z"/><path class="cls-14" d="M3716.91,1233.05a8.65,8.65,0,0,0,3-1.75c-.61-5-1-8.72-1-9l-40.51-17.49-3.39,24.23C3687.66,1240.54,3706.78,1236.45,3716.91,1233.05Z"/><path class="cls-10" d="M3651.29,1170.28c2.67,8.25.3,16.4-5.28,18.21s-12.27-3.43-14.94-11.69-.3-16.41,5.28-18.21S3648.62,1162,3651.29,1170.28Z"/><path class="cls-10" d="M3741.88,1163.66c-1.44,8.55,2.08,16.28,7.87,17.25s11.64-5.17,13.08-13.73-2.08-16.28-7.87-17.25S3743.32,1155.1,3741.88,1163.66Z"/><path class="cls-10" d="M3749.94,1159.84c2.7,37-18.66,68.64-47.71,70.76s-54.8-26.11-57.5-63.07,18.66-68.64,47.71-70.76S3747.24,1122.89,3749.94,1159.84Z"/><path class="cls-8" d="M3672.29,1248.32s8.47,15.53,26.1,20.13c0,0-13.41,5-21.07,1.7S3663.82,1260.45,3672.29,1248.32Z"/><path class="cls-8" d="M3722,1248.32s-8.37,15.53-25.8,20.13c0,0,13.26,5,20.83,1.7S3730.39,1260.45,3722,1248.32Z"/><path class="cls-10" d="M3721.53,1364.08s89-32.46,109-26.45,27.54,25.67,21.54,37.67-129.36,5.28-129.36,5.28Z"/><rect class="cls-9" x="3328.25" y="1401.16" width="16.54" height="486.45"/><rect class="cls-9" x="4058.06" y="1401.16" width="16.54" height="486.45"/><rect class="cls-16" x="3328.25" y="1437.88" width="746.36" height="230.82"/><rect class="cls-9" x="3328.25" y="1702.09" width="746.36" height="16.7"/><path class="cls-6" d="M3684.79,1747.81q0-6.39,0-12.91c-29.52,3.75-48.54,2.88-59.37,1.47q1.18,6,2.37,11.86C3635.27,1750.1,3654,1753.05,3684.79,1747.81Z"/><path class="cls-6" d="M3707.78,1747.81q0-6.39,0-12.91c29.52,3.75,48.54,2.88,59.37,1.47q-1.18,6-2.37,11.86C3757.3,1750.1,3738.56,1753.05,3707.78,1747.81Z"/><path class="cls-17" d="M3686.4,1195.56l28.91-3.47s.69,11.49-12,13.41C3687.89,1207.83,3686.4,1195.56,3686.4,1195.56Z"/><path class="cls-18" d="M3879.63,1344.48h-5.51a5.42,5.42,0,0,1,3.26-1.09h138a12.94,12.94,0,0,1,13.07,12.81v8.14a12.94,12.94,0,0,1-13.07,12.81l-136.45-.05Z"/><path class="cls-19" d="M3958,1343.42a12.38,12.38,0,0,1,12.51,12.25v9.2a12.38,12.38,0,0,1-12.51,12.25h-85.9v-2.06h.36l21.83-2,4.42-17s-8.52-9.37-9.08-9.61-17.17-1-17.17-1h-.36v-2Z"/><path class="cls-8" d="M3877.64,1360.21c0-9.92-5.23-14.73-5.23-14.73h83.8a11.37,11.37,0,0,1,11.49,11.25v7.08a11.37,11.37,0,0,1-11.49,11.25h-83.8S3877.64,1372.7,3877.64,1360.21Z"/><path class="cls-20" d="M3967.7,1356.73v7.08a11,11,0,0,1-.34,2.7c-2.82-6.78-8.24-13.31-18.55-15.41-24.08-4.9-76.4-5.62-76.4-5.62h83.8A11.37,11.37,0,0,1,3967.7,1356.73Z"/><path class="cls-21" d="M3882.92,1317.5h-5.52a6.38,6.38,0,0,1,3.26-.86h138.05c7.22,0,13.07,4.55,13.07,10.16v6.46c0,5.61-5.85,10.16-13.07,10.16l-136.5,0Z"/><path class="cls-22" d="M3961.29,1316.66c6.9,0,12.5,4.35,12.5,9.72v7.3c0,5.37-5.6,9.72-12.5,9.72h-85.94v-1.63h.36l21.84-1.61,4.42-13.47s-8.52-7.44-9.08-7.63-17.18-.77-17.18-.77h-.36v-1.63Z"/><path class="cls-8" d="M3880.92,1330a14.85,14.85,0,0,0-5.23-11.69h83.84c6.34,0,11.48,4,11.48,8.93v5.62c0,4.93-5.14,8.93-11.48,8.93h-83.84S3880.92,1339.89,3880.92,1330Z"/><path class="cls-20" d="M3971,1327.22v5.62a7,7,0,0,1-.33,2.14c-2.83-5.38-8.25-10.56-18.56-12.22-24.09-3.89-76.43-4.47-76.43-4.47h83.84C3965.87,1318.29,3971,1322.29,3971,1327.22Z"/><polygon class="cls-23" points="3899.13 1357.72 3893.77 1366.2 3887.77 1357.72 3899.13 1357.72"/><polygon class="cls-14" points="3941.43 1328.48 3936.12 1336.89 3930.18 1328.48 3941.43 1328.48"/><path class="cls-20" d="M3880.86,1328.48H3971v-.67c0-.1-90.23,0-90.23,0Z"/><path class="cls-20" d="M3877.48,1357.72l90.2,0V1357c0-.1-90.28,0-90.28,0Z"/><polygon class="cls-31" points="3708.6 1366.97 3699 1378.02 3699.93 1363.42 3704.56 1360.21 3708.6 1366.97"/><polygon class="cls-32" points="3704.56 1360.21 3705.6 1361.95 3699 1378.02 3699.93 1363.42 3704.56 1360.21"/><polygon class="cls-33" points="3699.93 1363.42 3699.69 1367.2 3702.37 1364.42 3723.51 1312.94 3720.42 1313.49 3699.93 1363.42"/><polygon class="cls-21" points="3702.37 1364.42 3702.9 1368.52 3706.16 1365.97 3727.29 1314.49 3723.51 1312.94 3702.37 1364.42"/><polygon class="cls-34" points="3706.16 1365.97 3706.12 1369.83 3708.6 1366.97 3729.09 1317.05 3727.29 1314.49 3706.16 1365.97"/><rect class="cls-23" x="3722.57" y="1313.57" width="4.1" height="4.09" transform="matrix(0.38, -0.93, 0.93, 0.38, 1093.75, 4262.16)"/><polygon class="cls-35" points="3725.73 1318.28 3727.29 1314.49 3729.09 1317.05 3728.18 1319.28 3725.73 1318.28"/><polygon class="cls-36" points="3719.5 1315.73 3720.42 1313.49 3723.51 1312.94 3721.95 1316.73 3719.5 1315.73"/><rect class="cls-37" x="3724.72" y="1318.6" width="2.64" height="4.83" transform="translate(6672.03 3957.21) rotate(-157.7)"/><rect class="cls-38" x="3718.49" y="1316.05" width="2.64" height="4.83" transform="translate(6661.48 3949.41) rotate(-157.71)"/><rect class="cls-31" x="3720.88" y="1317.33" width="4.09" height="4.83" transform="translate(6666.88 3953.17) rotate(-157.71)"/><path class="cls-39" d="M3702.26,1374.27,3699,1378l.32-5,1.14,1.41Z"/><path class="cls-10" d="M3737.2,1359.14c-3.53.46-6.15.73-6.52.56-1.45-.7-6.53-3.6-9.74-4s-8.61-2.46-10.18-2.18-9.31,4.31-10.42,4.51a8.24,8.24,0,0,0-2.92,1.75c-.67.5-8.34,1.77-9.75,2.87s-1.28,5.65-.22,6.79c0,0,.11.41-.56,1a5.33,5.33,0,0,0-1.09,3.9c.28,1.16,1.59,2.92,3.19,2.71,0,0,.8.07.92.33a11.76,11.76,0,0,0,.31,3.37c.53,1.4,1.89,2.23,4.42,2,0,0-1.19,5.61,4.16,5.08l7.29-.73a26.12,26.12,0,0,0,5.76.31c1.75-.31,12.6-1.85,13.36-2.37a19.07,19.07,0,0,1,3-1.86,49.47,49.47,0,0,0,6.54-2.21,15.86,15.86,0,0,1,2.45-.81Z"/><rect class="cls-16" x="3297.06" y="1377.15" width="808.73" height="24.01"/><path class="cls-14" d="M3486.79,1348.56h4.68a4.62,4.62,0,0,0-2.76-.92H3371.63a11,11,0,0,0-11.09,10.87v6.9a11,11,0,0,0,11.09,10.87l115.77,0Z"/><path class="cls-24" d="M3420.33,1347.67a10.5,10.5,0,0,0-10.61,10.39v7.8a10.5,10.5,0,0,0,10.61,10.39h72.88v-1.74h-.3l-18.53-1.72-3.74-14.4s7.22-8,7.69-8.16,14.58-.83,14.58-.83h.3v-1.73Z"/><path class="cls-8" d="M3488.48,1361.91c0-8.42,4.44-12.5,4.44-12.5h-71.1a9.65,9.65,0,0,0-9.74,9.55v6a9.65,9.65,0,0,0,9.74,9.55h71.1S3488.48,1372.51,3488.48,1361.91Z"/><path class="cls-20" d="M3412.08,1359v6a9.57,9.57,0,0,0,.28,2.29,20.84,20.84,0,0,1,15.75-13.07c20.42-4.15,64.81-4.77,64.81-4.77h-71.1A9.65,9.65,0,0,0,3412.08,1359Z"/><polygon class="cls-25" points="3438.26 1361.32 3433.23 1370.24 3428.71 1361.32 3438.26 1361.32"/><path class="cls-20" d="M3412.08,1361.32h76.44v-.73c0-.1-76.44,0-76.44,0Z"/><rect class="cls-2" x="3779.71" y="371.99" width="481.29" height="585.41"/><polygon class="cls-40" points="4246.91 647.83 4246.91 522.75 4239.15 522.75 4239.15 496.36 4171.16 496.36 4171.16 522.75 4163.41 522.75 4163.41 691.3 4149.09 691.3 4149.09 638.75 4137.16 638.75 4137.16 613.05 4119.86 613.05 4119.86 538.03 4094.82 538.03 4094.82 613.05 4077.52 613.05 4077.52 638.75 4065.59 638.75 4065.59 727.66 4057.24 727.66 4050.68 727.58 4050.68 624.56 3874.13 626.25 3874.13 858.22 3859.22 858.22 3859.22 827.82 3805.54 827.82 3805.54 886.24 3790.04 886.24 3790.04 864.78 3756.04 864.78 3756.04 901.74 3756.04 908.3 3738.39 908.3 3738.39 957.4 4260.8 957.4 4260.8 647.46 4246.91 647.83"/><rect class="cls-7" x="3763.83" width="15.88" height="945.65"/><polygon class="cls-3" points="3763.83 923.78 3763.83 0 3732.08 0 3732.08 923.78 3706.13 923.78 3706.13 967.72 4261 967.72 4261 923.78 3763.83 923.78"/><polygon class="cls-7" points="4261 967.72 3706.13 967.72 3727.2 978.3 4261 978.3 4261 967.72"/><path class="cls-17" d="M4223.37,359.35a20.16,20.16,0,0,0-19.65-15.62,19.89,19.89,0,0,0-5.09.65,29.74,29.74,0,0,0-35.72-15.78,36.6,36.6,0,0,0-65.73,6.39,25.11,25.11,0,0,0-37.31,21.93c0,.82.05,1.63.12,2.43Z"/><path class="cls-17" d="M4094.24,196.13a29,29,0,0,0-35.53-21.51A42.66,42.66,0,0,0,4007.42,152a52.56,52.56,0,0,0-94.39,9.18,36,36,0,0,0-53.57,31.48c0,1.18.06,2.35.17,3.5Z"/><path class="cls-17" d="M3915,473.65a13.72,13.72,0,0,0-16.81-10.17,20.21,20.21,0,0,0-24.26-10.72,24.86,24.86,0,0,0-44.64,4.34,17.05,17.05,0,0,0-25.34,14.9,15,15,0,0,0,.08,1.65Z"/><ellipse class="cls-5" cx="3145.44" cy="206.1" rx="177.73" ry="177.51"/><ellipse class="cls-17" cx="3145.44" cy="206.1" rx="156.36" ry="156.56" transform="matrix(0, -1, 1, 0, 2932.58, 3351.09)"/><rect class="cls-3" x="3026.86" y="181.29" width="3.71" height="48.3" transform="translate(2823.27 3234.15) rotate(-90)"/><rect class="cls-3" x="3260.64" y="181.29" width="3.71" height="48.29" transform="translate(3057.05 3467.94) rotate(-90)"/><rect class="cls-3" x="3143.39" y="66.44" width="3.71" height="48.23"/><rect class="cls-3" x="3143.39" y="298.99" width="3.71" height="48.23"/><ellipse class="cls-41" cx="3145.44" cy="206.1" rx="4.36" ry="4.36"/><path class="cls-41" d="M3145.44,208.05a2,2,0,0,1-1.38-.57l-78.39-78.29a1.95,1.95,0,0,1,2.76-2.75l78.39,78.29a1.95,1.95,0,0,1-1.38,3.32Z"/><path class="cls-41" d="M3170.64,285.23a1.47,1.47,0,0,1-.71-.83L3144.6,208a1.42,1.42,0,1,1,2.69-.89l25.34,76.43a1.43,1.43,0,0,1-2,1.72Z"/><polygon class="cls-6" points="800.28 174.33 773.97 174.33 773.97 0 765.33 0 765.33 174.33 271.71 174.33 271.71 0 263.08 0 263.08 174.33 231.63 174.33 198.81 236.7 833.09 236.7 800.28 174.33"/><polygon class="cls-6" points="2387.92 174.33 2361.61 174.33 2361.61 0 2352.98 0 2352.98 174.33 1859.36 174.33 1859.36 0 1850.72 0 1850.72 174.33 1819.27 174.33 1786.46 236.7 2420.73 236.7 2387.92 174.33"/><polygon class="cls-6" points="3975.56 174.33 3949.25 174.33 3949.25 0 3940.62 0 3940.62 174.33 3447 174.33 3447 0 3438.37 0 3438.37 174.33 3406.91 174.33 3374.1 236.7 4008.38 236.7 3975.56 174.33"/></g></g></g></svg>