<?xml version="1.0" encoding="UTF-8" standalone="no"?>
<svg
   xmlns:dc="http://purl.org/dc/elements/1.1/"
   xmlns:cc="http://creativecommons.org/ns#"
   xmlns:rdf="http://www.w3.org/1999/02/22-rdf-syntax-ns#"
   xmlns:svg="http://www.w3.org/2000/svg"
   xmlns="http://www.w3.org/2000/svg"
   viewBox="0 0 666.66669 666.66669"
   height="666.66669"
   width="666.66669"
   xml:space="preserve"
   id="svg2"
   version="1.1"><metadata
     id="metadata8"><rdf:RDF><cc:Work
         rdf:about=""><dc:format>image/svg+xml</dc:format><dc:type
           rdf:resource="http://purl.org/dc/dcmitype/StillImage" /></cc:Work></rdf:RDF></metadata><defs
     id="defs6"><clipPath
       id="clipPath32"
       clipPathUnits="userSpaceOnUse"><path
         id="path30"
         d="M 0,500 H 500 V 0 H 0 Z" /></clipPath><clipPath
       id="clipPath100"
       clipPathUnits="userSpaceOnUse"><path
         id="path98"
         d="M 0,500 H 500 V 0 H 0 Z" /></clipPath><clipPath
       id="clipPath112"
       clipPathUnits="userSpaceOnUse"><path
         id="path110"
         d="M 53.3988,417.652 H 447.198 V 169.81 H 53.3988 Z" /></clipPath><clipPath
       id="clipPath128"
       clipPathUnits="userSpaceOnUse"><path
         id="path126"
         d="M 0,500 H 500 V 0 H 0 Z" /></clipPath><clipPath
       id="clipPath140"
       clipPathUnits="userSpaceOnUse"><path
         id="path138"
         d="M 0,500 H 500 V 0 H 0 Z" /></clipPath><clipPath
       id="clipPath168"
       clipPathUnits="userSpaceOnUse"><path
         id="path166"
         d="M 0,500 H 500 V 0 H 0 Z" /></clipPath><clipPath
       id="clipPath200"
       clipPathUnits="userSpaceOnUse"><path
         id="path198"
         d="m 253.278,307.338 h 34.119 v -34.131 h -34.119 z" /></clipPath><clipPath
       id="clipPath292"
       clipPathUnits="userSpaceOnUse"><path
         id="path290"
         d="M 0,500 H 500 V 0 H 0 Z" /></clipPath><clipPath
       id="clipPath320"
       clipPathUnits="userSpaceOnUse"><path
         id="path318"
         d="m 289.895,224.359 h 2.514 v -28.636 h -2.514 z" /></clipPath><clipPath
       id="clipPath336"
       clipPathUnits="userSpaceOnUse"><path
         id="path334"
         d="m 282.389,240.007 h 5.809 v -8.766 h -5.809 z" /></clipPath><clipPath
       id="clipPath384"
       clipPathUnits="userSpaceOnUse"><path
         id="path382"
         d="m 303.469,202.778 h 41.635 V 87.762 h -41.635 z" /></clipPath><clipPath
       id="clipPath436"
       clipPathUnits="userSpaceOnUse"><path
         id="path434"
         d="m 116.939,118.822 h 17.116 V 85.3333 h -17.116 z" /></clipPath><clipPath
       id="clipPath464"
       clipPathUnits="userSpaceOnUse"><path
         id="path462"
         d="m 261.395,107.557 h 6.896 V 73.7477 h -6.896 z" /></clipPath><clipPath
       id="clipPath512"
       clipPathUnits="userSpaceOnUse"><path
         id="path510"
         d="M 0,500 H 500 V 0 H 0 Z" /></clipPath></defs><g
     transform="matrix(1.3333333,0,0,-1.3333333,0,666.66667)"
     id="g10"><path
       id="path12"
       style="fill:#ececec;fill-opacity:1;fill-rule:nonzero;stroke:none"
       d="m 0,117.352 h 500 v 0.249 H 0 Z" /><path
       id="path14"
       style="fill:#ececec;fill-opacity:1;fill-rule:nonzero;stroke:none"
       d="m 428.222,101.256 h 21.679 v 0.249 h -21.679 z" /><path
       id="path16"
       style="fill:#ececec;fill-opacity:1;fill-rule:nonzero;stroke:none"
       d="m 310.558,106.444 h 34.109 v 0.25 h -34.109 z" /><path
       id="path18"
       style="fill:#ececec;fill-opacity:1;fill-rule:nonzero;stroke:none"
       d="m 396.586,110.542 h 44.525 v 0.25 h -44.525 z" /><path
       id="path20"
       style="fill:#ececec;fill-opacity:1;fill-rule:nonzero;stroke:none"
       d="m 161.877,105.5 h 11.137 v 0.25 h -11.137 z" /><path
       id="path22"
       style="fill:#ececec;fill-opacity:1;fill-rule:nonzero;stroke:none"
       d="m 114.584,105.5 h 38.389 v 0.25 h -38.389 z" /><path
       id="path24"
       style="fill:#ececec;fill-opacity:1;fill-rule:nonzero;stroke:none"
       d="m 66.307,109.723 h 27.696 v 0.25 H 66.307 Z" /><g
       id="g26"><g
         clip-path="url(#clipPath32)"
         id="g28"><g
           transform="translate(43.915,444.7979)"
           id="g34"><path
             id="path36"
             style="fill:#ececec;fill-opacity:1;fill-rule:nonzero;stroke:none"
             d="M 0,0 C -3.01,0 -5.458,-2.449 -5.458,-5.458 V -276.89 c 0,-3.009 2.448,-5.458 5.458,-5.458 h 193.099 c 3.008,0 5.457,2.449 5.457,5.458 V -5.458 c 0,3.009 -2.449,5.458 -5.457,5.458 z M 193.099,-282.598 H 0 c -3.147,0 -5.708,2.561 -5.708,5.708 V -5.458 c 0,3.146 2.561,5.708 5.708,5.708 h 193.099 c 3.146,0 5.707,-2.562 5.707,-5.708 V -276.89 c 0,-3.147 -2.561,-5.708 -5.707,-5.708" /></g><g
           transform="translate(260.2119,444.7979)"
           id="g38"><path
             id="path40"
             style="fill:#ececec;fill-opacity:1;fill-rule:nonzero;stroke:none"
             d="M 0,0 C -3.009,0 -5.457,-2.449 -5.457,-5.458 V -276.89 c 0,-3.009 2.448,-5.458 5.457,-5.458 h 193.099 c 3.009,0 5.458,2.449 5.458,5.458 V -5.458 c 0,3.009 -2.449,5.458 -5.458,5.458 z M 193.099,-282.598 H 0 c -3.146,0 -5.707,2.561 -5.707,5.708 V -5.458 c 0,3.146 2.561,5.708 5.707,5.708 h 193.099 c 3.147,0 5.708,-2.562 5.708,-5.708 V -276.89 c 0,-3.147 -2.561,-5.708 -5.708,-5.708" /></g><g
           transform="translate(127.2761,256.5508)"
           id="g42"><path
             id="path44"
             style="fill:#ececec;fill-opacity:1;fill-rule:nonzero;stroke:none"
             d="M 0,0 C -28.778,0.986 -51.313,25.12 -50.327,53.899 -49.34,82.712 -25.206,105.245 3.572,104.26 32.351,103.273 54.885,79.142 53.898,50.328 52.912,21.549 28.778,-0.986 0,0 m 88.796,42.571 0.451,13.141 -8.068,2.636 c -0.332,4.49 -1.082,8.923 -2.151,13.196 l 6.838,5.042 -4.645,12.343 -8.459,-0.681 c -2.015,3.991 -4.385,7.787 -7.04,11.35 l 4.382,7.312 -9.009,9.611 -7.562,-3.872 c -3.406,2.895 -6.996,5.517 -10.839,7.835 l 1.225,8.394 -11.998,5.445 -5.497,-6.442 c -4.188,1.358 -8.528,2.375 -13.017,3.049 l -2.044,8.228 -13.176,0.451 -2.602,-8.068 c -4.525,-0.365 -8.923,-1.083 -13.195,-2.151 l -5.078,6.804 -12.342,-4.611 0.682,-8.46 c -3.992,-2.049 -7.788,-4.418 -11.35,-7.073 l -7.279,4.38 -9.645,-8.972 3.871,-7.596 c -2.893,-3.372 -5.516,-6.998 -7.801,-10.841 l -8.392,1.258 -5.479,-11.995 6.477,-5.499 c -1.358,-4.188 -2.411,-8.561 -3.05,-13.017 l -8.264,-2.077 -0.45,-13.141 8.102,-2.639 c 0.331,-4.523 1.084,-8.924 2.152,-13.194 l -6.837,-5.042 4.645,-12.345 8.458,0.684 c 2.016,-3.992 4.385,-7.788 7.04,-11.351 l -4.382,-7.312 9.009,-9.613 7.561,3.873 c 3.372,-2.893 6.997,-5.517 10.84,-7.836 l -1.26,-8.39 11.998,-5.446 5.532,6.442 c 4.188,-1.36 8.527,-2.376 13.017,-3.05 l 2.043,-8.227 13.176,-0.453 2.603,8.07 c 4.524,0.365 8.923,1.082 13.194,2.151 l 5.044,-6.804 12.342,4.612 -0.648,8.456 c 3.994,2.05 7.755,4.421 11.351,7.076 l 7.279,-4.382 9.645,8.973 -3.871,7.595 c 2.893,3.373 5.517,6.998 7.801,10.842 l 8.392,-1.26 5.479,11.998 -6.477,5.498 c 1.358,4.187 2.41,8.526 3.049,13.016 z" /></g><g
           transform="translate(417.3411,361.708)"
           id="g46"><path
             id="path48"
             style="fill:#ececec;fill-opacity:1;fill-rule:nonzero;stroke:none"
             d="M 0,0 C -2.438,2.611 -2.298,6.705 0.313,9.144 2.928,11.585 7.022,11.444 9.46,8.833 11.898,6.222 11.758,2.128 9.144,-0.313 6.532,-2.752 2.438,-2.611 0,0 m 23.616,-19.131 3.314,3.095 -1.324,2.609 c 1.014,1.176 1.912,2.441 2.693,3.742 l 2.897,-0.437 1.877,4.143 -2.229,1.895 c 0.482,1.465 0.83,2.969 1.051,4.485 l 2.852,0.714 0.147,4.541 -2.788,0.9 c -0.125,1.536 -0.361,3.05 -0.733,4.553 l 2.346,1.748 -1.598,4.253 -2.912,-0.23 c -0.69,1.352 -1.5,2.659 -2.43,3.918 l 1.508,2.505 -3.103,3.323 -2.602,-1.334 c -1.193,1.015 -2.44,1.912 -3.742,2.693 l 0.421,2.898 -4.134,1.886 -1.897,-2.23 c -1.473,0.474 -2.976,0.821 -4.492,1.043 L 8.031,34.425 3.491,34.589 2.583,31.793 C 1.055,31.676 -0.468,31.432 -1.963,31.052 l -1.739,2.352 -4.261,-1.589 0.238,-2.919 c -1.352,-0.691 -2.675,-1.5 -3.918,-2.431 l -2.521,1.509 -3.314,-3.095 1.332,-2.619 c -1.022,-1.184 -1.912,-2.441 -2.693,-3.742 l -2.896,0.438 -1.878,-4.143 2.229,-1.896 c -0.481,-1.465 -0.83,-2.969 -1.051,-4.484 l -2.851,-0.715 -0.148,-4.541 2.789,-0.899 c 0.116,-1.528 0.36,-3.051 0.732,-4.554 l -2.353,-1.739 1.598,-4.254 2.919,0.222 c 0.69,-1.352 1.5,-2.658 2.431,-3.917 l -1.508,-2.505 3.102,-3.323 2.603,1.333 c 1.192,-1.014 2.439,-1.912 3.742,-2.692 l -0.43,-2.889 4.134,-1.886 1.904,2.22 c 1.474,-0.474 2.969,-0.813 4.494,-1.042 l 0.706,-2.844 4.54,-0.163 0.908,2.796 c 1.528,0.116 3.052,0.36 4.546,0.741 l 1.739,-2.353 4.262,1.589 -0.239,2.92 c 1.352,0.69 2.667,1.492 3.918,2.43 z" /></g><g
           transform="translate(251.5371,174.2744)"
           id="g50"><path
             id="path52"
             style="fill:#ececec;fill-opacity:1;fill-rule:nonzero;stroke:none"
             d="M 0,0 C -13.654,0.468 -24.32,11.931 -23.854,25.546 -23.386,39.2 -11.962,49.867 1.692,49.399 15.347,48.932 26.014,37.508 25.546,23.854 25.08,10.238 13.654,-0.468 0,0 m 68.452,33.39 -10.341,7.141 c -0.003,0.007 -0.003,0.017 -0.006,0.025 -1.022,3.757 -2.434,7.373 -4.159,10.771 L 56.595,61.725 41.596,77.79 31.037,75.856 c -3.269,1.952 -6.779,3.606 -10.454,4.883 -0.008,0.002 -0.018,0.004 -0.026,0.008 l -6.42,10.81 -21.964,0.753 -7.142,-10.341 c -0.013,-0.004 -0.028,-0.007 -0.041,-0.011 -3.753,-1.022 -7.365,-2.431 -10.76,-4.153 l -10.393,2.649 -16.064,-15.001 1.929,-10.537 c -0.002,-0.004 -0.004,-0.006 -0.006,-0.01 -1.992,-3.306 -3.607,-6.817 -4.884,-10.493 L -65.996,37.996 -66.749,16.03 -56.398,8.883 c 1.021,-3.783 2.389,-7.391 4.147,-10.819 10e-4,-0.001 10e-4,-0.001 10e-4,-0.003 l -2.641,-10.367 14.999,-16.062 10.494,1.92 c 3.312,-1.958 6.825,-3.614 10.546,-4.893 0.002,-0.002 0.005,-0.003 0.009,-0.003 l 6.409,-10.794 21.965,-0.753 7.136,10.334 c 3.798,1.022 7.416,2.432 10.852,4.159 0.001,0 0.002,0 0.003,0.002 l 10.345,-2.636 16.064,14.998 -1.929,10.54 c 1.992,3.306 3.608,6.819 4.885,10.495 0,0 0,0.002 10e-4,0.002 L 67.7,11.424 Z" /></g><g
           transform="translate(336.6899,352.8799)"
           id="g54"><path
             id="path56"
             style="fill:#ececec;fill-opacity:1;fill-rule:nonzero;stroke:none"
             d="m 0,0 c -14.698,0 -26.9,-11.695 -27.407,-26.496 -0.518,-15.118 11.36,-27.839 26.479,-28.358 7.325,-0.245 14.311,2.369 19.668,7.377 5.353,5.004 8.439,11.789 8.69,19.102 C 27.947,-13.257 16.069,-0.535 0.951,-0.017 0.633,-0.006 0.315,0 0,0 m 0.038,-59.094 c -0.37,0 -0.739,0.007 -1.111,0.02 -17.446,0.597 -31.153,15.277 -30.555,32.722 C -31.03,-8.906 -16.327,4.797 1.095,4.204 18.541,3.606 32.248,-11.073 31.65,-28.52 31.361,-36.96 27.8,-44.788 21.624,-50.562 15.713,-56.087 8.084,-59.094 0.038,-59.094 m 15.513,75.847 h 0.01 z m -24.783,-94.812 15.009,-0.514 4.971,7.198 c 0.284,0.411 0.705,0.709 1.189,0.839 2.764,0.743 5.508,1.795 8.154,3.126 0.005,0.002 0.01,0.004 0.014,0.007 0.441,0.216 0.955,0.284 1.458,0.153 l 7.039,-1.793 10.976,10.249 -1.313,7.174 c -0.093,0.506 0.003,1.028 0.268,1.47 1.448,2.403 2.676,5.039 3.651,7.834 0.16,0.496 0.499,0.913 0.941,1.172 l 7.522,4.468 0.515,15.01 -7.204,4.975 c -0.376,0.259 -0.658,0.635 -0.803,1.069 -0.018,0.054 -0.034,0.111 -0.049,0.169 -0.753,2.758 -1.8,5.468 -3.114,8.055 -0.232,0.457 -0.289,0.981 -0.163,1.477 l 1.804,7.078 -10.25,10.979 -7.189,-1.317 c -0.504,-0.092 -1.023,0.002 -1.462,0.264 -2.5,1.492 -5.14,2.725 -7.846,3.666 -0.153,0.053 -0.308,0.124 -0.441,0.205 -0.292,0.18 -0.535,0.427 -0.709,0.721 l -4.472,7.529 -15.01,0.515 -4.974,-7.204 c -0.296,-0.429 -0.739,-0.732 -1.243,-0.853 -2.777,-0.761 -5.478,-1.805 -8.054,-3.112 -0.457,-0.232 -0.983,-0.29 -1.477,-0.163 l -7.075,1.803 -10.977,-10.251 1.313,-7.172 c 0.082,-0.451 0.016,-0.915 -0.189,-1.325 -0.029,-0.057 -0.06,-0.114 -0.095,-0.17 -1.451,-2.412 -2.681,-5.055 -3.654,-7.859 -0.164,-0.47 -0.489,-0.868 -0.917,-1.122 l -7.528,-4.471 -0.514,-15.008 7.21,-4.98 c 0.411,-0.283 0.708,-0.704 0.838,-1.186 0.777,-2.876 1.824,-5.607 3.11,-8.118 0.075,-0.143 0.132,-0.296 0.171,-0.454 0.085,-0.339 0.085,-0.694 -0.002,-1.033 l -1.798,-7.054 10.25,-10.975 7.138,1.305 c 0.502,0.091 1.018,-0.002 1.455,-0.259 2.545,-1.505 5.198,-2.738 7.887,-3.665 0.486,-0.155 0.907,-0.483 1.175,-0.934 z m 16.09,-4.775 c -0.024,0 -0.047,0 -0.072,0.001 l -17.317,0.593 c -0.719,0.024 -1.376,0.414 -1.743,1.032 l -4.663,7.853 c -2.479,0.899 -4.922,2.033 -7.282,3.377 l -7.507,-1.373 c -0.709,-0.133 -1.432,0.11 -1.923,0.636 l -11.826,12.663 c -0.491,0.527 -0.68,1.266 -0.503,1.963 l 1.888,7.41 c -1.147,2.347 -2.107,4.854 -2.859,7.47 l -7.531,5.201 c -0.592,0.408 -0.935,1.091 -0.911,1.81 l 0.594,17.317 c 0.024,0.719 0.413,1.376 1.032,1.743 l 7.866,4.671 c 0.933,2.554 2.064,4.986 3.37,7.248 l -1.38,7.533 c -0.129,0.707 0.111,1.433 0.636,1.923 l 12.665,11.827 c 0.526,0.493 1.266,0.68 1.963,0.503 l 7.435,-1.895 c 2.405,1.17 4.904,2.134 7.449,2.871 l 5.197,7.525 c 0.408,0.592 1.079,0.958 1.809,0.911 l 17.317,-0.594 c 0.719,-0.025 1.376,-0.413 1.743,-1.032 l 4.673,-7.867 c 2.481,-0.909 4.906,-2.04 7.226,-3.372 l 7.554,1.384 c 0.709,0.129 1.432,-0.11 1.924,-0.636 L 45.507,3.196 C 45.998,2.67 46.188,1.931 46.01,1.233 l -1.895,-7.437 c 1.171,-2.406 2.134,-4.904 2.871,-7.446 l 7.525,-5.197 c 0.593,-0.408 0.935,-1.09 0.911,-1.809 l -0.593,-17.319 c -0.025,-0.718 -0.414,-1.376 -1.033,-1.743 l -7.869,-4.673 c -0.932,-2.552 -2.062,-4.983 -3.366,-7.243 l 1.379,-7.536 c 0.13,-0.707 -0.11,-1.433 -0.636,-1.923 L 30.64,-72.917 c -0.526,-0.492 -1.264,-0.682 -1.963,-0.503 l -7.401,1.886 c -2.44,-1.178 -4.952,-2.141 -7.488,-2.87 l -5.192,-7.519 c -0.395,-0.571 -1.045,-0.911 -1.738,-0.911" /></g><g
           transform="translate(383.439,394.6768)"
           id="g58"><path
             id="path60"
             style="fill:#e1e1e1;fill-opacity:1;fill-rule:nonzero;stroke:none"
             d="M 0,0 -7.174,1.927 -9.1,9.1 -6.291,11.908 -3.328,5.771 2.809,2.809 Z" /></g><g
           transform="translate(383.8845,399.4785)"
           id="g62"><path
             id="path64"
             style="fill:#e1e1e1;fill-opacity:1;fill-rule:nonzero;stroke:none"
             d="M 0,0 C 1.307,1.307 1.307,3.437 0,4.744 -1.307,6.05 -3.427,6.041 -4.734,4.734 L -1.166,10.087 3.619,7.668 4.668,2.64 Z" /></g><g
           transform="translate(386.1272,401.7207)"
           id="g66"><path
             id="path68"
             style="fill:#f0f0f0;fill-opacity:1;fill-rule:nonzero;stroke:none"
             d="M 0,0 C 1.307,1.307 1.307,3.438 0,4.744 -1.307,6.051 -3.427,6.041 -4.734,4.734 -6.041,3.428 -6.041,1.316 -4.734,0.01 -3.427,-1.297 -1.307,-1.307 0,0 m -9.545,4.298 5.256,5.257 7.174,-1.926 1.926,-7.174 -5.257,-5.257 -7.173,1.927 z" /></g><g
           transform="translate(90.2209,203.292)"
           id="g70"><path
             id="path72"
             style="fill:#e1e1e1;fill-opacity:1;fill-rule:nonzero;stroke:none"
             d="M 0,0 3.849,1.034 4.883,4.883 3.376,6.39 1.786,3.098 -1.507,1.507 Z" /></g><g
           transform="translate(89.9817,205.8682)"
           id="g74"><path
             id="path76"
             style="fill:#e1e1e1;fill-opacity:1;fill-rule:nonzero;stroke:none"
             d="M 0,0 C -0.701,0.702 -0.701,1.845 0,2.546 0.701,3.247 1.839,3.242 2.541,2.541 L 0.626,5.413 -1.942,4.115 -2.505,1.417 Z" /></g><g
           transform="translate(88.7783,207.0723)"
           id="g78"><path
             id="path80"
             style="fill:#f0f0f0;fill-opacity:1;fill-rule:nonzero;stroke:none"
             d="M 0,0 C -0.701,0.701 -0.701,1.844 0,2.545 0.701,3.246 1.839,3.241 2.541,2.54 3.242,1.839 3.242,0.706 2.541,0.005 1.839,-0.696 0.701,-0.701 0,0 m 5.122,2.306 -2.821,2.821 -3.849,-1.033 -1.034,-3.85 2.821,-2.821 3.85,1.034 z" /></g><g
           transform="translate(76.3625,414.3379)"
           id="g82"><path
             id="path84"
             style="fill:#f0f0f0;fill-opacity:1;fill-rule:nonzero;stroke:none"
             d="m 0,0 3.195,-3.195 c 0.832,-0.832 2.193,-0.832 3.025,0 0.832,0.832 0.832,2.193 0,3.025 L 3.025,3.024 C 2.193,3.856 0.832,3.856 0,3.024 -0.832,2.192 -0.832,0.831 0,0" /></g><g
           transform="translate(74.1118,422.2949)"
           id="g86"><path
             id="path88"
             style="fill:#e1e1e1;fill-opacity:1;fill-rule:nonzero;stroke:none"
             d="M 0,0 C 2.462,0.884 5.131,-0.272 5.961,-2.584 6.791,-4.895 5.468,-7.484 3.006,-8.369 0.544,-9.253 -2.125,-8.097 -2.955,-5.786 -3.785,-3.475 -2.462,-0.885 0,0" /></g><g
           transform="translate(70.6296,417.0479)"
           id="g90"><path
             id="path92"
             style="fill:#f0f0f0;fill-opacity:1;fill-rule:nonzero;stroke:none"
             d="M 0,0 0.463,-1.29 9.97,2.125 9.507,3.414 Z" /></g></g></g><g
       id="g94"><g
         clip-path="url(#clipPath100)"
         id="g96"><g
           transform="translate(418.9106,374.5762)"
           id="g102"><path
             id="path104"
             style="fill:#007cff;fill-opacity:1;fill-rule:nonzero;stroke:none"
             d="m 0,0 c 39.287,-31.84 35.519,-75.55 1.844,-100.469 -16.15,-11.951 -48.669,-9.635 -67.166,-18.071 -24.13,-11.006 -36.378,-31.39 -54.869,-47.664 -45.994,-40.48 -60.954,-20.469 -113.319,-20.999 -36.815,-0.373 -71.812,-31.403 -108.696,-10.097 -45.078,26.039 -17.163,78.178 19.643,98.308 42.272,23.12 15.678,77.47 76.484,117.507 C -186.264,57.899 -58.35,48.613 0,0" /></g><g
           id="g106"><g
             id="g108" /><g
             id="g120"><g
               style="opacity:0.89999402"
               id="g118"
               clip-path="url(#clipPath112)"><g
                 id="g116"
                 transform="translate(418.9106,374.5762)"><path
                   id="path114"
                   style="fill:#ffffff;fill-opacity:1;fill-rule:nonzero;stroke:none"
                   d="m 0,0 c 39.287,-31.84 35.519,-75.55 1.844,-100.469 -16.15,-11.951 -48.669,-9.635 -67.166,-18.071 -24.13,-11.006 -36.378,-31.39 -54.869,-47.664 -45.994,-40.48 -60.954,-20.469 -113.319,-20.999 -36.815,-0.373 -71.812,-31.403 -108.696,-10.097 -45.078,26.039 -17.163,78.178 19.643,98.308 42.272,23.12 15.678,77.47 76.484,117.507 C -186.264,57.899 -58.35,48.613 0,0" /></g></g></g></g></g></g><g
       id="g122"><g
         clip-path="url(#clipPath128)"
         id="g124"><g
           transform="translate(443.8894,83.7617)"
           id="g130"><path
             id="path132"
             style="fill:#f5f5f5;fill-opacity:1;fill-rule:nonzero;stroke:none"
             d="m 0,0 c 0,-6.254 -86.807,-11.323 -193.889,-11.323 -107.082,0 -193.889,5.069 -193.889,11.323 0,6.254 86.807,11.323 193.889,11.323 C -86.807,11.323 0,6.254 0,0" /></g></g></g><g
       id="g134"><g
         clip-path="url(#clipPath140)"
         id="g136"><g
           transform="translate(95.0598,381.2109)"
           id="g142"><path
             id="path144"
             style="fill:#1a2e35;fill-opacity:1;fill-rule:nonzero;stroke:none"
             d="m 0,0 c 0.619,-2.724 1.57,-4.565 2.853,-5.524 1.282,-0.961 2.794,-1.242 4.536,-0.845 1.791,0.406 3.045,1.304 3.761,2.692 0.717,1.389 0.732,3.592 0.046,6.61 C 10.619,5.472 9.685,7.211 8.394,8.15 7.104,9.088 5.581,9.358 3.827,8.959 2.146,8.577 0.932,7.675 0.185,6.254 -0.563,4.832 -0.625,2.748 0,0 m -8.344,-1.857 c -1.001,4.403 -0.554,8.11 1.342,11.123 1.895,3.01 5.033,5.013 9.413,6.009 4.489,1.021 8.222,0.602 11.199,-1.256 2.977,-1.859 4.959,-4.958 5.947,-9.301 0.716,-3.154 0.774,-5.86 0.172,-8.118 -0.603,-2.26 -1.78,-4.179 -3.53,-5.757 -1.751,-1.579 -4.123,-2.707 -7.116,-3.388 -3.042,-0.692 -5.67,-0.78 -7.884,-0.265 -2.214,0.516 -4.178,1.682 -5.894,3.499 -1.716,1.816 -2.932,4.3 -3.649,7.454" /></g><g
           transform="translate(126.0969,384.377)"
           id="g146"><path
             id="path148"
             style="fill:#1a2e35;fill-opacity:1;fill-rule:nonzero;stroke:none"
             d="m 0,0 c 0.396,-1.741 1.041,-2.949 1.937,-3.624 0.894,-0.674 1.876,-0.889 2.943,-0.647 1.079,0.247 1.872,0.859 2.378,1.838 0.507,0.98 0.554,2.377 0.141,4.192 C 7.014,3.452 6.377,4.634 5.49,5.303 4.603,5.972 3.644,6.189 2.613,5.955 1.521,5.707 0.715,5.081 0.195,4.079 -0.326,3.078 -0.391,1.718 0,0 m -7.504,-1.725 c -0.678,2.981 -0.23,5.666 1.343,8.056 1.572,2.39 4.07,3.974 7.493,4.751 3.913,0.89 7.127,0.428 9.643,-1.388 2.022,-1.463 3.338,-3.531 3.945,-6.205 0.684,-3.007 0.247,-5.695 -1.31,-8.068 -1.557,-2.373 -4.096,-3.96 -7.617,-4.76 -3.14,-0.714 -5.861,-0.495 -8.161,0.66 -2.83,1.434 -4.608,3.752 -5.336,6.954" /></g><g
           transform="translate(152.1936,390.291)"
           id="g150"><path
             id="path152"
             style="fill:#1a2e35;fill-opacity:1;fill-rule:nonzero;stroke:none"
             d="m 0,0 c 0.351,-1.546 0.937,-2.619 1.757,-3.22 0.821,-0.6 1.727,-0.787 2.721,-0.561 0.871,0.198 1.52,0.722 1.945,1.574 0.426,0.852 0.444,2.136 0.053,3.853 C 6.116,3.229 5.545,4.321 4.763,4.924 3.981,5.527 3.148,5.728 2.265,5.527 1.309,5.31 0.596,4.753 0.128,3.861 -0.339,2.967 -0.382,1.681 0,0 m -3.609,-18.857 -6.133,26.976 7.011,1.595 0.657,-2.889 c 0.693,1.434 1.395,2.457 2.107,3.071 0.961,0.825 2.104,1.388 3.429,1.689 2.613,0.595 4.861,0.054 6.745,-1.62 1.884,-1.675 3.16,-3.985 3.83,-6.929 0.739,-3.251 0.524,-5.909 -0.645,-7.974 C 12.223,-7.004 10.448,-8.308 8.068,-8.849 6.916,-9.11 5.819,-9.153 4.779,-8.977 3.739,-8.8 2.757,-8.411 1.833,-7.809 l 2.121,-9.329 z" /></g><g
           transform="translate(169.4348,389.7012)"
           id="g154"><path
             id="path156"
             style="fill:#1a2e35;fill-opacity:1;fill-rule:nonzero;stroke:none"
             d="M 0,0 7.275,2.39 C 7.782,1.576 8.355,1.042 8.994,0.786 9.632,0.532 10.412,0.509 11.332,0.718 c 1.005,0.229 1.736,0.62 2.19,1.175 0.357,0.416 0.481,0.862 0.373,1.34 C 13.772,3.772 13.396,4.125 12.765,4.29 12.313,4.406 11.18,4.419 9.369,4.33 6.665,4.191 4.764,4.201 3.664,4.356 2.563,4.514 1.562,4.972 0.661,5.733 c -0.902,0.761 -1.487,1.732 -1.755,2.908 -0.292,1.287 -0.17,2.48 0.366,3.582 0.537,1.101 1.409,2.032 2.618,2.79 1.208,0.758 2.916,1.387 5.124,1.889 2.331,0.531 4.091,0.743 5.283,0.64 1.191,-0.104 2.243,-0.445 3.155,-1.024 0.912,-0.58 1.758,-1.452 2.539,-2.617 L 11.047,11.587 C 10.721,12.172 10.31,12.562 9.814,12.758 9.135,13.018 8.379,13.053 7.545,12.862 6.699,12.67 6.117,12.38 5.798,11.992 5.48,11.604 5.37,11.195 5.467,10.767 5.576,10.289 5.903,9.983 6.45,9.851 6.996,9.716 8.113,9.739 9.802,9.917 c 2.554,0.283 4.496,0.312 5.824,0.086 1.329,-0.226 2.421,-0.732 3.277,-1.517 0.856,-0.785 1.41,-1.735 1.664,-2.85 C 20.823,4.508 20.732,3.334 20.294,2.113 19.855,0.893 18.975,-0.2 17.652,-1.165 16.33,-2.128 14.405,-2.898 11.878,-3.474 8.309,-4.285 5.65,-4.353 3.904,-3.68 2.157,-3.006 0.856,-1.779 0,0" /></g><g
           transform="translate(194.2495,393.5459)"
           id="g158"><path
             id="path160"
             style="fill:#1a2e35;fill-opacity:1;fill-rule:nonzero;stroke:none"
             d="M 0,0 7.661,0.043 7.7,-6.73 0.039,-6.774 Z M -0.401,20.888 7.808,20.935 7.843,14.631 6.33,1.96 1.253,1.932 -0.365,14.585 Z" /></g></g></g><g
       id="g162"><g
         clip-path="url(#clipPath168)"
         id="g164"><g
           transform="translate(109.2676,352.252)"
           id="g170"><path
             id="path172"
             style="fill:#1a2e35;fill-opacity:1;fill-rule:nonzero;stroke:none"
             d="m 0,0 c -0.168,-0.155 -0.655,-0.785 -1.352,-3.221 -0.919,-3.213 -0.353,-6.143 0.727,-8.246 0.208,0.434 0.351,0.934 0.45,1.403 C 0.863,-5.154 0.561,-0.711 0,0 M 6.586,-3.15 C 6.328,-3.636 5.894,-4.635 5.246,-6.68 4.388,-9.388 4.383,-11.563 4.861,-13.228 c 0.034,0.084 0.065,0.168 0.093,0.251 1.177,3.439 1.75,8.175 1.632,9.827 m 7.172,-4.213 c -0.003,0 -0.565,-0.004 -1.827,-2.347 -1.446,-2.685 -1.815,-4.894 -1.127,-6.757 0.084,-0.227 0.183,-0.45 0.3,-0.67 0.534,0.229 0.991,0.601 1.321,1.105 1.4,2.14 2.071,6.538 1.55,8.257 -0.106,0.351 -0.216,0.412 -0.217,0.412 m 5.655,-16.47 c -0.06,0 -0.121,0.011 -0.181,0.034 -4.501,1.743 -7.194,3.446 -8.592,5.492 -1.016,-0.204 -2.154,-0.069 -3.232,0.445 -1.049,0.498 -2.057,1.369 -2.781,2.622 -0.675,-0.521 -1.509,-0.663 -2.425,-0.375 -1.016,0.319 -2.073,1.175 -2.952,2.411 -0.559,-0.404 -1.132,-0.465 -1.553,-0.43 -2.973,0.242 -7.001,6.16 -7.29,12.467 -0.013,0.275 0.2,0.51 0.476,0.521 0.27,0.024 0.51,-0.2 0.523,-0.476 0.274,-5.985 4.109,-11.331 6.372,-11.515 0.367,-0.036 0.675,0.079 0.932,0.28 -1.358,2.382 -2.063,5.781 -1.023,9.412 0.86,3.005 1.62,4.179 2.532,3.962 1.723,-0.429 1.497,-6.972 0.585,-11.288 -0.207,-0.979 -0.506,-1.681 -0.846,-2.183 0.79,-1.165 1.724,-1.949 2.543,-2.207 0.732,-0.23 1.274,-0.035 1.674,0.346 -0.786,1.935 -0.948,4.574 0.118,7.938 1.404,4.429 1.969,4.549 2.307,4.62 0.238,0.051 0.475,-0.028 0.644,-0.22 C 8.168,-3.02 7.064,-9.898 5.9,-13.301 5.749,-13.743 5.562,-14.13 5.343,-14.458 c 0.621,-1.217 1.536,-2.046 2.493,-2.501 0.768,-0.365 1.556,-0.498 2.273,-0.431 -0.09,0.19 -0.171,0.381 -0.243,0.577 -0.793,2.147 -0.406,4.625 1.184,7.578 1.055,1.958 1.916,2.871 2.708,2.872 h 0.001 c 0.235,0 0.675,-0.087 0.986,-0.662 0.872,-1.61 0.241,-6.919 -1.483,-9.554 -0.406,-0.621 -0.967,-1.092 -1.617,-1.399 1.339,-1.761 3.883,-3.314 7.948,-4.889 0.258,-0.1 0.386,-0.389 0.286,-0.647 -0.077,-0.198 -0.266,-0.319 -0.466,-0.319" /></g><g
           transform="translate(169.3003,287.1875)"
           id="g174"><path
             id="path176"
             style="fill:#1a2e35;fill-opacity:1;fill-rule:nonzero;stroke:none"
             d="m 0,0 c 0.056,-0.156 0.278,-0.567 1.166,-1.388 1.486,-1.374 2.838,-1.985 4.131,-1.843 0.106,0.01 0.213,0.026 0.32,0.047 C 5.546,-2.88 5.401,-2.599 5.183,-2.358 3.775,-0.816 0.683,0.16 0,0 m -3.49,-4.249 c 0.336,-0.248 0.818,-0.576 1.506,-1.007 1.357,-0.848 2.567,-1.24 3.6,-1.322 -1.657,1.027 -3.824,1.936 -5.106,2.329 m 0.888,-6.936 c -1.525,0 -3.129,0.348 -4.562,1.189 -0.238,0.141 -0.317,0.446 -0.178,0.684 0.139,0.24 0.446,0.317 0.684,0.179 3.568,-2.095 8.179,-0.633 9.128,0.893 0.11,0.178 0.211,0.406 0.147,0.671 -1.411,-0.15 -3.147,0.224 -5.131,1.465 -2.545,1.591 -2.741,2.064 -2.725,2.443 0.01,0.223 0.137,0.419 0.341,0.523 0.995,0.505 5.505,-1.574 7.385,-2.809 0.246,-0.162 0.453,-0.337 0.621,-0.523 0.832,0.202 1.475,0.632 1.903,1.146 0.294,0.352 0.49,0.737 0.588,1.122 C 5.532,-4.212 5.465,-4.22 5.398,-4.227 3.8,-4.388 2.196,-3.701 0.487,-2.122 c -1.174,1.085 -1.63,1.833 -1.478,2.426 0.049,0.188 0.207,0.525 0.719,0.653 1.383,0.344 4.797,-1.111 6.193,-2.642 0.315,-0.343 0.528,-0.749 0.642,-1.183 1.305,0.613 2.685,1.988 4.319,4.271 0.161,0.225 0.472,0.277 0.698,0.116 C 11.804,1.358 11.856,1.046 11.695,0.821 9.806,-1.818 8.231,-3.314 6.649,-3.925 6.587,-4.629 6.296,-5.345 5.78,-5.965 5.273,-6.572 4.534,-7.094 3.599,-7.376 c 0.099,-0.45 0.009,-0.926 -0.28,-1.392 -0.843,-1.357 -3.261,-2.417 -5.921,-2.417" /></g><g
           transform="translate(101.0938,263.0518)"
           id="g178"><path
             id="path180"
             style="fill:#007cff;fill-opacity:1;fill-rule:nonzero;stroke:none"
             d="M 0,0 25.959,45.567 33.203,6.031 Z M 78.848,14.323 63.266,11.493 49.12,88.705 19.056,83.244 -29.933,-3.755 l 5.26,-28.708 62.837,11.414 4.303,-23.48 30.063,5.461 -4.302,23.48 15.582,2.831 z" /></g><g
           transform="translate(305.4304,357.0088)"
           id="g182"><path
             id="path184"
             style="fill:#007cff;fill-opacity:1;fill-rule:nonzero;stroke:none"
             d="m 0,0 c -0.582,5.334 -1.647,10.073 -3.197,14.218 -1.55,4.144 -3.88,8.208 -6.99,12.189 -3.11,3.982 -7.345,7.437 -12.704,10.366 -5.36,2.928 -12.434,4.967 -21.223,6.113 -18.292,2.383 -32.551,-0.865 -42.781,-9.74 -10.232,-8.877 -16.963,-25.881 -20.198,-51.012 -1.316,-10.221 -1.642,-19.669 -0.977,-28.345 0.663,-8.675 2.255,-15.652 4.778,-20.933 3.451,-7.419 8.335,-13.343 14.649,-17.771 6.313,-4.429 14.962,-7.36 25.95,-8.792 19.596,-2.553 34.119,1.209 43.569,11.288 9.448,10.077 15.717,27.111 18.805,51.101 C 1.059,-20.617 1.164,-10.178 0,0" /></g><g
           transform="translate(251.7656,273.5674)"
           id="g186"><path
             id="path188"
             style="fill:#1a2e35;fill-opacity:1;fill-rule:nonzero;stroke:none"
             d="m 0,0 c -2.405,0.082 -4.964,0.299 -7.607,0.644 -9.155,1.191 -16.238,3.508 -21.054,6.887 -4.751,3.332 -8.346,7.716 -10.992,13.406 l -0.049,0.103 c -1.923,4.023 -3.179,9.754 -3.735,17.028 -0.605,7.888 -0.296,16.67 0.919,26.103 3.569,27.721 10.941,39.287 16.497,44.107 6.478,5.62 15.22,8.16 26.729,7.766 2.358,-0.08 4.855,-0.291 7.422,-0.625 7.386,-0.962 13.23,-2.597 17.37,-4.857 4.009,-2.192 7.142,-4.71 9.31,-7.486 2.404,-3.076 4.205,-6.194 5.354,-9.268 1.223,-3.271 2.086,-7.16 2.565,-11.558 C 43.794,72.94 43.694,63.296 42.436,53.528 39.663,31.989 34.307,16.855 26.516,8.547 20.737,2.382 12.064,-0.414 0.002,-0.001 0.001,0 0,0 0,0" /></g><g
           transform="translate(245.7412,344.4424)"
           id="g190"><path
             id="path192"
             style="fill:#007cff;fill-opacity:1;fill-rule:nonzero;stroke:none"
             d="m 0,0 c -8.295,0.284 -14.791,7.24 -14.507,15.536 0.285,8.305 7.241,14.8 15.537,14.516 C 9.325,29.768 15.82,22.812 15.536,14.507 15.251,6.211 8.295,-0.284 0,0 m 25.595,12.271 0.13,3.788 -2.326,0.759 c -0.095,1.294 -0.312,2.573 -0.62,3.804 l 1.971,1.453 -1.339,3.558 -2.438,-0.196 c -0.581,1.15 -1.264,2.245 -2.029,3.271 l 1.263,2.108 -2.597,2.77 -2.179,-1.115 c -0.982,0.834 -2.017,1.59 -3.125,2.258 l 0.353,2.419 -3.458,1.57 -1.585,-1.858 c -1.207,0.392 -2.458,0.686 -3.751,0.879 l -0.59,2.372 -3.798,0.13 -0.75,-2.325 c -1.304,-0.105 -2.572,-0.312 -3.803,-0.62 l -1.464,1.961 -3.557,-1.329 0.196,-2.439 c -1.151,-0.591 -2.245,-1.273 -3.272,-2.039 l -2.098,1.263 -2.78,-2.586 1.116,-2.19 c -0.834,-0.971 -1.59,-2.016 -2.248,-3.125 l -2.419,0.364 -1.58,-3.458 1.867,-1.585 c -0.391,-1.208 -0.695,-2.468 -0.879,-3.752 l -2.382,-0.599 -0.13,-3.788 2.336,-0.761 c 0.095,-1.303 0.312,-2.572 0.62,-3.802 l -1.971,-1.454 1.339,-3.558 2.438,0.196 c 0.581,-1.15 1.264,-2.244 2.029,-3.271 l -1.263,-2.108 2.597,-2.77 2.18,1.116 c 0.972,-0.834 2.016,-1.591 3.124,-2.259 l -0.363,-2.419 3.458,-1.569 1.595,1.856 c 1.207,-0.391 2.458,-0.684 3.752,-0.878 l 0.589,-2.373 3.798,-0.129 0.75,2.326 c 1.304,0.105 2.572,0.311 3.803,0.62 l 1.454,-1.961 3.558,1.329 -0.187,2.438 c 1.151,0.59 2.235,1.274 3.272,2.039 l 2.098,-1.263 2.78,2.587 -1.116,2.188 c 0.834,0.973 1.59,2.018 2.249,3.125 l 2.419,-0.363 1.579,3.459 -1.867,1.585 c 0.392,1.207 0.695,2.457 0.879,3.752 z" /></g><g
           id="g194"><g
             id="g196" /><g
             id="g208"><g
               style="opacity:0.30000299"
               id="g206"
               clip-path="url(#clipPath200)"><g
                 id="g204"
                 transform="translate(274.2485,288.126)"><path
                   id="path202"
                   style="fill:#007cff;fill-opacity:1;fill-rule:nonzero;stroke:none"
                   d="M 0,0 C -1.186,-2.16 -3.905,-2.956 -6.064,-1.771 -8.223,-0.584 -9.008,2.134 -7.822,4.293 -6.637,6.452 -3.93,7.237 -1.77,6.052 0.389,4.866 1.186,2.159 0,0 m 12.874,-0.991 0.275,2.553 -1.535,0.626 c -0.006,0.877 -0.081,1.747 -0.227,2.594 l 1.399,0.889 -0.711,2.47 -1.662,-0.014 c -0.335,0.808 -0.73,1.582 -1.196,2.311 l 0.947,1.361 -1.605,1.997 -1.531,-0.638 C 6.416,13.765 5.757,14.325 5.037,14.829 L 5.408,16.456 3.157,17.691 1.981,16.503 C 1.174,16.847 0.34,17.098 -0.496,17.29 l -0.283,1.636 -2.553,0.286 -0.626,-1.534 c -0.878,-0.006 -1.736,-0.093 -2.595,-0.24 l -0.887,1.413 -2.471,-0.724 0.013,-1.662 c -0.796,-0.335 -1.57,-0.731 -2.311,-1.196 l -1.36,0.96 -1.998,-1.606 0.639,-1.531 c -0.595,-0.613 -1.168,-1.272 -1.672,-1.991 l -1.615,0.36 -1.235,-2.252 1.177,-1.163 c -0.332,-0.82 -0.594,-1.643 -0.787,-2.49 l -1.636,-0.272 -0.275,-2.553 1.534,-0.637 c -0.006,-0.866 0.082,-1.736 0.228,-2.583 l -1.411,-0.888 0.723,-2.471 1.661,0.002 c 0.336,-0.796 0.731,-1.57 1.197,-2.3 l -0.959,-1.359 1.604,-2.01 1.544,0.65 c 0.611,-0.606 1.271,-1.167 1.991,-1.671 l -0.372,-1.626 2.252,-1.236 1.175,1.177 c 0.808,-0.332 1.642,-0.584 2.478,-0.775 l 0.283,-1.637 2.553,-0.286 0.626,1.535 c 0.866,0.005 1.735,0.092 2.594,0.238 l 0.888,-1.411 2.459,0.724 -10e-4,1.661 c 0.795,0.336 1.569,0.731 2.311,1.196 l 1.348,-0.959 2.009,1.605 -0.649,1.532 c 0.606,0.611 1.166,1.271 1.683,1.99 l 1.614,-0.359 1.236,2.251 -1.177,1.164 c 0.332,0.819 0.582,1.642 0.775,2.478 z" /></g></g></g></g><g
           transform="translate(281.5586,320.7266)"
           id="g210"><path
             id="path212"
             style="fill:#ffffff;fill-opacity:1;fill-rule:nonzero;stroke:none"
             d="m 0,0 c -3.936,0.135 -7.01,3.438 -6.875,7.363 0.134,3.936 3.427,7.011 7.363,6.876 C 4.424,14.104 7.498,10.812 7.364,6.875 7.229,2.951 3.936,-0.135 0,0 m 19.731,9.624 -2.981,2.059 c 0,0.002 -0.001,0.005 -0.001,0.006 -0.295,1.083 -0.702,2.126 -1.199,3.106 l 0.763,2.997 -4.323,4.63 -3.044,-0.557 c -0.942,0.563 -1.954,1.039 -3.013,1.407 -0.002,0.001 -0.005,0.001 -0.007,0.002 l -1.851,3.117 -6.331,0.216 -2.059,-2.98 -0.011,-0.003 c -1.082,-0.295 -2.123,-0.701 -3.102,-1.197 l -2.996,0.763 -4.63,-4.324 0.556,-3.037 c -0.001,-0.001 -0.001,-0.002 -0.002,-0.003 -0.574,-0.953 -1.04,-1.965 -1.408,-3.024 l -3.115,-1.85 -0.217,-6.332 2.983,-2.059 c 0.295,-1.091 0.689,-2.131 1.196,-3.12 0,0 0,0 0,-0.001 l -0.761,-2.987 4.323,-4.631 3.025,0.554 c 0.955,-0.564 1.968,-1.042 3.04,-1.41 0.001,0 0.002,-10e-4 0.003,-10e-4 l 1.847,-3.111 6.331,-0.217 2.057,2.978 c 1.095,0.295 2.138,0.701 3.128,1.199 h 10e-4 l 2.982,-0.759 4.63,4.323 -0.555,3.038 c 0.574,0.953 1.039,1.966 1.407,3.025 h 0.001 l 3.116,1.852 z" /></g><g
           transform="translate(317.9543,387.3623)"
           id="g214"><path
             id="path216"
             style="fill:#007cff;fill-opacity:1;fill-rule:nonzero;stroke:none"
             d="M 0,0 C -0.26,1.456 0.711,2.845 2.162,3.104 3.618,3.365 5.007,2.398 5.267,0.942 5.528,-0.513 4.561,-1.901 3.105,-2.162 1.653,-2.422 0.26,-1.455 0,0 m 5.088,-6.486 0.521,1.256 c 0.001,0.001 0.002,0.001 0.003,0.001 0.374,0.194 0.725,0.425 1.045,0.685 l 1.161,-0.045 1.36,1.953 -0.445,1.074 c 0.133,0.39 0.228,0.798 0.28,1.217 0,0 0,0.002 0,0.002 L 10.011,0.583 9.593,2.925 8.336,3.445 C 8.335,3.447 8.334,3.448 8.334,3.449 8.14,3.823 7.909,4.174 7.65,4.494 L 7.694,5.654 5.742,7.014 4.67,6.57 c 0,0 0,10e-4 -0.001,10e-4 C 4.274,6.707 3.866,6.798 3.448,6.85 L 2.523,7.848 0.181,7.429 -0.34,6.171 C -0.717,5.978 -1.068,5.75 -1.391,5.486 v 0 L -2.549,5.53 -3.908,3.578 -3.467,2.512 C -3.599,2.116 -3.694,1.707 -3.745,1.284 c 0,0 0,-0.001 0,-0.001 l -0.997,-0.924 0.419,-2.341 1.256,-0.521 c 0.194,-0.379 0.425,-0.729 0.686,-1.054 0,-10e-4 0,-10e-4 0,-10e-4 l -0.044,-1.154 1.953,-1.36 1.071,0.444 c 0.395,-0.137 0.804,-0.227 1.222,-0.279 v 0 l 0.925,-0.998 z" /></g><g
           transform="translate(295.6074,387.5107)"
           id="g218"><path
             id="path220"
             style="fill:#007cff;fill-opacity:1;fill-rule:nonzero;stroke:none"
             d="M 0,0 -0.764,0.645 C 0.564,2.217 2.447,4.209 5.244,5.674 L 5.708,4.787 C 2.726,3.227 0.816,0.965 0,0" /></g><g
           transform="translate(303.5908,393.1982)"
           id="g222"><path
             id="path224"
             style="fill:#007cff;fill-opacity:1;fill-rule:nonzero;stroke:none"
             d="M 0,0 -0.395,0.92 C 3.388,2.54 7.34,3.172 11.344,2.8 L 11.251,1.804 C 7.412,2.17 3.627,1.556 0,0" /></g><g
           transform="translate(301.7026,386.2803)"
           id="g226"><path
             id="path228"
             style="fill:#007cff;fill-opacity:1;fill-rule:nonzero;stroke:none"
             d="M 0,0 -0.826,0.562 C 1.228,3.579 5.287,6.206 9.045,6.951 L 9.239,5.971 C 5.718,5.271 1.918,2.816 0,0" /></g><g
           transform="translate(224.3657,317.3359)"
           id="g230"><path
             id="path232"
             style="fill:#ffffff;fill-opacity:1;fill-rule:nonzero;stroke:none"
             d="m 0,0 c -1.818,-2.743 -2.458,-6.031 -1.803,-9.258 0.655,-3.225 2.527,-6.004 5.271,-7.822 5.667,-3.754 13.329,-2.201 17.081,3.462 3.754,5.664 2.201,13.33 -3.462,17.087 C 11.425,7.222 3.76,5.666 0,0 m 10.258,-20.128 c -2.528,0 -5.082,0.716 -7.342,2.214 -2.967,1.966 -4.991,4.97 -5.699,8.457 -0.709,3.488 -0.016,7.043 1.95,10.01 v 0 c 4.065,6.125 12.352,7.806 18.473,3.75 6.122,-4.063 7.801,-12.35 3.743,-18.474 -2.56,-3.863 -6.803,-5.957 -11.125,-5.957 M 5.34,-23.363 c 0.048,0 0.095,-0.007 0.141,-0.021 1.071,-0.314 2.185,-0.522 3.311,-0.616 0.121,-0.01 0.234,-0.063 0.318,-0.15 l 2.036,-2.099 5.901,1.197 1.06,2.733 c 0.044,0.113 0.128,0.207 0.235,0.262 1.003,0.523 1.95,1.145 2.816,1.851 0.091,0.074 0.194,0.125 0.323,0.112 l 3.471,-0.052 3.326,5.019 -1.404,3.184 c -0.047,0.107 -0.055,0.228 -0.022,0.341 0.316,1.091 0.523,2.206 0.616,3.311 0.01,0.121 0.063,0.233 0.15,0.318 l 2.099,2.036 -1.196,5.902 -2.728,1.057 c -0.116,0.045 -0.21,0.131 -0.266,0.243 -0.52,1 -1.143,1.943 -1.851,2.805 -0.075,0.092 -0.115,0.207 -0.114,0.326 l 0.054,3.473 -5.02,3.327 -3.176,-1.4 C 15.313,9.749 15.192,9.741 15.079,9.772 c -1.084,0.316 -2.202,0.523 -3.323,0.617 -0.12,0.009 -0.233,0.063 -0.317,0.149 L 9.406,12.635 3.504,11.438 2.447,8.711 C 2.403,8.598 2.319,8.504 2.211,8.448 1.215,7.93 0.267,7.306 -0.605,6.594 -0.697,6.52 -0.818,6.467 -0.931,6.479 L -4.4,6.533 -7.727,1.513 -6.325,-1.666 c 0.06,-0.137 0.056,-0.293 -0.01,-0.426 -0.282,-0.999 -0.489,-2.114 -0.582,-3.233 -0.01,-0.12 -0.063,-0.233 -0.15,-0.318 l -2.099,-2.035 1.197,-5.901 2.725,-1.057 c 0.122,-0.047 0.22,-0.139 0.274,-0.257 0.518,-0.992 1.139,-1.933 1.844,-2.791 0.075,-0.091 0.117,-0.209 0.115,-0.327 l -0.053,-3.471 5.019,-3.329 3.184,1.405 c 0.064,0.028 0.132,0.043 0.201,0.043 m 5.637,-3.93 c -0.134,0 -0.264,0.054 -0.359,0.152 l -2.097,2.162 c -1.067,0.1 -2.124,0.296 -3.145,0.585 l -3.268,-1.441 c -0.155,-0.071 -0.335,-0.053 -0.478,0.04 l -5.475,3.63 c -0.142,0.095 -0.226,0.254 -0.223,0.425 l 0.054,3.563 c -0.665,0.828 -1.258,1.727 -1.766,2.677 l -2.805,1.088 c -0.159,0.061 -0.276,0.199 -0.31,0.366 l -1.305,6.438 c -0.034,0.167 0.02,0.339 0.142,0.459 l 2.161,2.095 c 0.1,1.063 0.296,2.12 0.584,3.15 l -1.439,3.263 c -0.069,0.157 -0.054,0.336 0.04,0.479 l 3.629,5.475 c 0.094,0.142 0.228,0.23 0.425,0.224 l 3.561,-0.055 c 0.836,0.668 1.736,1.261 2.679,1.765 l 1.088,2.807 c 0.062,0.159 0.201,0.275 0.367,0.309 l 6.438,1.306 c 0.167,0.032 0.339,-0.021 0.458,-0.142 l 2.094,-2.159 c 1.064,-0.099 2.123,-0.297 3.153,-0.585 l 3.263,1.439 c 0.155,0.068 0.335,0.052 0.478,-0.041 L 24.396,8.552 C 24.538,8.457 24.622,8.298 24.62,8.127 L 24.565,4.562 c 0.666,-0.83 1.259,-1.728 1.765,-2.675 l 2.807,-1.089 c 0.159,-0.062 0.275,-0.199 0.309,-0.366 l 1.305,-6.438 c 0.034,-0.167 -0.02,-0.34 -0.142,-0.459 l -2.162,-2.097 c -0.098,-1.05 -0.295,-2.106 -0.585,-3.143 l 1.442,-3.269 c 0.069,-0.156 0.053,-0.337 -0.041,-0.478 l -3.629,-5.475 C 25.54,-21.068 25.391,-21.14 25.21,-21.15 l -3.563,0.053 c -0.83,-0.662 -1.729,-1.253 -2.675,-1.758 l -1.091,-2.813 c -0.062,-0.159 -0.2,-0.275 -0.367,-0.31 l -6.437,-1.305 c -0.034,-0.007 -0.067,-0.01 -0.1,-0.01" /></g><g
           transform="translate(346.4077,279.0684)"
           id="g234"><path
             id="path236"
             style="fill:#007cff;fill-opacity:1;fill-rule:nonzero;stroke:none"
             d="M 0,0 38.758,35.328 33.443,-4.514 Z M 79.419,-10.718 63.724,-8.6 74.104,69.209 43.823,73.295 -29.63,5.669 l -3.859,-28.93 63.291,-8.542 -3.156,-23.662 30.281,-4.086 3.156,23.661 15.695,-2.117 z" /></g><g
           transform="translate(394.1338,220.2588)"
           id="g238"><path
             id="path240"
             style="fill:#1a2e35;fill-opacity:1;fill-rule:nonzero;stroke:none"
             d="m 0,0 c -0.03,0 -0.06,0.003 -0.09,0.008 -0.272,0.05 -0.452,0.31 -0.402,0.582 l 23.326,127.93 c 0.049,0.27 0.312,0.44 0.582,0.402 0.271,-0.05 0.451,-0.311 0.401,-0.582 L 0.491,0.41 C 0.447,0.169 0.237,0 0,0" /></g><g
           transform="translate(414.8313,346.6299)"
           id="g242"><path
             id="path244"
             style="fill:#1a2e35;fill-opacity:1;fill-rule:nonzero;stroke:none"
             d="m 0,0 c -0.016,-0.452 -0.395,-0.806 -0.847,-0.791 -0.452,0.016 -0.807,0.395 -0.791,0.848 0.015,0.452 0.395,0.806 0.847,0.791 C -0.339,0.832 0.015,0.452 0,0" /></g><g
           transform="translate(411.4988,329.3291)"
           id="g246"><path
             id="path248"
             style="fill:#1a2e35;fill-opacity:1;fill-rule:nonzero;stroke:none"
             d="m 0,0 c -0.016,-0.452 -0.395,-0.806 -0.847,-0.791 -0.452,0.016 -0.807,0.395 -0.791,0.848 0.015,0.452 0.395,0.806 0.847,0.791 C -0.339,0.832 0.015,0.452 0,0" /></g><g
           transform="translate(408.1663,312.0283)"
           id="g250"><path
             id="path252"
             style="fill:#1a2e35;fill-opacity:1;fill-rule:nonzero;stroke:none"
             d="m 0,0 c -0.015,-0.452 -0.395,-0.806 -0.847,-0.791 -0.452,0.016 -0.807,0.395 -0.791,0.848 0.015,0.452 0.395,0.805 0.847,0.791 C -0.339,0.832 0.016,0.452 0,0" /></g><g
           transform="translate(401.6133,294.0186)"
           id="g254"><path
             id="path256"
             style="fill:#1a2e35;fill-opacity:1;fill-rule:nonzero;stroke:none"
             d="m 0,0 c -0.016,-0.453 -0.395,-0.807 -0.847,-0.791 -0.453,0.016 -0.807,0.395 -0.791,0.847 0.015,0.452 0.395,0.806 0.847,0.791 C -0.339,0.831 0.015,0.452 0,0" /></g><g
           transform="translate(401.5012,277.4268)"
           id="g258"><path
             id="path260"
             style="fill:#1a2e35;fill-opacity:1;fill-rule:nonzero;stroke:none"
             d="m 0,0 c -0.015,-0.452 -0.395,-0.807 -0.847,-0.791 -0.452,0.016 -0.806,0.395 -0.791,0.848 0.016,0.452 0.395,0.806 0.847,0.791 C -0.339,0.832 0.016,0.452 0,0" /></g><g
           transform="translate(398.1689,260.126)"
           id="g262"><path
             id="path264"
             style="fill:#1a2e35;fill-opacity:1;fill-rule:nonzero;stroke:none"
             d="m 0,0 c -0.016,-0.452 -0.395,-0.807 -0.847,-0.791 -0.452,0.016 -0.807,0.395 -0.791,0.848 0.015,0.452 0.395,0.806 0.847,0.791 C -0.339,0.832 0.015,0.452 0,0" /></g><g
           transform="translate(394.8364,242.8252)"
           id="g266"><path
             id="path268"
             style="fill:#1a2e35;fill-opacity:1;fill-rule:nonzero;stroke:none"
             d="m 0,0 c -0.016,-0.452 -0.395,-0.807 -0.847,-0.791 -0.452,0.016 -0.806,0.395 -0.791,0.848 0.016,0.452 0.395,0.806 0.847,0.791 C -0.339,0.832 0.015,0.452 0,0" /></g><g
           transform="translate(391.5039,225.5244)"
           id="g270"><path
             id="path272"
             style="fill:#1a2e35;fill-opacity:1;fill-rule:nonzero;stroke:none"
             d="m 0,0 c -0.015,-0.452 -0.395,-0.807 -0.847,-0.791 -0.452,0.016 -0.806,0.395 -0.791,0.848 0.016,0.452 0.395,0.805 0.847,0.791 C -0.339,0.832 0.015,0.452 0,0" /></g><g
           transform="translate(400.7939,293.5459)"
           id="g274"><path
             id="path276"
             style="fill:#1a2e35;fill-opacity:1;fill-rule:nonzero;stroke:none"
             d="m 0,0 c -0.23,0 -0.438,0.16 -0.488,0.396 -0.058,0.269 0.113,0.535 0.384,0.593 L 2.379,1.522 C 2.653,1.576 2.915,1.409 2.973,1.138 3.031,0.868 2.859,0.603 2.589,0.544 L 0.105,0.011 C 0.07,0.004 0.035,0 0,0" /></g><g
           transform="translate(409.0847,302.7588)"
           id="g278"><path
             id="path280"
             style="fill:#1a2e35;fill-opacity:1;fill-rule:nonzero;stroke:none"
             d="M 0,0 C 0,0 -2.238,-5.829 -2.991,-9.36 -3.744,-12.893 -3.79,-20.785 -3.79,-20.785" /></g><g
           transform="translate(405.2949,281.4736)"
           id="g282"><path
             id="path284"
             style="fill:#1a2e35;fill-opacity:1;fill-rule:nonzero;stroke:none"
             d="m 0,0 h -0.003 c -0.276,0.002 -0.498,0.227 -0.497,0.503 0.002,0.324 0.054,7.984 0.81,11.526 0.753,3.53 2.921,9.196 3.013,9.436 0.099,0.257 0.387,0.385 0.646,0.287 C 4.227,21.653 4.356,21.363 4.257,21.106 4.234,21.048 2.024,15.272 1.288,11.82 0.554,8.378 0.5,0.575 0.5,0.497 0.499,0.222 0.275,0 0,0" /></g></g></g><g
       id="g286"><g
         clip-path="url(#clipPath292)"
         id="g288"><g
           transform="translate(222.4519,195.1592)"
           id="g294"><path
             id="path296"
             style="fill:#1a2e35;fill-opacity:1;fill-rule:nonzero;stroke:none"
             d="M 0,0 C 1.389,22.402 -1.166,63.126 40.945,57.735 86.08,51.958 73.167,-0.82 73.167,-0.82 Z" /></g><g
           transform="translate(269.8889,227)"
           id="g298"><path
             id="path300"
             style="fill:#ffffff;fill-opacity:1;fill-rule:nonzero;stroke:none"
             d="m 0,0 c 0,-10.148 -8.227,-18.375 -18.375,-18.375 -10.149,0 -18.376,8.227 -18.376,18.375 0,10.148 8.227,18.375 18.376,18.375 C -8.227,18.375 0,10.148 0,0" /></g><g
           transform="translate(253.9272,245.3467)"
           id="g302"><path
             id="path304"
             style="fill:#1a2e35;fill-opacity:1;fill-rule:nonzero;stroke:none"
             d="M 0,0 C -8.704,1.486 -18.01,-4.93 -18.927,-11.43 L 15.58,-14.603 C 14.364,-7.193 6.906,-1.18 0,0" /></g><g
           transform="translate(265.5759,227.457)"
           id="g306"><path
             id="path308"
             style="fill:#1a2e35;fill-opacity:1;fill-rule:nonzero;stroke:none"
             d="m 0,0 c -0.247,-4.804 -2.865,-8.574 -5.848,-8.421 -2.983,0.153 -5.201,4.172 -4.954,8.976 0.246,4.803 2.864,8.574 5.847,8.421 C -1.972,8.823 0.247,4.805 0,0" /></g><g
           transform="translate(251.5137,244.375)"
           id="g310"><path
             id="path312"
             style="fill:#007cff;fill-opacity:1;fill-rule:nonzero;stroke:none"
             d="m 0,0 c -9.581,0 -17.375,-7.794 -17.375,-17.375 0,-9.581 7.794,-17.375 17.375,-17.375 9.581,0 17.375,7.794 17.375,17.375 C 17.375,-7.794 9.581,0 0,0 m 0,-36.75 c -10.684,0 -19.375,8.691 -19.375,19.375 C -19.375,-6.691 -10.684,2 0,2 10.684,2 19.375,-6.691 19.375,-17.375 19.375,-28.059 10.684,-36.75 0,-36.75" /></g><g
           id="g314"><g
             id="g316" /><g
             id="g328"><g
               style="opacity:0.30000299"
               id="g326"
               clip-path="url(#clipPath320)"><g
                 id="g324"
                 transform="translate(290.4854,195.7227)"><path
                   id="path322"
                   style="fill:#ffffff;fill-opacity:1;fill-rule:nonzero;stroke:none"
                   d="m 0,0 c -0.039,0 -0.078,0.005 -0.118,0.014 -0.268,0.064 -0.433,0.335 -0.369,0.603 0.033,0.135 3.219,13.695 -0.09,27.404 -0.065,0.268 0.1,0.538 0.369,0.603 0.265,0.061 0.538,-0.1 0.603,-0.369 C 3.763,14.305 0.519,0.521 0.485,0.383 0.43,0.153 0.226,0 0,0" /></g></g></g></g><g
           id="g330"><g
             id="g332" /><g
             id="g344"><g
               style="opacity:0.30000299"
               id="g342"
               clip-path="url(#clipPath336)"><g
                 id="g340"
                 transform="translate(287.6982,231.2412)"><path
                   id="path338"
                   style="fill:#ffffff;fill-opacity:1;fill-rule:nonzero;stroke:none"
                   d="m 0,0 c -0.19,0 -0.371,0.108 -0.455,0.292 -1.286,2.806 -2.881,5.382 -4.742,7.657 -0.175,0.214 -0.143,0.529 0.071,0.703 0.213,0.176 0.528,0.145 0.704,-0.07 C -2.508,6.241 -0.867,3.592 0.454,0.708 0.569,0.457 0.459,0.16 0.208,0.046 0.14,0.015 0.069,0 0,0" /></g></g></g></g><g
           transform="translate(128.7349,90.082)"
           id="g346"><path
             id="path348"
             style="fill:#1a2e35;fill-opacity:1;fill-rule:nonzero;stroke:none"
             d="m 0,0 c -0.125,0 -0.248,0.001 -0.372,0.005 -2.76,0.076 -4.937,2.375 -4.861,5.136 0.075,2.759 2.349,4.894 5.135,4.86 C -0.066,10 -0.034,10 -0.002,10 c 2.889,0 9.839,3.51 24.378,26.43 0.782,1.23 2.061,2.059 3.504,2.269 1.445,0.205 2.905,-0.222 4.005,-1.179 C 49.826,21.877 68.838,12.14 69.028,12.043 71.49,10.793 72.472,7.783 71.223,5.322 69.973,2.86 66.964,1.875 64.503,3.126 63.748,3.509 47.13,12.006 29.705,26.272 17.52,7.953 8.477,0 0,0" /></g><g
           transform="translate(159.6704,128.5)"
           id="g350"><path
             id="path352"
             style="fill:#1a2e35;fill-opacity:1;fill-rule:nonzero;stroke:none"
             d="m 0,0 c -0.142,0 -0.284,0.01 -0.428,0.03 -1.64,0.235 -2.78,1.754 -2.546,3.395 0.711,4.976 -0.17,23.626 -6.474,38.126 -0.575,1.321 -0.129,2.864 1.061,3.676 13.699,9.335 42.877,10.451 44.113,10.494 1.647,0.036 3.044,-1.239 3.102,-2.894 C 38.885,51.172 37.59,49.782 35.935,49.725 35.664,49.715 10.154,48.736 -2.954,41.522 2.63,27.084 3.896,9.086 2.966,2.575 2.752,1.079 1.469,0 0,0" /></g><g
           transform="translate(164.71,132.3838)"
           id="g354"><path
             id="path356"
             style="fill:#007cff;fill-opacity:1;fill-rule:nonzero;stroke:none"
             d="m 0,0 c -1.996,4.706 -10.988,4.172 -16.268,0.139 -2.822,-2.156 -6.641,-8.641 -7.043,-10.992 -0.401,-2.35 1.228,-4.48 4.024,-4.238 3.447,0.299 8.181,5.309 8.181,5.309 -3.149,-3.088 0.914,-5.267 6.977,-0.801 C -0.766,-8.106 2.234,-5.27 0,0" /></g><g
           transform="translate(346.7266,215.3604)"
           id="g358"><path
             id="path360"
             style="fill:#1a2e35;fill-opacity:1;fill-rule:nonzero;stroke:none"
             d="m 0,0 c 0.451,-0.168 0.961,-0.267 1.437,-0.323 4.983,-0.59 9.382,0.107 10.04,0.728 C 11.307,0.56 10.636,0.987 8.148,1.463 4.866,2.088 1.998,1.265 0,0 m -1.261,-5.622 c 0.086,-0.025 0.173,-0.049 0.258,-0.07 3.531,-0.865 8.298,-1.012 9.933,-0.744 -0.506,0.214 -1.54,0.556 -3.635,1.018 -2.774,0.611 -4.942,0.421 -6.556,-0.204 m -3.334,-6.568 c 0.276,-0.512 0.687,-0.934 1.219,-1.217 2.257,-1.201 6.696,-1.476 8.362,-0.804 0.34,0.138 0.391,0.252 0.391,0.253 0,0.003 -0.055,0.562 -2.501,1.609 -2.803,1.2 -5.038,1.368 -6.831,0.518 -0.219,-0.105 -0.432,-0.224 -0.64,-0.359 m -5.426,-9.331 c -0.045,0 -0.092,0.005 -0.138,0.019 -0.265,0.076 -0.419,0.354 -0.342,0.618 1.332,4.64 2.787,7.475 4.699,9.051 -0.293,0.996 -0.26,2.14 0.153,3.259 0.402,1.089 1.179,2.171 2.362,3.005 -0.579,0.626 -0.795,1.445 -0.59,2.381 0.226,1.042 0.984,2.17 2.136,3.157 -0.453,0.52 -0.564,1.088 -0.567,1.508 C -2.333,4.459 3.199,9.002 9.454,9.855 9.729,9.906 9.98,9.702 10.017,9.428 10.054,9.154 9.863,8.902 9.589,8.865 3.651,8.055 -1.328,3.756 -1.308,1.485 -1.305,1.117 -1.169,0.821 -0.946,0.582 1.305,2.149 4.628,3.157 8.336,2.445 11.405,1.858 12.653,1.21 12.509,0.278 12.237,-1.475 5.7,-1.837 1.319,-1.315 c -0.993,0.118 -1.72,0.352 -2.25,0.645 -1.09,-0.891 -1.787,-1.891 -1.969,-2.73 -0.163,-0.749 0.078,-1.272 0.495,-1.636 1.856,0.957 4.469,1.357 7.916,0.595 4.536,-1.001 4.706,-1.554 4.808,-1.883 0.072,-0.236 0.014,-0.477 -0.161,-0.662 C 9.202,-7.999 2.251,-7.519 -1.24,-6.663 -1.695,-6.552 -2.097,-6.4 -2.443,-6.212 -3.6,-6.94 -4.344,-7.925 -4.71,-8.92 c -0.295,-0.798 -0.362,-1.593 -0.226,-2.303 0.18,0.108 0.364,0.205 0.552,0.295 2.069,0.982 4.571,0.818 7.654,-0.501 2.044,-0.876 3.031,-1.65 3.103,-2.439 0.021,-0.234 -0.025,-0.68 -0.571,-1.042 -1.525,-1.013 -6.87,-0.86 -9.648,0.62 -0.655,0.35 -1.175,0.865 -1.538,1.486 -1.635,-1.493 -2.953,-4.166 -4.157,-8.355 -0.063,-0.22 -0.262,-0.362 -0.48,-0.362" /></g><g
           transform="translate(206.5276,91.752)"
           id="g362"><path
             id="path364"
             style="fill:#1a2e35;fill-opacity:1;fill-rule:nonzero;stroke:none"
             d="m 0,0 c 0.658,0.211 0.438,0.847 -0.297,0.847 h -13.539 c -25.781,2.73 -43.794,-0.929 -32.444,-1.791 11.35,-0.864 -0.8,-0.682 -9.088,-3.818 -8.289,-3.135 61.654,-3.926 68.015,0 C 18.514,-1.142 -9.135,-2.928 0,0" /></g><g
           transform="translate(303.4687,87.7617)"
           id="g366"><path
             id="path368"
             style="fill:#007cff;fill-opacity:1;fill-rule:nonzero;stroke:none"
             d="m 0,0 -117.802,3.905 -4.889,114.222 139.111,-3.111 z" /></g><g
           transform="translate(222.4517,89.9473)"
           id="g370"><path
             id="path372"
             style="fill:#1a2e35;fill-opacity:1;fill-rule:nonzero;stroke:none"
             d="M 0,0 C -0.258,0 -0.477,0.197 -0.498,0.459 L -9.941,115.18 c -0.023,0.275 0.182,0.516 0.457,0.539 0.283,0.015 0.517,-0.182 0.54,-0.457 L 0.499,0.541 C 0.521,0.266 0.317,0.024 0.042,0.002 0.027,0.001 0.014,0 0,0" /></g><g
           transform="translate(303.4687,87.7617)"
           id="g374"><path
             id="path376"
             style="fill:#007cff;fill-opacity:1;fill-rule:nonzero;stroke:none"
             d="m 0,0 31.663,4.82 9.972,106.21 -25.215,3.986 z" /></g><g
           id="g378"><g
             id="g380" /><g
             id="g392"><g
               style="opacity:0.19999701"
               id="g390"
               clip-path="url(#clipPath384)"><g
                 id="g388"
                 transform="translate(303.4687,87.7617)"><path
                   id="path386"
                   style="fill:#000000;fill-opacity:1;fill-rule:nonzero;stroke:none"
                   d="m 0,0 31.663,4.82 9.972,106.21 -25.215,3.986 z" /></g></g></g></g><g
           transform="translate(195.7346,113.6846)"
           id="g394"><path
             id="path396"
             style="fill:#1a2e35;fill-opacity:1;fill-rule:nonzero;stroke:none"
             d="m 0,0 -2.905,67.861 c -0.303,7.083 5.444,12.949 12.532,12.79 l 88.059,-1.968 c 7.354,-0.165 12.911,-6.719 11.871,-14 L 99.794,-3.709 C 98.909,-9.907 93.499,-14.444 87.242,-14.237 l -75.391,2.499 C 5.44,-11.525 0.274,-6.41 0,0" /></g><g
           transform="translate(205.2471,173.5117)"
           id="g398"><path
             id="path400"
             style="fill:#ffffff;fill-opacity:1;fill-rule:nonzero;stroke:none"
             d="M 0,0 13.624,-0.434 13.512,-3.946 4.983,-3.675 4.9,-6.289 l 7.912,-0.252 -0.107,-3.355 -7.912,0.25 -0.103,-3.243 8.776,-0.279 -0.119,-3.726 -13.871,0.442 z" /></g><g
           transform="translate(226.8176,166.1523)"
           id="g402"><path
             id="path404"
             style="fill:#ffffff;fill-opacity:1;fill-rule:nonzero;stroke:none"
             d="M 0,0 2.143,-0.068 C 2.375,-0.075 2.826,-0.015 3.497,0.113 3.836,0.17 4.116,0.333 4.339,0.604 4.561,0.873 4.677,1.188 4.689,1.547 4.706,2.078 4.55,2.491 4.223,2.786 3.895,3.081 3.267,3.244 2.339,3.273 L 0.106,3.345 Z M -5.418,-9.623 -4.894,6.829 3.579,6.56 C 5.15,6.509 6.346,6.336 7.168,6.04 7.99,5.745 8.644,5.224 9.129,4.479 9.615,3.732 9.841,2.836 9.808,1.789 9.779,0.876 9.559,0.095 9.149,-0.555 8.738,-1.205 8.186,-1.725 7.492,-2.114 7.049,-2.362 6.447,-2.561 5.686,-2.709 6.285,-2.931 6.719,-3.146 6.99,-3.356 7.172,-3.498 7.434,-3.795 7.775,-4.248 8.116,-4.701 8.343,-5.049 8.455,-5.293 l 2.31,-4.846 -5.744,0.184 -2.558,5.114 C 2.14,-4.18 1.847,-3.747 1.583,-3.544 1.225,-3.278 0.814,-3.138 0.35,-3.123 l -0.449,0.015 -0.212,-6.678 z" /></g><g
           transform="translate(244.6946,165.584)"
           id="g406"><path
             id="path408"
             style="fill:#ffffff;fill-opacity:1;fill-rule:nonzero;stroke:none"
             d="m 0,0 2.144,-0.068 c 0.231,-0.008 0.683,0.052 1.353,0.181 0.339,0.056 0.62,0.22 0.842,0.49 0.222,0.27 0.338,0.584 0.35,0.944 C 4.706,2.078 4.551,2.491 4.223,2.786 3.895,3.081 3.267,3.243 2.34,3.272 L 0.106,3.344 Z M -5.417,-9.624 -4.894,6.828 3.579,6.559 C 5.15,6.509 6.347,6.336 7.168,6.04 7.99,5.744 8.644,5.224 9.13,4.479 9.615,3.732 9.841,2.836 9.808,1.788 9.779,0.875 9.559,0.095 9.149,-0.556 8.739,-1.205 8.186,-1.725 7.492,-2.115 7.05,-2.363 6.447,-2.561 5.686,-2.709 6.285,-2.931 6.719,-3.146 6.99,-3.357 7.173,-3.498 7.434,-3.795 7.776,-4.248 8.116,-4.701 8.343,-5.05 8.455,-5.293 l 2.31,-4.846 -5.744,0.183 -2.557,5.114 c -0.324,0.661 -0.617,1.094 -0.88,1.297 -0.359,0.267 -0.77,0.407 -1.234,0.422 l -0.449,0.015 -0.212,-6.678 z" /></g><g
           transform="translate(261.3989,163.457)"
           id="g410"><path
             id="path412"
             style="fill:#ffffff;fill-opacity:1;fill-rule:nonzero;stroke:none"
             d="m 0,0 c -0.053,-1.661 0.218,-2.864 0.812,-3.609 0.594,-0.745 1.422,-1.135 2.485,-1.169 1.092,-0.035 1.949,0.294 2.57,0.985 0.621,0.691 0.961,1.958 1.019,3.799 C 6.936,1.554 6.659,2.695 6.058,3.43 5.456,4.164 4.62,4.549 3.55,4.583 2.524,4.615 1.69,4.278 1.046,3.572 0.402,2.866 0.053,1.676 0,0 m -5.083,0.184 c 0.086,2.686 0.9,4.753 2.444,6.202 1.544,1.448 3.652,2.131 6.323,2.046 2.738,-0.087 4.824,-0.89 6.259,-2.407 1.434,-1.517 2.109,-3.6 2.025,-6.249 C 11.907,-2.146 11.533,-3.713 10.847,-4.923 10.16,-6.133 9.195,-7.061 7.95,-7.707 6.705,-8.353 5.17,-8.646 3.344,-8.588 c -1.855,0.059 -3.381,0.403 -4.578,1.033 -1.198,0.63 -2.153,1.596 -2.868,2.9 -0.715,1.303 -1.042,2.917 -0.981,4.839" /></g><g
           transform="translate(281.3247,164.418)"
           id="g414"><path
             id="path416"
             style="fill:#ffffff;fill-opacity:1;fill-rule:nonzero;stroke:none"
             d="M 0,0 2.143,-0.068 C 2.375,-0.075 2.826,-0.015 3.497,0.113 3.836,0.17 4.116,0.333 4.339,0.604 4.561,0.873 4.677,1.188 4.688,1.547 4.706,2.078 4.55,2.491 4.222,2.786 3.895,3.081 3.267,3.244 2.339,3.273 L 0.106,3.345 Z M -5.418,-9.623 -4.894,6.829 3.579,6.56 C 5.15,6.509 6.346,6.337 7.168,6.04 7.99,5.745 8.644,5.224 9.129,4.479 9.615,3.732 9.841,2.836 9.808,1.789 9.779,0.876 9.559,0.095 9.149,-0.555 8.738,-1.205 8.186,-1.725 7.492,-2.114 7.049,-2.362 6.447,-2.561 5.686,-2.708 6.285,-2.93 6.719,-3.146 6.99,-3.356 7.172,-3.498 7.434,-3.795 7.775,-4.248 8.116,-4.701 8.343,-5.049 8.455,-5.293 l 2.31,-4.846 -5.744,0.184 -2.558,5.114 C 2.14,-4.18 1.846,-3.747 1.583,-3.544 1.225,-3.278 0.813,-3.138 0.35,-3.123 l -0.449,0.015 -0.213,-6.678 z" /></g><g
           transform="translate(283.999,126.8418)"
           id="g418"><path
             id="path420"
             style="fill:#ffffff;fill-opacity:1;fill-rule:nonzero;stroke:none"
             d="m 0,0 c -0.356,0 -0.71,0.144 -0.97,0.427 l -8.56,9.369 -9.237,-8.44 c -0.535,-0.49 -1.365,-0.451 -1.855,0.083 l -8.56,9.37 -9.237,-8.44 c -0.535,-0.489 -1.366,-0.451 -1.854,0.083 l -8.561,9.369 -9.237,-8.44 c -0.256,-0.235 -0.602,-0.359 -0.944,-0.343 -0.348,0.016 -0.675,0.169 -0.91,0.426 l -8.561,9.369 -9.237,-8.439 c -0.534,-0.49 -1.365,-0.451 -1.854,0.083 -0.489,0.535 -0.451,1.366 0.084,1.854 l 10.205,9.325 c 0.535,0.491 1.366,0.452 1.855,-0.083 l 8.56,-9.369 9.237,8.441 c 0.257,0.235 0.601,0.356 0.945,0.342 0.347,-0.015 0.675,-0.169 0.91,-0.425 l 8.56,-9.37 9.237,8.44 c 0.534,0.49 1.365,0.452 1.855,-0.083 l 8.56,-9.369 9.237,8.439 c 0.535,0.491 1.365,0.453 1.854,-0.083 L 0.969,2.198 C 1.458,1.663 1.42,0.832 0.885,0.344 0.633,0.113 0.316,0 0,0" /></g><g
           transform="translate(125.75,85.333)"
           id="g422"><path
             id="path424"
             style="fill:#007cff;fill-opacity:1;fill-rule:nonzero;stroke:none"
             d="m 0,0 -6.258,2.985 -5.583,27.167 3.03,3.337 z" /></g><g
           transform="translate(125.75,85.333)"
           id="g426"><path
             id="path428"
             style="fill:#007cff;fill-opacity:1;fill-rule:nonzero;stroke:none"
             d="m 0,0 8.305,4.852 -7.12,22.383 -9.996,6.254 z" /></g><g
           id="g430"><g
             id="g432" /><g
             id="g444"><g
               style="opacity:0.19999701"
               id="g442"
               clip-path="url(#clipPath436)"><g
                 id="g440"
                 transform="translate(125.75,85.333)"><path
                   id="path438"
                   style="fill:#000000;fill-opacity:1;fill-rule:nonzero;stroke:none"
                   d="m 0,0 8.305,4.852 -7.12,22.383 -9.996,6.254 z" /></g></g></g></g><g
           transform="translate(261.9492,80.3945)"
           id="g446"><path
             id="path448"
             style="fill:#1a2e35;fill-opacity:1;fill-rule:nonzero;stroke:none"
             d="m 0,0 c -0.236,0 -0.467,0.004 -0.691,0.01 -2.761,0.076 -4.937,2.375 -4.861,5.136 0.075,2.758 2.356,4.928 5.135,4.86 7.703,-0.252 24.006,4.48 33.319,13.52 0.576,0.559 1.277,0.971 2.046,1.202 15.788,4.738 21.664,-4.834 21.906,-5.245 l -8.607,-5.089 c 0,0 0.033,-0.07 0.115,-0.183 -0.095,0.132 -2.331,3.039 -9.451,1.24 C 27.224,4.783 9.284,0 0,0" /></g><g
           transform="translate(261.3948,73.748)"
           id="g450"><path
             id="path452"
             style="fill:#007cff;fill-opacity:1;fill-rule:nonzero;stroke:none"
             d="M 0,0 -18.213,1.147 -19.65,34.724 4.827,33.809 Z" /></g><g
           transform="translate(261.3948,73.748)"
           id="g454"><path
             id="path456"
             style="fill:#007cff;fill-opacity:1;fill-rule:nonzero;stroke:none"
             d="M 0,0 4.257,4.236 6.896,25.173 4.827,33.809 Z" /></g><g
           id="g458"><g
             id="g460" /><g
             id="g472"><g
               style="opacity:0.19999701"
               id="g470"
               clip-path="url(#clipPath464)"><g
                 id="g468"
                 transform="translate(261.3948,73.748)"><path
                   id="path466"
                   style="fill:#000000;fill-opacity:1;fill-rule:nonzero;stroke:none"
                   d="M 0,0 4.257,4.236 6.896,25.173 4.827,33.809 Z" /></g></g></g></g><g
           transform="translate(366.9102,86.4629)"
           id="g474"><path
             id="path476"
             style="fill:#1a2e35;fill-opacity:1;fill-rule:nonzero;stroke:none"
             d="m 0,0 c -0.632,0 -1.27,0.199 -1.813,0.611 -10.395,7.901 -24.445,21.926 -29.837,35.457 -0.079,0.198 -0.136,0.404 -0.171,0.614 -2.629,15.632 -5.141,48.541 -5.247,49.934 -0.125,1.652 1.112,3.093 2.764,3.218 1.648,0.121 3.094,-1.112 3.219,-2.765 0.025,-0.336 2.562,-33.566 5.127,-49.073 C -20.58,24.84 -6,11.33 1.818,5.389 3.137,4.386 3.394,2.504 2.391,1.185 1.801,0.408 0.906,0 0,0" /></g><g
           transform="translate(380.7778,84.9473)"
           id="g478"><path
             id="path480"
             style="fill:#1a2e35;fill-opacity:1;fill-rule:nonzero;stroke:none"
             d="m 0,0 c -2.319,0 -4.949,1.052 -7.814,3.125 -1.343,0.972 -1.644,2.847 -0.672,4.189 0.972,1.342 2.847,1.643 4.189,0.672 C -1.82,6.193 -0.467,6 0,6 1.657,6 3,4.657 3,3 3,1.343 1.657,0 0,0" /></g><g
           transform="translate(373.8042,88.1572)"
           id="g482"><path
             id="path484"
             style="fill:#007cff;fill-opacity:1;fill-rule:nonzero;stroke:none"
             d="M 0,0 C 3.21,9.536 16.37,7.651 20.902,6.235 25.433,4.819 29.517,3.038 31.971,1.433 34.426,-0.172 34.465,-2.853 31.192,-4.384 27.156,-6.271 17.031,-4.596 17.031,-4.596 22.272,-6.891 17.021,-10.568 7.826,-6.956 4.833,-5.78 -1.133,-3.493 0,0" /></g><g
           transform="translate(341.8616,168.9639)"
           id="g486"><path
             id="path488"
             style="fill:#1a2e35;fill-opacity:1;fill-rule:nonzero;stroke:none"
             d="m 0,0 c -1.191,-8.102 -7.9,-14.076 -13.357,-13.274 -5.458,0.802 -5.685,8.038 -4.494,16.139 1.191,8.103 3.349,14.002 8.807,13.199 C -3.587,15.263 1.191,8.102 0,0" /></g><g
           transform="translate(210.6943,202.125)"
           id="g490"><path
             id="path492"
             style="fill:#1a2e35;fill-opacity:1;fill-rule:nonzero;stroke:none"
             d="m 0,0 c 0,-0.452 -0.367,-0.819 -0.819,-0.819 -0.453,0 -0.82,0.367 -0.82,0.819 0,0.452 0.367,0.819 0.82,0.819 C -0.367,0.819 0,0.452 0,0" /></g><g
           transform="translate(218.2083,196.2227)"
           id="g494"><path
             id="path496"
             style="fill:#1a2e35;fill-opacity:1;fill-rule:nonzero;stroke:none"
             d="m 0,0 c 0,-0.453 -0.367,-0.82 -0.819,-0.82 -0.453,0 -0.82,0.367 -0.82,0.82 0,0.452 0.367,0.819 0.82,0.819 C -0.367,0.819 0,0.452 0,0" /></g><g
           transform="translate(219.125,99.3174)"
           id="g498"><path
             id="path500"
             style="fill:#1a2e35;fill-opacity:1;fill-rule:nonzero;stroke:none"
             d="m 0,0 c 0,-0.453 -0.367,-0.819 -0.819,-0.819 -0.453,0 -0.82,0.366 -0.82,0.819 0,0.452 0.367,0.819 0.82,0.819 C -0.367,0.819 0,0.452 0,0" /></g><g
           transform="translate(226.6389,93.4141)"
           id="g502"><path
             id="path504"
             style="fill:#1a2e35;fill-opacity:1;fill-rule:nonzero;stroke:none"
             d="m 0,0 c 0,-0.452 -0.367,-0.819 -0.82,-0.819 -0.452,0 -0.819,0.367 -0.819,0.819 0,0.453 0.367,0.82 0.819,0.82 C -0.367,0.82 0,0.453 0,0" /></g></g></g><g
       id="g506"><g
         clip-path="url(#clipPath512)"
         id="g508"><g
           transform="translate(93.5078,93.5986)"
           id="g514"><path
             id="path516"
             style="fill:#1a2e35;fill-opacity:1;fill-rule:nonzero;stroke:none"
             d="m 0,0 h -0.002 c -0.002,-0.001 -0.375,-0.19 -0.52,-1.86 -0.146,-1.683 0.159,-2.824 0.934,-3.485 0.175,-0.15 0.376,-0.276 0.599,-0.379 0.282,0.313 0.476,0.663 0.543,1.029 0.268,1.449 -0.422,3.571 -1.196,4.429 C 0.157,-0.042 0.028,0 0,0 m -6.291,-0.868 c -0.006,-0.376 0.028,-1.008 0.177,-2.059 0.203,-1.427 0.73,-2.524 1.519,-3.222 -0.234,2.007 -1.125,4.333 -1.696,5.281 m -5.571,-0.872 c -0.058,-0.154 -0.163,-0.659 0.084,-2.044 0.329,-1.84 1.52,-3.063 2.84,-3.708 -0.007,0.213 -0.046,0.449 -0.117,0.708 -0.785,2.858 -2.278,4.828 -2.807,5.044 m 0.864,-8.278 c -2.379,0 -5.597,1.443 -7.333,3.95 -0.157,0.226 -0.101,0.538 0.126,0.695 0.227,0.158 0.538,0.101 0.696,-0.127 1.866,-2.694 5.979,-4.131 7.805,-3.28 0.192,0.09 0.348,0.203 0.468,0.339 -1.632,0.754 -3.124,2.23 -3.526,4.481 -0.227,1.268 -0.407,2.981 0.639,3.217 1.434,0.322 3.31,-3.147 4.032,-5.776 0.134,-0.486 0.176,-0.936 0.131,-1.342 0.632,-0.173 1.253,-0.218 1.786,-0.141 0.433,0.063 1.049,0.241 1.375,0.745 -1.215,0.821 -2.033,2.269 -2.305,4.19 -0.388,2.734 -0.097,3.211 0.206,3.444 0.197,0.151 0.447,0.18 0.688,0.078 1.069,-0.455 2.365,-4.334 2.613,-6.529 0.027,-0.242 0.027,-0.474 0.002,-0.694 0.409,-0.163 0.861,-0.252 1.349,-0.261 0.867,-0.05 1.724,0.225 2.41,0.629 -0.142,0.088 -0.276,0.187 -0.402,0.295 -1.038,0.886 -1.456,2.303 -1.281,4.331 0.136,1.567 0.493,2.423 1.123,2.693 C -0.175,1.017 0.275,1.108 0.812,0.68 1.892,-0.184 2.9,-2.918 2.538,-4.877 2.462,-5.282 2.288,-5.671 2.035,-6.028 3.87,-6.345 6.452,-5.829 8.679,-5.279 8.946,-5.214 9.218,-5.376 9.284,-5.645 9.351,-5.913 9.187,-6.184 8.919,-6.25 6.209,-6.92 3.292,-7.465 1.231,-6.867 0.315,-7.596 -0.974,-8.038 -2.267,-8.029 c -0.589,0.011 -1.138,0.117 -1.639,0.307 -0.394,-0.671 -1.127,-1.125 -2.124,-1.27 -0.664,-0.099 -1.446,-0.035 -2.238,0.191 -0.225,-0.375 -0.565,-0.676 -1.013,-0.886 -0.478,-0.222 -1.066,-0.33 -1.717,-0.331" /></g><g
           transform="translate(228.8733,76.0225)"
           id="g518"><path
             id="path520"
             style="fill:#1a2e35;fill-opacity:1;fill-rule:nonzero;stroke:none"
             d="M 0,0 2.71,4.7 0,9.399 H -2.901 L -1.262,4.699 -2.901,0 Z" /></g><g
           transform="translate(226.1631,78.2725)"
           id="g522"><path
             id="path524"
             style="fill:#1a2e35;fill-opacity:1;fill-rule:nonzero;stroke:none"
             d="m 0,0 c -1.35,0 -2.45,1.1 -2.45,2.45 0,1.35 1.1,2.44 2.45,2.44 L -4.607,5.812 -5.83,2.091 -3.774,-1.048 Z" /></g><g
           transform="translate(223.8467,78.2725)"
           id="g526"><path
             id="path528"
             style="fill:#007cff;fill-opacity:1;fill-rule:nonzero;stroke:none"
             d="M 0,0 C -1.35,0 -2.45,1.1 -2.45,2.45 -2.45,3.8 -1.35,4.89 0,4.89 1.35,4.89 2.44,3.8 2.44,2.45 2.44,1.1 1.35,0 0,0 m 2.71,7.149 h -5.43 l -2.71,-4.699 2.71,-4.7 h 5.43 l 2.71,4.7 z" /></g><g
           transform="translate(417.8894,85.7354)"
           id="g530"><path
             id="path532"
             style="fill:#007cff;fill-opacity:1;fill-rule:nonzero;stroke:none"
             d="M 0,0 -2.013,3.49 0,6.98 H 2.155 L 0.937,3.49 2.155,0 Z" /></g><g
           transform="translate(419.9021,87.4063)"
           id="g534"><path
             id="path536"
             style="fill:#007cff;fill-opacity:1;fill-rule:nonzero;stroke:none"
             d="M 0,0 C 1.003,0 1.82,0.816 1.82,1.819 1.82,2.821 1.003,3.632 0,3.632 L 3.422,4.316 4.33,1.553 2.803,-0.778 Z" /></g><g
           transform="translate(421.6226,87.4063)"
           id="g538"><path
             id="path540"
             style="fill:#1a2e35;fill-opacity:1;fill-rule:nonzero;stroke:none"
             d="M 0,0 C 1.002,0 1.82,0.816 1.82,1.819 1.82,2.821 1.002,3.632 0,3.632 -1.002,3.632 -1.812,2.821 -1.812,1.819 -1.812,0.816 -1.002,0 0,0 M -2.013,5.31 H 2.02 L 4.033,1.819 2.02,-1.671 h -4.033 l -2.012,3.49 z" /></g><g
           transform="translate(342.9478,81.1016)"
           id="g542"><path
             id="path544"
             style="fill:#1a2e35;fill-opacity:1;fill-rule:nonzero;stroke:none"
             d="m 0,0 h 4.518 c 1.177,0 2.139,0.963 2.139,2.14 0,1.175 -0.962,2.138 -2.139,2.138 L 0,4.278 C -1.177,4.278 -2.139,3.315 -2.139,2.14 -2.139,0.963 -1.177,0 0,0" /></g><g
           transform="translate(335.7297,85.1367)"
           id="g546"><path
             id="path548"
             style="fill:#007cff;fill-opacity:1;fill-rule:nonzero;stroke:none"
             d="M 0,0 C 1.116,2.366 3.821,3.436 6.042,2.389 8.263,1.341 9.159,-1.426 8.043,-3.792 6.927,-6.158 4.223,-7.228 2.002,-6.18 -0.219,-5.133 -1.115,-2.366 0,0" /></g><g
           transform="translate(336.9778,78.9648)"
           id="g550"><path
             id="path552"
             style="fill:#1a2e35;fill-opacity:1;fill-rule:nonzero;stroke:none"
             d="M 0,0 1.239,-0.585 5.547,8.553 4.308,9.137 Z" /></g></g></g></g></svg>